<?xml version="1.0" encoding="UTF-8"?>
<svg width="36px" height="36px" viewBox="0 0 36 36" version="1.1" xmlns="http://www.w3.org/2000/svg" xmlns:xlink="http://www.w3.org/1999/xlink">
    <title>Logos/Shadow/Stocks/Alibaba</title>
    <g id="Logos/Shadow/Stocks/Alibaba" stroke="none" stroke-width="1" fill="none" fill-rule="evenodd">
        <g id="alibaba-1" transform="translate(0.000000, 9.000000)">
            <path d="M4.0829425,16 C3.88201218,15.9478111 3.69690143,15.8474562 3.54370213,15.7076593 C2.01243531,14.181641 3.97157764,12.4305204 6.24429998,11.3970961 L6.24429998,8.5 C6.78500568,8.81426622 7.05462586,8.85957903 7.0780711,8.90489183 L8.83646362,7.13038394 L8.25033278,5.64821672 C13.3394138,3.85178328 15.3864758,3.13408692 19.5333515,2.4324693 L18.8138758,1.7366985 L20.0183747,1 C22.7878429,1.96618593 25.3990558,2.18982654 24.9492004,4.59286689 C25.0840105,2.97622296 23.1248682,2.34769051 20.113621,1.49405574 L19.5274901,1.85363477 L20.6308815,2.79643344 C15.6780759,3.67345547 12.6170075,4.63817969 9.01523352,5.9405574 L9.48706885,7.26486065 L7.68618184,9.08468135 C7.97924726,9.17384525 11.1516804,10.254044 14.4618544,7.8948548 C14.4618544,7.87146755 14.5292594,7.849542 14.5292594,7.82615475 C14.4164292,7.64782693 14.1907688,7.48996297 13.9211487,7.2414734 C14.3684025,7.27631586 14.7814202,7.49371944 15.0626818,7.84235184 C15.3439434,8.19098424 15.4685176,8.63994211 15.4069903,9.08321965 L14.9571349,9.08321965 C14.9967485,8.80620264 14.9491298,8.52375087 14.8208595,8.27489768 C12.2770517,10.1619567 9.30683362,10.4542974 6.78500568,9.55681154 L6.78500568,11.8019879 C5.54680428,12.2288053 3.3634669,13.6203469 3.3634669,14.9461119 C3.40327313,15.3983033 3.67572755,15.7973946 4.0829425,16 Z" id="Path" fill="#231815"></path>
            <path d="M14.4636163,15.2728367 C11.6954967,16.7033605 9.04111525,17.8428316 4.95540624,18 C-0.331199892,17.8879447 -1.14804627,14.3327367 1.3704403,10.624726 C3.73382947,6.86869165 7.47389282,3.49393625 13.4828098,1.34742301 C15.2139923,0.740578244 17.8004263,0.0245887409 20.2273316,0.00130452946 C23.7901407,-0.0438086303 27.217055,1.07383352 26.9895788,4.49515734 C26.8773178,7.11463114 23.1328231,10.8211865 21.1579161,13.482863 C20.295279,14.6470735 20.1593841,15.3834367 21.6113914,15.3383236 C26.8315272,14.9803288 31.5967106,13.1466972 36,11.2461234 C33.026561,13.2834919 17.5951069,20.996387 17.5271595,15.7399762 C17.5271595,15.0690999 17.8447399,14.3763946 18.3440058,13.6167472 C18.9249555,12.7989147 19.5537972,12.015139 20.2273316,11.2694076 C21.2716542,10.0615392 23.8817221,7.17720745 24.742882,5.43380212 C26.242157,2.14781777 22.9053469,1.97027566 20.0884825,0.941404568 L18.8403176,1.67922302 L19.5892165,2.37192831 C15.4134033,3.06608886 13.3498691,3.7806231 8.21540616,5.57350739 L8.79148227,7.0447785 L7.04405141,8.81146805 C7.02041752,8.76635489 6.74862777,8.72124173 6.20357114,8.40836014 L6.20357114,11.2926918 C3.91256077,12.3215629 1.91992828,14.0576919 3.48124225,15.5857183 C3.6356743,15.7248992 3.8222746,15.824812 4.02482176,15.876771 C6.8165752,17.4644631 14.4636163,15.274292 14.4636163,15.274292 L14.4636163,15.2728367 Z" id="Path" fill="#FF6600"></path>
        </g>
    </g>
</svg>