<?xml version="1.0" encoding="UTF-8"?>
<svg width="36px" height="36px" viewBox="0 0 36 36" version="1.1" xmlns="http://www.w3.org/2000/svg" xmlns:xlink="http://www.w3.org/1999/xlink">
    <title>Logos/Shadow/Rising/BlackBerry</title>
    <g id="Logos/Shadow/Rising/BlackBerry" stroke="none" stroke-width="1" fill="none" fill-rule="evenodd">
        <g id="bbm-blackberry-messenger" fill-rule="nonzero">
            <circle id="Oval" fill="#000000" cx="18" cy="18" r="18"></circle>
            <path d="M27.5875787,17.3743407 L24.1880917,17.3743407 L25.1147011,12.9549765 L28.3800353,12.9549765 C30.4983264,12.9549765 31,14.0285224 31,14.8782063 C31,16.0801842 30.2458729,17.3743407 27.5875787,17.3743407 Z M29.7347353,21.1745484 C29.7347353,22.3764451 28.9806082,23.6706828 26.322314,23.6706828 L22.922827,23.6706828 L23.8493575,19.2481485 L27.1116159,19.2481485 C29.229907,19.2481485 29.7347353,20.3281973 29.7347353,21.1745484 L29.7347353,21.1745484 Z M19.6733451,13.4193642 L16.2770128,13.4193642 L17.2036222,9 L20.462647,9 C22.5840928,9 23.0889211,10.0735459 23.0889211,10.9231485 C23.0889999,12.1251264 22.3316393,13.4193642 19.6733451,13.4193642 Z M21.9067034,17.5751987 C21.9067034,18.7771767 21.1526551,20.0713331 18.4942821,20.0713331 L15.0980286,20.0713331 L16.0229819,15.6553017 L19.2867387,15.6553017 C21.4051087,15.6553017 21.9067034,16.7255961 21.9067034,17.5751987 L21.9067034,17.5751987 Z M20.6447511,24.5038656 C20.6447511,25.709095 19.890624,27 17.2386392,27 L13.8342624,27 L14.760793,22.5773844 L18.026206,22.5773844 C20.1429987,22.5773844 20.6447511,23.654263 20.6447511,24.5038656 L20.6447511,24.5038656 Z M10.5769727,13.4193642 L7.18221768,13.4193642 L8.10401623,9 L11.3694292,9 C13.4877993,9 13.9942048,10.0735459 13.9942048,10.9231485 C13.994126,12.1251264 13.2352668,13.4193642 10.5769727,13.4193642 Z M12.8151419,17.5751987 C12.8151419,18.7771767 12.0562827,20.0713331 9.40437681,20.0713331 L6,20.0713331 L6.92834452,15.6553017 L10.1904451,15.6553017 C12.3103136,15.6553017 12.8151419,16.7255961 12.8151419,17.5751987 L12.8151419,17.5751987 Z" id="Shape" fill="#FFFFFF"></path>
        </g>
    </g>
</svg>