<?xml version="1.0" encoding="UTF-8"?>
<svg width="36px" height="36px" viewBox="0 0 36 36" version="1.1" xmlns="http://www.w3.org/2000/svg" xmlns:xlink="http://www.w3.org/1999/xlink">
    <title>Logos/Shadow/Crypto/BTC</title>
    <g id="Logos/Shadow/Crypto/BTC" stroke="none" stroke-width="1" fill="none" fill-rule="evenodd">
        <g id="bitcoin" fill-rule="nonzero">
            <path d="M35.4617827,22.354535 C33.0573871,31.997424 23.2890379,37.8653944 13.6438899,35.4612815 C4.00324254,33.0571687 -1.86598046,23.2899678 0.538977685,13.6476414 C2.94224814,4.00362741 12.7100349,-1.86546804 22.35237,0.538644855 C31.9969553,2.94275775 37.8656157,12.7110836 35.4612202,22.354535 L35.4617827,22.354535 Z" id="Path" fill="#F7931A"></path>
            <path d="M25.9557005,15.2459716 C26.3088633,12.8293399 24.5086216,11.5302159 22.0470326,10.6635657 L22.8455358,7.38993214 L20.8953665,6.89332511 L20.1179642,10.0806909 C19.6059892,9.95015423 19.0795768,9.82699568 18.556496,9.70497224 L19.3394513,6.49660703 L17.3909478,6 L16.5918892,9.27249846 C16.1676497,9.1737446 15.7511841,9.07612585 15.3469349,8.97339914 L15.349156,8.96318322 L12.6604545,8.27701419 L12.1418161,10.40533 C12.1418161,10.40533 13.5883397,10.7441579 13.5577989,10.7651573 C14.3474176,10.9666379 14.4906817,11.5007033 14.4662491,11.9240962 L13.5566883,15.6534732 C13.6111065,15.6676619 13.681628,15.6880938 13.7593682,15.7198766 L13.5539119,15.6676619 L12.2784168,20.8919679 C12.1817968,21.1371499 11.936915,21.5049229 11.3849594,21.3653054 C11.4043944,21.3942505 9.96786593,21.0037754 9.96786593,21.0037754 L9,23.28533 L11.5376634,23.9317705 C12.0096577,24.0526589 12.4722121,24.1792227 12.9269924,24.2984084 L12.1201599,27.6100679 L14.0675527,28.1066749 L14.8671666,24.8307711 C15.3985766,24.9783344 15.9149939,25.1145466 16.4203054,25.2428131 L15.6240233,28.503393 L17.5736373,29 L18.3804699,25.6951511 C21.7049755,26.3381863 24.2054347,26.0788155 25.2565937,23.006095 C26.1045176,20.5315731 25.2149472,19.1041826 23.4657919,18.1728316 C24.7396211,17.8714621 25.6991578,17.0150278 25.9551452,15.2459716 L25.9557005,15.2459716 Z M21.5006298,21.6303516 C20.8975877,24.1048735 16.8217782,22.7677236 15.4996389,22.4317335 L16.570233,18.0451326 C17.891817,18.3822579 22.1292151,19.0496977 21.5011851,21.6303516 L21.5006298,21.6303516 Z M22.1031166,15.2102159 C21.5533821,17.4611228 18.1605761,16.3175077 17.0594412,16.0371376 L18.0300836,12.0586058 C19.1312185,12.3389759 22.6761732,12.8622579 22.1031166,15.2102159 L22.1031166,15.2102159 Z" id="Shape" fill="#FFFFFF"></path>
        </g>
    </g>
</svg>