<?xml version="1.0" encoding="UTF-8"?>
<svg width="37px" height="37px" viewBox="0 0 37 37" version="1.1" xmlns="http://www.w3.org/2000/svg" xmlns:xlink="http://www.w3.org/1999/xlink">
    <title>Group 2</title>
    <g id="Symbols" stroke="none" stroke-width="1" fill="none" fill-rule="evenodd">
        <g id="Logos/Shadows/Indices/Japan" transform="translate(1.000000, 1.000000)" fill-rule="nonzero">
            <g id="Group-2">
                <g id="united-states-of-america" transform="translate(11.000000, 11.000000)">
                    <circle id="Oval" fill="#FFFFFF" cx="12.5" cy="12.5" r="12.5"></circle>
                    <g id="Group" transform="translate(0.430615, 2.717383)" fill="#D80027">
                        <path d="M11.5259277,9.78261719 L24.5693848,9.78261719 C24.5693848,8.65439453 24.4189941,7.56142578 24.1387695,6.52172852 L11.5259277,6.52172852 L11.5259277,9.78261719 Z" id="Path"></path>
                        <path d="M11.5259277,3.26088867 L22.7347168,3.26088867 C21.9695313,2.01225586 20.9911621,0.90859375 19.8504395,0 L11.5259277,0 L11.5259277,3.26088867 Z" id="Path"></path>
                        <path d="M12.0693848,22.2826172 C15.0112305,22.2826172 17.7151855,21.2658203 19.8504395,19.5652344 L4.28833008,19.5652344 C6.42358398,21.2658203 9.12753906,22.2826172 12.0693848,22.2826172 Z" id="Path"></path>
                        <path d="M1.40405273,16.3043457 L22.7347168,16.3043457 C23.3490234,15.3019531 23.8254395,14.20625 24.1387695,13.043457 L0,13.043457 C0.313330078,14.20625 0.789746094,15.3019531 1.40405273,16.3043457 Z" id="Path"></path>
                    </g>
                    <path d="M5.79023437,1.95205078 L6.9293457,1.95205078 L5.86977539,2.72182617 L6.27451172,3.96738281 L5.21499023,3.19760742 L4.15546875,3.96738281 L4.50507812,2.89135742 C3.57216797,3.66845703 2.75449219,4.57890625 2.08066406,5.59335938 L2.4456543,5.59335938 L1.77119141,6.08334961 C1.66611328,6.25864258 1.56533203,6.43671875 1.46875,6.61743164 L1.79082031,7.60869141 L1.18994141,7.17211914 C1.04057617,7.48857422 0.903955078,7.8121582 0.781152344,8.14248047 L1.13598633,9.23466797 L2.4456543,9.23466797 L1.38608398,10.0044434 L1.79082031,11.25 L0.731298828,10.4802246 L0.0966308594,10.9413574 C0.0331054688,11.452002 0,11.9721191 0,12.5 L12.5,12.5 C12.5,5.59648438 12.5,4.78261719 12.5,0 C10.0306641,0 7.72875977,0.716308594 5.79023437,1.95205078 Z M6.27451172,11.25 L5.21499023,10.4802246 L4.15546875,11.25 L4.56020508,10.0044434 L3.50063477,9.23466797 L4.81030273,9.23466797 L5.21499023,7.98911133 L5.61967773,9.23466797 L6.9293457,9.23466797 L5.86977539,10.0044434 L6.27451172,11.25 Z M5.86977539,6.36313477 L6.27451172,7.60869141 L5.21499023,6.83891602 L4.15546875,7.60869141 L4.56020508,6.36313477 L3.50063477,5.59335938 L4.81030273,5.59335938 L5.21499023,4.34780273 L5.61967773,5.59335938 L6.9293457,5.59335938 L5.86977539,6.36313477 Z M10.7582031,11.25 L9.69868164,10.4802246 L8.63916016,11.25 L9.04389648,10.0044434 L7.98432617,9.23466797 L9.29399414,9.23466797 L9.69868164,7.98911133 L10.1033691,9.23466797 L11.4130371,9.23466797 L10.3534668,10.0044434 L10.7582031,11.25 Z M10.3534668,6.36313477 L10.7582031,7.60869141 L9.69868164,6.83891602 L8.63916016,7.60869141 L9.04389648,6.36313477 L7.98432617,5.59335938 L9.29399414,5.59335938 L9.69868164,4.34780273 L10.1033691,5.59335938 L11.4130371,5.59335938 L10.3534668,6.36313477 Z M10.3534668,2.72182617 L10.7582031,3.96738281 L9.69868164,3.19760742 L8.63916016,3.96738281 L9.04389648,2.72182617 L7.98432617,1.95205078 L9.29399414,1.95205078 L9.69868164,0.706494141 L10.1033691,1.95205078 L11.4130371,1.95205078 L10.3534668,2.72182617 Z" id="Shape" fill="#0052B4"></path>
                </g>
                <g id="united-kingdom">
                    <circle id="Oval" stroke="#F0EEF0" fill="#FFFFFF" cx="12.5" cy="12.5" r="13"></circle>
                    <g id="Group" transform="translate(0.430615, 0.430615)" fill="#0052B4">
                        <path d="M2.15336914,4.45913086 C1.17148437,5.73662109 0.431103516,7.2090332 0,8.80859375 L6.50283203,8.80859375 L2.15336914,4.45913086 Z" id="Path"></path>
                        <path d="M24.1387695,8.80859375 C23.707666,7.20908203 22.9672363,5.73666992 21.9854004,4.45917969 L17.6360352,8.80859375 L24.1387695,8.80859375 Z" id="Path"></path>
                        <path d="M0,15.3303223 C0.431152344,16.929834 1.1715332,18.4022461 2.15336914,19.6796875 L6.50268555,15.3303223 L0,15.3303223 L0,15.3303223 Z" id="Path"></path>
                        <path d="M19.6796387,2.15341797 C18.4021484,1.1715332 16.9297852,0.431152344 15.3302246,0 L15.3302246,6.5027832 L19.6796387,2.15341797 Z" id="Path"></path>
                        <path d="M4.45913086,21.9853516 C5.73662109,22.9672363 7.2090332,23.7076172 8.80854492,24.1387695 L8.80854492,17.6360352 L4.45913086,21.9853516 Z" id="Path"></path>
                        <path d="M8.80849609,0 C7.20898438,0.431152344 5.73657227,1.1715332 4.45913086,2.15336914 L8.80849609,6.50273438 L8.80849609,0 Z" id="Path"></path>
                        <path d="M15.3302734,24.1387695 C16.9297852,23.7076172 18.4021973,22.9672363 19.6796387,21.9854004 L15.3302734,17.6360352 L15.3302734,24.1387695 Z" id="Path"></path>
                        <path d="M17.6360352,15.3303223 L21.9854004,19.6797363 C22.9672363,18.4022949 23.707666,16.929834 24.1387695,15.3303223 L17.6360352,15.3303223 Z" id="Path"></path>
                    </g>
                    <g id="Group" fill="#D80027">
                        <path d="M24.8941895,10.8695801 L14.1305176,10.8695801 L14.1304688,10.8695801 L14.1304688,0.105810547 C13.5967285,0.036328125 13.0525879,0 12.5,0 C11.9473145,0 11.4032715,0.036328125 10.8695801,0.105810547 L10.8695801,10.8694824 L10.8695801,10.8695312 L0.105810547,10.8695312 C0.036328125,11.4032715 0,11.9474121 0,12.5 C0,13.0526855 0.036328125,13.5967285 0.105810547,14.1304199 L10.8694824,14.1304199 L10.8695312,14.1304199 L10.8695312,24.8941895 C11.4032715,24.9636719 11.9473145,25 12.5,25 C13.0525879,25 13.5967285,24.9637207 14.1304199,24.8941895 L14.1304199,14.1305176 L14.1304199,14.1304688 L24.8941895,14.1304688 C24.9636719,13.5967285 25,13.0526855 25,12.5 C25,11.9474121 24.9636719,11.4032715 24.8941895,10.8695801 Z" id="Path"></path>
                        <path d="M15.7608887,15.7608887 L15.7608887,15.7608887 L21.3388184,21.3388672 C21.5953613,21.0824219 21.8400879,20.8143066 22.073584,20.536377 L17.2980957,15.7608887 L15.7608887,15.7608887 L15.7608887,15.7608887 Z" id="Path"></path>
                        <path d="M9.23911133,15.7609375 L9.23901367,15.7609375 L3.66113281,21.3388184 C3.91757812,21.5953613 4.18569336,21.8400879 4.46362305,22.073584 L9.23911133,17.297998 L9.23911133,15.7609375 Z" id="Path"></path>
                        <path d="M9.23911133,9.23920898 L9.23911133,9.23911133 L3.66118164,3.66113281 C3.40463867,3.91757812 3.15991211,4.18569336 2.92641602,4.46362305 L7.70195312,9.23920898 L9.23911133,9.23920898 L9.23911133,9.23920898 Z" id="Path"></path>
                        <path d="M15.7608887,9.23920898 L15.7608887,9.23920898 L21.3388672,3.66118164 C21.0824219,3.40463867 20.8143066,3.15991211 20.536377,2.92646484 L15.7608887,7.70200195 L15.7608887,9.23920898 L15.7608887,9.23920898 Z" id="Path"></path>
                    </g>
                </g>
            </g>
        </g>
    </g>
</svg>