<svg xmlns="http://www.w3.org/2000/svg" width="32" height="32" viewBox="0 0 32 32">
    <defs>
        <filter id="7ll5yqnrta">
            <feColorMatrix in="SourceGraphic" values="0 0 0 0 1.000000 0 0 0 0 1.000000 0 0 0 0 1.000000 0 0 0 1.000000 0"/>
        </filter>
    </defs>
    <g fill="none" fill-rule="evenodd">
        <g>
            <g filter="url(#7ll5yqnrta)" transform="translate(-1384 -3515) translate(0 3479)">
                <g fill="#EAECF2" fill-rule="nonzero">
                    <path d="M19.063 16c0 1.691-1.372 3.063-3.063 3.063S12.937 17.69 12.937 16 14.31 12.937 16 12.937 19.063 14.31 19.063 16z" transform="translate(1384 36)"/>
                    <path d="M23.162 10.582c-.147-.4-.382-.76-.687-1.057-.297-.305-.657-.54-1.057-.687-.323-.126-.81-.275-1.705-.316-.97-.044-1.26-.054-3.713-.054-2.453 0-2.744.01-3.713.053-.895.041-1.382.191-1.705.317-.4.147-.76.382-1.057.687-.305.297-.54.657-.687 1.057-.126.323-.276.81-.317 1.706-.044.968-.053 1.259-.053 3.712 0 2.453.01 2.744.053 3.713.041.896.19 1.382.317 1.706.147.399.382.76.687 1.056.296.305.657.54 1.056.687.324.126.81.276 1.706.317.97.044 1.26.053 3.713.053 2.453 0 2.744-.01 3.712-.053.896-.041 1.383-.19 1.706-.317.802-.309 1.435-.942 1.744-1.743.126-.324.276-.81.317-1.706.044-.97.053-1.26.053-3.713 0-2.453-.01-2.744-.053-3.712-.041-.896-.19-1.383-.317-1.706zM16 20.718c-2.606 0-4.718-2.112-4.718-4.718s2.112-4.718 4.718-4.718c2.605 0 4.718 2.112 4.718 4.718S18.605 20.718 16 20.718zm4.904-8.52c-.609 0-1.102-.493-1.102-1.102 0-.61.493-1.103 1.102-1.103.61 0 1.103.494 1.103 1.103s-.494 1.102-1.103 1.102z" transform="translate(1384 36)"/>
                    <path d="M16 0C7.165 0 0 7.165 0 16s7.165 16 16 16 16-7.165 16-16S24.835 0 16 0zm9.132 19.788c-.044.978-.2 1.646-.427 2.23-.477 1.234-1.453 2.21-2.687 2.687-.584.227-1.252.382-2.23.427-.98.045-1.293.055-3.788.055s-2.808-.01-3.788-.055c-.978-.045-1.646-.2-2.23-.427-.613-.23-1.168-.592-1.627-1.06-.468-.458-.83-1.014-1.06-1.627-.227-.584-.382-1.252-.427-2.23-.045-.98-.056-1.293-.056-3.788s.011-2.808.056-3.788c.044-.978.2-1.646.427-2.23.23-.613.592-1.169 1.06-1.627.458-.468 1.014-.83 1.627-1.06.584-.227 1.252-.382 2.23-.427.98-.045 1.293-.056 3.788-.056s2.808.011 3.788.056c.978.045 1.646.2 2.23.427.613.23 1.169.592 1.628 1.06.467.459.829 1.014 1.06 1.627.226.584.382 1.252.426 2.23.045.98.055 1.293.055 3.788s-.01 2.808-.055 3.788z" transform="translate(1384 36)"/>
                </g>
            </g>
        </g>
    </g>
</svg>
