<svg xmlns="http://www.w3.org/2000/svg" xmlns:xlink="http://www.w3.org/1999/xlink" width="41" height="40" viewBox="0 0 41 40">
    <defs>
        <path id="w2fybszbma" d="M20 40c11.046 0 20-8.954 20-20S31.046 0 20 0 0 8.954 0 20s8.954 20 20 20z"/>
    </defs>
    <g fill="none" fill-rule="evenodd">
        <g>
            <g>
                <g transform="translate(-608 -1032) translate(549 1020) translate(59.5 12)">
                    <mask id="ct56vt3tob" fill="#fff">
                        <use xlink:href="#w2fybszbma"/>
                    </mask>
                    <use fill="#F3F3F3" xlink:href="#w2fybszbma"/>
                    <circle cx="20" cy="20" r="19.95" stroke="#90A4BE" stroke-opacity=".6" stroke-width=".1" mask="url(#ct56vt3tob)"/>
                    <g mask="url(#ct56vt3tob)">
                        <g fill-rule="nonzero" transform="translate(15.556 15.556)">
                            <circle cx="7.778" cy="7.778" r="7.778" fill="#D80027"/>
                            <g fill="#F0F0F0">
                                <path d="M5.302 1.312L5.94 2.191 6.974 1.856 6.335 2.735 6.973 3.614 5.94 3.278 5.3 4.157 5.301 3.07 4.268 2.734 5.302 2.399z" transform="translate(2.157 5.043)"/>
                                <path d="M3.56 4.932c-1.213 0-2.197-.984-2.197-2.198S2.347.536 3.56.536c.378 0 .734.096 1.045.265C4.118.323 3.451.029 2.716.029 1.22.029.01 1.24.01 2.734S1.22 5.44 2.715 5.44c.736 0 1.403-.295 1.891-.772-.31.169-.667.264-1.045.264z" transform="translate(2.157 5.043)"/>
                            </g>
                        </g>
                    </g>
                    <g mask="url(#ct56vt3tob)">
                        <g transform="translate(8.889 8.889)">
                            <circle cx="7.778" cy="7.778" r="8.278" fill="#F0F0F0" fill-rule="nonzero" stroke="#F0EEF0"/>
                            <g>
                                <path fill="#D80027" fill-rule="nonzero" d="M7.197 6.107h8.116c0-.702-.094-1.382-.268-2.03H7.197v2.03zM7.197 2.049h6.974c-.476-.777-1.085-1.464-1.795-2.03h-5.18v2.03zM7.535 13.885c1.83 0 3.513-.633 4.841-1.691H2.693c1.329 1.058 3.011 1.69 4.842 1.69zM.899 10.165H14.17c.382-.624.679-1.306.874-2.03H.025c.195.724.491 1.406.874 2.03z" transform="translate(.243 1.671)"/>
                            </g>
                            <path fill="#0052B4" fill-rule="nonzero" d="M3.603 1.215h.709l-.66.479.252.775-.66-.48-.658.48.217-.67c-.58.484-1.09 1.05-1.508 1.681h.227l-.42.305c-.065.11-.128.22-.188.333l.2.616-.374-.271c-.093.197-.178.398-.254.603l.22.68h.816l-.66.479.252.775-.659-.479-.395.287c-.04.318-.06.641-.06.97h7.778V0C6.24 0 4.809.446 3.603 1.215zM3.904 7l-.66-.479L2.587 7l.251-.775-.659-.479h.815l.252-.775.252.775h.815l-.66.479.252.775zm-.252-3.04l.252.774-.66-.479-.658.48.251-.776-.659-.479h.815l.252-.775.252.775h.815l-.66.48zM6.694 7l-.66-.479L5.376 7l.252-.775-.659-.479h.815l.252-.775.252.775H7.1l-.659.479.252.775zm-.252-3.04l.252.774-.66-.479-.659.48.252-.776-.659-.479h.815l.252-.775.252.775H7.1l-.659.48zm0-2.266l.252.775-.66-.48-.659.48.252-.775-.659-.48h.815L6.035.44l.252.775H7.1l-.659.479z"/>
                        </g>
                    </g>
                </g>
            </g>
        </g>
    </g>
</svg>
