<?xml version="1.0" encoding="UTF-8"?>
<svg width="36px" height="36px" viewBox="0 0 36 36" version="1.1" xmlns="http://www.w3.org/2000/svg" xmlns:xlink="http://www.w3.org/1999/xlink">
    <title>Logos/Shadow/Stocks/Amazon</title>
    <g id="Logos/Shadow/Stocks/Amazon" stroke="none" stroke-width="1" fill="none" fill-rule="evenodd">
        <g id="amazon-icon" transform="translate(0.000000, 1.000000)" fill="#000000" fill-rule="nonzero">
            <path d="M0.0654545455,25.608 C0.174534545,25.432011 0.349069091,25.420989 0.589090909,25.575 C6.04361455,28.765011 11.9781818,30.36 18.3927273,30.36 C22.6690691,30.36 26.8908873,29.557011 31.0581818,27.951 C31.1672618,27.907011 31.3254327,27.841011 31.5327273,27.753 C31.7399891,27.664989 31.8872618,27.598989 31.9745455,27.555 C32.3018182,27.423 32.5581709,27.489 32.7436364,27.753 C32.9290691,28.017 32.86908,28.258989 32.5636364,28.479 C32.1709091,28.765011 31.6690691,29.095011 31.0581818,29.469 C29.1817964,30.591 27.0872509,31.459989 24.7745455,32.076 C22.4618073,32.692011 20.2036255,33 18,33 C14.5963636,33 11.37816,32.400489 8.34545455,31.2015 C5.31271636,30.002511 2.59635273,28.314 0.196363636,26.136 C0.0654545455,26.026011 0,25.915989 0,25.806 C0,25.74 0.0217963636,25.674 0.0654545455,25.608 Z M9.91636364,16.203 C9.91636364,14.685 10.2872618,13.387011 11.0290909,12.309 C11.7708873,11.230989 12.7854327,10.417011 14.0727273,9.867 C15.2509091,9.361011 16.7018073,8.998011 18.4254545,8.778 C19.0145455,8.712 19.9745345,8.623989 21.3054545,8.514 L21.3054545,7.953 C21.3054545,6.544989 21.1527164,5.599011 20.8472727,5.115 C20.3890909,4.455 19.6690909,4.125 18.6872727,4.125 L18.4254545,4.125 C17.7054545,4.191 17.0836364,4.422 16.56,4.818 C16.0363636,5.214 15.69816,5.764011 15.5454545,6.468 C15.4581709,6.907989 15.2399782,7.161 14.8909091,7.227 L11.1272727,6.765 C10.7563418,6.676989 10.5709091,6.478989 10.5709091,6.171 C10.5709091,6.105 10.5818073,6.028011 10.6036364,5.94 C10.9745345,3.982011 11.8854327,2.530011 13.3363636,1.584 C14.7872618,0.637989 16.4836145,0.109989 18.4254545,3.41060513e-13 L19.2436364,3.41060513e-13 C21.7309091,3.41060513e-13 23.6727164,0.649011 25.0690909,1.947 C25.288112,2.16800238 25.4904909,2.40515942 25.6745455,2.6565 C25.8599782,2.909511 26.0072509,3.135 26.1163636,3.333 C26.2254436,3.531 26.3236255,3.817011 26.4109091,4.191 C26.49816,4.564989 26.5636145,4.823511 26.6072727,4.9665 C26.6508982,5.109489 26.6836255,5.417511 26.7054545,5.8905 C26.7272509,6.363489 26.7381818,6.643989 26.7381818,6.732 L26.7381818,14.718 C26.7381818,15.289989 26.82,15.812511 26.9836364,16.2855 C27.1472727,16.758489 27.3054436,17.099511 27.4581818,17.3085 C27.6108873,17.517489 27.8618073,17.853 28.2109091,18.315 C28.3418182,18.513 28.4072727,18.688989 28.4072727,18.843 C28.4072727,19.018989 28.3199891,19.173 28.1454545,19.305 C26.3345236,20.889 25.3527055,21.747 25.2,21.879 C24.9381818,22.077 24.6218073,22.099011 24.2509091,21.945 C23.9454327,21.681 23.6781818,21.427989 23.4490909,21.186 C23.22,20.944011 23.0563636,20.767989 22.9581818,20.658 C22.86,20.548011 22.7017964,20.333511 22.4836364,20.0145 C22.2654436,19.695489 22.1127055,19.480989 22.0254545,19.371 C20.8036145,20.713011 19.6036364,21.549 18.4254545,21.879 C17.6836255,22.099011 16.7672618,22.209 15.6763636,22.209 C13.9963418,22.209 12.6163636,21.686511 11.5363636,20.6415 C10.4563636,19.596489 9.91636364,18.117 9.91636364,16.203 Z M15.5454545,15.543 C15.5454545,16.401 15.7581818,17.088489 16.1836364,17.6055 C16.6090909,18.122511 17.1818182,18.381 17.9018182,18.381 C17.9672727,18.381 18.0599891,18.370011 18.18,18.348 C18.2999782,18.325989 18.3817964,18.315 18.4254545,18.315 C19.3418182,18.073011 20.0508873,17.479011 20.5527273,16.533 C20.7927164,16.114989 20.9727164,15.6585 21.0927273,15.1635 C21.2127055,14.6685 21.27816,14.266989 21.2890909,13.959 C21.2999891,13.651011 21.3054545,13.144989 21.3054545,12.441 L21.3054545,11.616 C20.0399891,11.616 19.08,11.704011 18.4254545,11.88 C16.5054436,12.430011 15.5454545,13.651011 15.5454545,15.543 Z M29.2909091,26.169 C29.3345345,26.080989 29.3999891,25.993011 29.4872727,25.905 C30.0327055,25.531011 30.5563418,25.278 31.0581818,25.146 C31.8872618,24.925989 32.6945455,24.805011 33.48,24.783 C33.69816,24.760989 33.9054545,24.7719976 34.1018182,24.816 C35.0836364,24.904011 35.6727273,25.069011 35.8690909,25.311 C35.9563418,25.443 36,25.641 36,25.905 L36,26.136 C36,26.905989 35.7927055,27.813489 35.3781818,28.8585 C34.9636255,29.903511 34.3854327,30.745011 33.6436364,31.383 C33.5345236,31.471011 33.4363418,31.515 33.3490909,31.515 C33.3054327,31.515 33.2618073,31.504011 33.2181818,31.482 C33.0872727,31.416 33.0545455,31.294989 33.12,31.119 C33.9272509,29.205 34.3309091,27.874011 34.3309091,27.126 C34.3309091,26.884011 34.2872509,26.707989 34.2,26.598 C33.9818073,26.334 33.3708873,26.202 32.3672727,26.202 C31.9963418,26.202 31.5599891,26.224011 31.0581818,26.268 C30.5127164,26.334 30.0109091,26.4 29.5527273,26.466 C29.4218182,26.466 29.3345345,26.443989 29.2909091,26.4 C29.247263,26.356011 29.2363527,26.311989 29.2581818,26.268 C29.2581818,26.245989 29.26908,26.212989 29.2909091,26.169 Z" id="Shape"></path>
        </g>
    </g>
</svg>