<?xml version="1.0" encoding="UTF-8"?>
<svg width="28px" height="35px" viewBox="0 0 28 35" version="1.1" xmlns="http://www.w3.org/2000/svg" xmlns:xlink="http://www.w3.org/1999/xlink">
    <title>apple-black</title>
    <defs>
        <filter id="filter-1">
            <feColorMatrix in="SourceGraphic" type="matrix" values="0 0 0 0 0.000000 0 0 0 0 0.000000 0 0 0 0 0.000000 0 0 0 1.000000 0"></feColorMatrix>
        </filter>
    </defs>
    <g id="Symbols" stroke="none" stroke-width="1" fill="none" fill-rule="evenodd">
        <g id="apple-black" transform="translate(-4.000000, 0.000000)" filter="url(#filter-1)">
            <g transform="translate(4.000000, -0.000000)">
                <path d="M23.3847456,18.4661623 C23.4330693,23.7263023 27.949957,25.4767239 28,25.4990052 C27.9618077,25.6223906 27.2782755,27.993463 25.6202863,30.4426133 C24.1869687,32.5600878 22.6994941,34.66968 20.3561921,34.7133738 C18.0536613,34.7562607 17.3132705,33.3332946 14.6808243,33.3332946 C12.0491763,33.3332946 11.2265675,34.669742 9.04696446,34.7563228 C6.78508208,34.8429036 5.06262031,32.4666798 3.61751344,30.3569635 C0.664484992,26.0415782 -1.59223957,18.1627261 1.43797177,12.8443691 C2.94331444,10.2032515 5.63347897,8.53078371 8.55341149,8.48789673 C10.7745226,8.44507183 12.8709254,9.99831261 14.2287794,9.99831261 C15.5857737,9.99831261 18.1333617,8.13040185 20.8116142,8.40472952 C21.932823,8.45189898 25.0801289,8.86252158 27.1010066,11.8525691 C26.9381673,11.9546041 23.3456936,14.0685408 23.3847456,18.4661623 M19.0574073,5.54973567 C20.2582552,4.08046894 21.0664958,2.0351141 20.8459995,0 C19.1150642,0.07031974 17.0219772,1.1658926 15.7804195,2.63435248 C14.6677455,3.93474012 13.6932885,6.01609271 13.9562138,8.01092656 C15.8855405,8.16180678 17.856498,7.01993337 19.0574073,5.54973567" id="Shape" fill="#000000" fill-rule="nonzero"></path>
            </g>
        </g>
    </g>
</svg>