<?xml version="1.0" encoding="UTF-8"?>
<svg width="36px" height="36px" viewBox="0 0 36 36" version="1.1" xmlns="http://www.w3.org/2000/svg" xmlns:xlink="http://www.w3.org/1999/xlink">
    <title>Logos/Shadow/Indices/China</title>
    <g id="Logos/Shadow/Indices/China" stroke="none" stroke-width="1" fill="none" fill-rule="evenodd">
        <g id="china" fill-rule="nonzero">
            <circle id="Oval" fill="#D80027" cx="18" cy="18" r="18"></circle>
            <g id="Group" transform="translate(3.034483, 8.063604)" fill="#FFDA44">
                <polygon id="Path" points="6.45517241 2.89045936 7.97931034 7.69611307 12.9103448 7.69611307 8.92413793 10.6713781 10.4482759 15.4770318 6.45517241 12.5088339 2.46206897 15.4770318 3.99310345 10.6713781 0 7.69611307 4.93103448 7.69611307"></polygon>
                <polygon id="Path" points="17.7241379 19.9010601 16.5586207 18.4310954 14.8344828 19.1166078 15.8344828 17.5265018 14.6689655 16.04947 16.4551724 16.5371025 17.462069 14.9469965 17.5586207 16.8409894 19.3517241 17.3286219 17.6206897 18.0070671"></polygon>
                <polygon id="Path" points="20.0413793 15.590106 20.5931034 13.7809187 19.0827586 12.6855124 20.9310345 12.6572438 21.4758621 10.8480565 22.0758621 12.6431095 23.9241379 12.6219081 22.4413793 13.7526502 23.0344828 15.5477032 21.5241379 14.4522968"></polygon>
                <polygon id="Path" points="23.1655172 5.1590106 22.3517241 6.86219081 23.6758621 8.18374558 21.8482759 7.91519435 21.0344828 9.61130742 20.7172414 7.74558304 18.8827586 7.4770318 20.5241379 6.59363958 20.2068966 4.72084806 21.5310345 6.04240283"></polygon>
                <polygon id="Path" points="17.7724138 0 17.6344828 1.8869258 19.3517241 2.60070671 17.5517241 3.05300353 17.4206897 4.94699647 16.4482759 3.33568905 14.6482759 3.78798587 15.8413793 2.33922261 14.862069 0.734982332 16.5793103 1.44876325"></polygon>
            </g>
        </g>
    </g>
</svg>