<?xml version="1.0" encoding="UTF-8"?>
<svg width="36px" height="36px" viewBox="0 0 36 36" version="1.1" xmlns="http://www.w3.org/2000/svg" xmlns:xlink="http://www.w3.org/1999/xlink">
    <title>Logos/Shadow/Commodities/Coffee</title>
    <defs>
        <filter id="filter-1">
            <feColorMatrix in="SourceGraphic" type="matrix" values="0 0 0 0 1.000000 0 0 0 0 1.000000 0 0 0 0 1.000000 0 0 0 1.000000 0"></feColorMatrix>
        </filter>
    </defs>
    <g id="Logos/Shadow/Commodities/Coffee" stroke="none" stroke-width="1" fill="none" fill-rule="evenodd">
        <g id="Group">
            <circle id="Oval" fill="#776363" cx="18" cy="18" r="18"></circle>
            <g filter="url(#filter-1)" id="coffee-beans">
                <g transform="translate(9.000006, 9.001382)">
                    <path d="M7.00557967,2.78478625 C6.83943123,2.95114563 6.69093123,3.12959875 6.53708748,3.30457141 C8.07668514,3.64193078 9.59237654,4.43171594 10.9407242,5.56051281 C11.700064,3.66952844 13.1875953,2.22330578 15.1514937,1.55488 L16.3925445,1.13237219 C14.0708961,-0.847522342 9.98029061,-0.190416873 7.00557967,2.78478625 Z" id="Path" fill="#000000" fill-rule="nonzero"></path>
                    <path d="M17.1584586,1.98593078 L15.4915601,2.55342297 C13.6982398,3.16412219 12.3642711,4.53057531 11.7798336,6.30677453 C13.2630406,7.80629406 14.2746617,9.6183175 14.6773765,11.4758683 C14.8580445,11.31763 15.0418414,11.1640675 15.213439,10.9926808 C18.0345523,8.17114563 18.7715328,4.35936438 17.1584586,1.98593078 Z" id="Path" fill="#000000" fill-rule="nonzero"></path>
                    <path d="M11.3414,15.6301417 C10.6653804,13.5727277 8.9264117,12.0829816 6.80307967,11.663005 C4.33711482,11.1735597 2.36470857,9.3913136 1.55470857,7.0113761 L1.13223592,5.77029016 C-0.847658613,8.0919386 -0.190060957,12.2383722 2.78468514,15.2136105 C4.63647029,17.0653956 6.94373982,17.9971769 8.98259139,17.9971769 C10.0471929,17.9971769 11.0321304,17.7191964 11.8467359,17.16763 L11.3414,15.6301417 Z" id="Path" fill="#000000" fill-rule="nonzero"></path>
                    <path d="M10.9925445,7.00568078 C8.17146639,4.18460266 4.35933357,3.39102063 1.98579451,5.00430578 L2.55325154,6.67130969 C3.24266561,8.69571203 4.91054842,10.2115441 7.00814607,10.6278644 C9.50452107,11.1219855 11.549525,12.8818019 12.3440211,15.3003409 L12.7061656,16.4021378 C14.6886617,14.0810519 13.9683453,9.98200891 10.9925445,7.00568078 Z" id="Path" fill="#000000" fill-rule="nonzero"></path>
                </g>
            </g>
        </g>
    </g>
</svg>