<svg xmlns="http://www.w3.org/2000/svg" xmlns:xlink="http://www.w3.org/1999/xlink" width="41" height="40" viewBox="0 0 41 40">
    <defs>
        <path id="splkknkx0a" d="M20 40c11.046 0 20-8.954 20-20S31.046 0 20 0 0 8.954 0 20s8.954 20 20 20z"/>
    </defs>
    <g fill="none" fill-rule="evenodd">
        <g>
            <g>
                <g transform="translate(-123 -1032) translate(64 1020) translate(59.5 12)">
                    <mask id="8i6czcuegb" fill="#fff">
                        <use xlink:href="#splkknkx0a"/>
                    </mask>
                    <use fill="#F3F3F3" xlink:href="#splkknkx0a"/>
                    <g fill-rule="nonzero" mask="url(#8i6czcuegb)">
                        <g>
                            <path fill="#FFDA44" d="M.691 14.976c1.57 4.23 5.643 7.246 10.42 7.246s8.85-3.015 10.42-7.246l-10.42-.966-10.42.966z" transform="translate(8.889 8.889)"/>
                            <path fill="#000" d="M11.111 0C6.334 0 2.261 3.015.691 7.246l10.42.967 10.42-.967C19.961 3.016 15.888 0 11.111 0z" transform="translate(8.889 8.889)"/>
                            <path fill="#D80027" d="M.691 7.246C.244 8.45 0 9.752 0 11.111c0 1.36.244 2.661.691 3.865h20.84c.447-1.204.691-2.506.691-3.865 0-1.359-.244-2.66-.69-3.865H.691z" transform="translate(8.889 8.889)"/>
                        </g>
                    </g>
                    <circle cx="20" cy="20" r="19.95" stroke="#90A4BE" stroke-opacity=".6" stroke-width=".1" mask="url(#8i6czcuegb)"/>
                </g>
            </g>
        </g>
    </g>
</svg>
