<?xml version="1.0" encoding="UTF-8"?>
<svg width="36px" height="36px" viewBox="0 0 36 36" version="1.1" xmlns="http://www.w3.org/2000/svg" xmlns:xlink="http://www.w3.org/1999/xlink">
    <title>Logos/Shadow/Stocks/Disney</title>
    <g id="Logos/Shadow/Stocks/Disney" stroke="none" stroke-width="1" fill="none" fill-rule="evenodd">
        <g id="disney" transform="translate(-0.000000, 10.000000)" fill="#000000" fill-rule="nonzero">
            <path d="M18.1099105,1.63684171 C18.3547855,1.64837922 18.588681,1.74261554 18.7739337,1.90437617 C19.0263819,2.14515718 19.0925725,2.54665272 18.973083,2.86788794 C18.5085938,3.83120584 17.4039409,4.47464559 16.6490979,4.68750996 C16.1975005,4.79452375 15.626606,4.79452375 15.2148385,4.63400307 C15.0154968,4.75439358 14.8473263,5.14348173 14.6039217,4.98179786 C14.2516103,4.70457013 14.5565877,4.27069904 14.3532053,3.96284055 C14.3112589,3.89944651 14.2056232,3.89479374 14.1525167,3.79107567 C13.8735154,3.17555256 14.2188998,2.58678289 14.6039217,2.1185976 C15.2458172,1.39703003 17.0874186,0.593069604 18.1099105,1.63684171 L18.1099105,1.63684171 Z M15.971798,2.11840373 C15.613137,2.18528734 15.208104,2.3425123 14.989136,2.60015962 C14.7699756,2.85761306 14.6306674,3.10866895 14.7634335,3.3762034 C15.2283075,3.02840861 15.45401,2.54665272 15.9719904,2.25236482 C15.971798,2.19866407 16.0514577,2.1585339 15.971798,2.11840373 Z M18.1366561,2.25236482 C17.2201848,2.17191062 16.5296083,2.86788794 15.8788617,3.53672407 C15.8390319,3.64373786 15.6000528,3.76412836 15.7859254,3.88451887 C16.6625669,3.9647792 17.4991861,3.71081534 18.1366561,3.1218518 C18.3227212,2.94795441 18.4551025,2.72055012 18.362551,2.47957524 C18.3227212,2.38613205 18.2290152,2.29249499 18.1366561,2.25236482 Z M26.0778045,6.23959754 C26.5028486,7.28336964 26.8613172,8.92890041 26.0778045,9.93254235 C25.8653786,10.1733234 25.4936333,10.3952994 25.2546542,10.2134535 C24.3780127,9.50448722 24.0064599,8.48746856 23.4619262,7.57746368 C23.3822665,7.53733351 23.3822665,7.64454116 23.3424367,7.68467132 C23.1432874,8.60785906 23.5150327,9.81215184 22.8910317,10.5344949 C22.6520526,10.574625 22.4284667,10.450745 22.346498,10.2134535 C22.0409434,9.26351234 22.3593898,8.27324713 22.4390495,7.32330594 C22.6251145,6.84155006 22.7047742,6.2797277 23.1165418,5.91836232 C23.780565,6.18589678 24.0992038,6.93538098 24.4840333,7.48402048 C24.763227,7.89869889 24.9887371,8.36707805 25.3073759,8.74162629 C25.5861848,8.62123578 25.4489931,8.25405444 25.4403345,8.03246612 C25.3337367,7.16278527 25.0947576,6.35998804 24.8688627,5.53043736 C24.8559709,5.3164098 24.7364814,4.95504442 24.961799,4.82127719 C25.5602088,5.08900551 25.8120797,5.71771148 26.0778045,6.23959754 L26.0778045,6.23959754 Z M22.0673042,5.91836232 C22.0673042,6.11920703 21.9079848,6.37006905 21.7748339,6.40011821 C20.5000863,6.60076905 19.0791035,6.48037854 17.8840156,6.88168023 C17.8441858,7.02882418 18.0167818,7.05557762 18.1097181,7.09570779 C19.1320175,7.25622847 20.2080007,7.29635863 21.2041318,7.55071023 C21.7307709,7.68544679 21.9214539,8.31357116 21.9612837,8.83526335 C21.9857204,9.24664604 21.82871,9.74507436 21.4300267,10.0261794 C20.447557,10.6550792 18.9469146,10.6281319 17.9505911,10.0531267 C17.5698023,9.83793596 17.2069082,9.49130436 17.1803549,9.06305537 C17.1826639,8.7230152 17.3265901,8.45528688 17.5655692,8.32714175 C18.5218704,7.93902292 19.7036817,8.15343822 20.5272167,8.6481831 C20.5799384,8.91591142 20.2924708,8.9013715 20.1548942,8.99617175 C19.2384229,9.53143453 18.5480388,8.39441309 17.698143,8.80870377 C17.5786534,8.8889641 17.4922592,9.11287881 17.6317599,9.18344587 C18.680805,9.65182503 19.8495321,9.3172131 20.8853006,9.0229252 C21.0047901,8.98279503 21.1510253,8.86240452 21.1641095,8.74201402 C21.1242797,8.31376503 20.6463215,8.22032183 20.3407669,8.09993133 C19.4377645,7.87252704 18.4418259,7.87252704 17.4722481,7.77888998 C17.2863755,7.73875981 17.0495129,7.6082883 16.9942899,7.45784863 C16.888077,7.13680729 16.888077,6.69518157 17.1270561,6.42764712 C18.3619738,5.33036812 20.2343615,5.42419904 21.8013871,5.71848694 C21.9077924,5.75784165 22.027282,5.79797182 22.0673042,5.91836232 L22.0673042,5.91836232 Z M16.264076,6.42687165 C16.3835655,7.7112309 16.4499486,8.90234083 16.4233954,10.2535837 C16.3968422,10.4272872 16.1976929,10.4676113 16.0649267,10.5344949 C15.8525009,10.574625 15.5779251,10.5290666 15.4938398,10.4141044 C15.1884777,9.91877789 15.2946906,9.25013562 15.2681374,8.64798923 C15.3079672,7.69824191 15.2946906,6.66784653 15.5604153,5.7845951 C15.6112128,5.6562561 15.7595646,5.54381409 15.8790541,5.62388056 C16.1976929,5.7845951 16.2507994,6.10583031 16.264076,6.42687165 L16.264076,6.42687165 Z M31.0184375,6.23959754 C31.0823192,6.34777451 31.1490871,6.51488661 31.0184375,6.58739233 C30.4207973,6.85492678 29.6109237,6.73453628 28.9201548,6.81479661 C28.7342822,6.97531729 28.588047,7.24285174 28.6542377,7.48382662 C28.7210056,7.52395679 28.7804618,7.58502443 28.8537718,7.57726981 C29.2784311,7.60421712 29.9160935,7.37661897 30.1952873,7.77792065 C30.2634021,7.89734183 30.1860514,8.34323259 29.996138,8.3533136 C29.4779651,8.42058494 28.6259527,8.28778704 28.3756212,8.42058494 C28.0569824,8.63461251 28.0833432,9.04929091 27.9638536,9.38409671 C28.1897485,9.53124066 28.4262262,9.38060713 28.6940675,9.34377268 C29.1858796,9.26351234 29.7304133,9.11636839 30.2214557,9.22338217 C30.314392,9.39727957 30.4473506,9.58474755 30.3542218,9.79877512 C29.5170253,10.4678051 28.4371939,11.1535076 27.2867462,10.668456 C26.8549676,10.4734272 26.6625528,9.81215184 26.808788,9.25052335 C26.9015319,8.8490278 27.313107,8.46110284 27.0610437,8.03285385 C27.0212139,7.84538586 27.1276192,7.68505906 27.2869386,7.64492889 C27.725067,7.64492889 27.6319382,7.09628939 27.8578331,6.84193779 C27.6055774,6.56102661 26.9682998,6.57440334 27.0346829,6.01238711 C27.3402375,5.85186644 27.7121752,5.90537333 28.0569824,5.85186644 C28.8404951,5.6911519 29.7169442,5.59751484 30.5143109,5.6911519 C30.673053,5.72333358 30.8856713,6.03894669 31.0184375,6.23959754 Z M12.0542341,3.18892928 C13.2797235,4.19819332 14.8696464,5.91855619 14.6704972,7.89869889 C14.4313257,9.46435705 12.7846404,10.6417025 11.3902109,11.0164446 C10.0356112,11.4177463 8.33581947,11.3776161 6.95447412,11.0565748 C6.86153781,11.3109264 6.76860149,11.6183971 6.47651593,11.7256048 C6.2906433,11.7924884 6.05147179,11.7523582 5.90542901,11.6319677 C5.49385391,11.2438489 5.82576932,10.4945586 5.22812916,10.2539714 C4.0594021,9.75883882 2.79773871,8.78195032 2.20029098,7.57785141 C2.12063128,7.3370704 2.21356759,7.09628939 2.35961037,6.90901527 C3.27608173,6.17310165 4.43133977,5.87881375 5.58679022,5.6512156 C5.6531733,5.67796904 5.62662007,5.58433199 5.67972654,5.55757854 C5.74610962,4.75478131 5.77266285,3.93841349 6.02491856,3.21587659 C6.08245056,3.11448491 6.22406781,3.08210937 6.31719654,3.14899298 C7.04760285,3.71081534 6.70221841,4.76815803 7.02104962,5.53063123 C8.41547916,5.59751484 9.80990871,5.66439846 10.9120603,6.45401283 C11.283998,6.76167745 11.3746253,7.34928393 11.2572523,7.68505906 C11.1400717,8.02025259 10.7527409,8.260452 10.3940798,8.28681771 C10.1549083,8.28681771 9.70350337,8.31027545 9.7300566,8.12649091 C9.75660983,7.9425125 10.5424316,7.64143931 10.3011435,7.39038342 C9.95421976,7.02959964 8.21844648,6.81499048 7.14265573,6.68122325 C7.00988956,6.65446981 6.88809104,6.69459997 6.88809104,6.84174393 C6.86153781,7.85856872 6.78187811,8.9824073 6.95447412,9.95948966 C6.96775074,10.0265671 7.04741044,10.1068275 7.11398593,10.1198165 C9.0129269,10.427675 11.0182732,10.2535837 12.5056391,9.15649856 C13.1962155,8.59487007 13.4221104,7.80486796 13.3024285,6.93538098 C12.7047883,4.51361257 10.1949306,3.05496819 8.13647781,2.11840373 C6.13132391,1.23534616 3.91335932,0.780343722 1.53626774,0.900928093 C1.15778797,0.928844732 0.558031257,1.06047944 0.553605719,1.19540986 C0.54918018,1.33034028 1.23302213,1.28788373 1.15105345,1.54320465 C1.06927719,1.79833171 0.37427519,1.64692272 0.168391429,1.58333482 C-0.0374923314,1.51974692 -0.0174811995,1.22196944 0.0356252659,1.03469532 C0.553605719,0.111507584 1.99902517,0.0368693482 2.65188835,0.00449380182 C6.26389766,-0.0893371231 9.75680225,1.29660767 12.0542341,3.18892928 L12.0542341,3.18892928 Z M5.54696037,6.77486031 C4.63048901,6.78823703 3.66110361,6.88187409 2.81120774,7.20291544 C2.63861173,7.26979905 2.42599345,7.45707317 2.55875962,7.68467132 C2.90395164,8.15285662 3.39768784,8.537292 3.86025285,8.8085099 C4.32281786,9.07934007 4.9360436,9.42403302 5.49385391,9.50448722 C5.62662007,8.63461251 5.62662007,7.77830838 5.61334345,6.88187409 C5.56004457,6.85512065 5.61315104,6.80161376 5.54696037,6.77486031 L5.54696037,6.77486031 Z M32.9968457,5.55719081 C32.9570159,6.72115955 31.8810327,7.44389032 31.8810327,8.60785906 C31.9208626,8.64798923 31.9478006,8.70149612 32.0005223,8.67513041 C32.8640796,7.72499536 33.713783,6.37355863 34.9754464,5.97225695 C35.307939,5.9455035 35.6082984,6.23649569 35.7325984,6.45401283 C36.1709191,7.3370704 36.065091,8.58149335 35.4539818,9.38429058 C34.8234388,10.172354 33.727252,10.9631316 32.4794425,10.8291705 C31.9616545,12.1137236 31.6024162,13.4651603 31.4032669,14.870104 C31.297054,15.1510151 31.0449907,14.8968574 30.8856713,14.8433505 C29.810073,13.9870464 30.6932566,11.7201766 30.7661818,11.4309292 C30.8391069,11.1424572 31.1269594,10.4619892 31.3374611,9.89221831 C30.8327573,8.98260116 31.1513961,7.8851283 31.5629712,7.0422009 C31.88161,6.48018468 32.3203155,5.91816846 32.8381036,5.49011333 C32.9039094,5.49030719 32.9570159,5.50368392 32.9968457,5.55719081 L32.9968457,5.55719081 Z M35.135343,7.0022646 C34.9760236,6.97551115 34.9094481,7.18973258 34.7768744,7.22986275 C34.16615,7.9256462 33.5550409,8.62142965 33.2494863,9.45098033 C33.6614462,9.50448722 34.0064458,9.23695276 34.3652993,9.08980881 C34.9760236,8.70168999 35.3612379,8.05980116 35.3214081,7.32369368 C35.2946624,7.20291544 35.1884495,7.10927838 35.135343,7.0022646 Z" id="Shape"></path>
        </g>
    </g>
</svg>