<svg xmlns="http://www.w3.org/2000/svg" xmlns:xlink="http://www.w3.org/1999/xlink" width="44" height="44" viewBox="0 0 44 44">
    <defs>
        <circle id="te8xoq7u4d" cx="12.222" cy="12.222" r="12.222"/>
        <circle id="usbvv0uere" cx="12.222" cy="12.222" r="11.831"/>
        <circle id="9jz3urlnlf" cx="12.222" cy="12.222" r="11.581"/>
        <filter id="4uq97kkv2b" width="109.1%" height="118.2%" x="-4.5%" y="-4.5%" filterUnits="objectBoundingBox">
            <feMorphology in="SourceAlpha" radius="1.5" result="shadowSpreadOuter1"/>
            <feOffset dy="4" in="shadowSpreadOuter1" result="shadowOffsetOuter1"/>
            <feGaussianBlur in="shadowOffsetOuter1" result="shadowBlurOuter1" stdDeviation="1.5"/>
            <feColorMatrix in="shadowBlurOuter1" values="0 0 0 0 0 0 0 0 0 0 0 0 0 0 0 0 0 0 0.402184973 0"/>
        </filter>
        <path id="etmey8w68a" d="M22 44c12.15 0 22-9.85 22-22S34.15 0 22 0 0 9.85 0 22s9.85 22 22 22z"/>
    </defs>
    <g fill="none" fill-rule="evenodd">
        <g>
            <g transform="translate(-389 -92) translate(389 92)">
                <mask id="vjh8p1v4uc" fill="#fff">
                    <use xlink:href="#etmey8w68a"/>
                </mask>
                <g>
                    <use fill="#000" filter="url(#4uq97kkv2b)" xlink:href="#etmey8w68a"/>
                    <use fill="#F3F3F3" xlink:href="#etmey8w68a"/>
                </g>
                <circle cx="22" cy="22" r="21.95" stroke="#90A4BE" stroke-opacity=".6" stroke-width=".1" mask="url(#vjh8p1v4uc)" opacity=".201"/>
                <g mask="url(#vjh8p1v4uc)">
                    <g transform="translate(9.778 9.778)">
                        <use fill="#988430" fill-rule="nonzero" xlink:href="#te8xoq7u4d"/>
                        <use fill="#7A6A2A" fill-rule="nonzero" xlink:href="#usbvv0uere"/>
                        <mask id="m3qj5kf7eg" fill="#fff">
                            <use xlink:href="#9jz3urlnlf"/>
                        </mask>
                        <use fill="#BA9F33" fill-rule="nonzero" xlink:href="#9jz3urlnlf"/>
                        <path fill="#E2CC85" fill-rule="nonzero" d="M9.299 17.008L8.912 16.275 9.137 15.357 10.745 14.736 10.061 13.332 10.399 11.914 11.034 10.644 12.996 10.335 14.437 8.961 17.55 9.196 18.161 12.525 16.985 16.716 16.314 18.885 13.597 18.988 12.335 18.114 10.858 17.497z" mask="url(#m3qj5kf7eg)"/>
                        <path fill="#F1D789" fill-rule="nonzero" d="M14.065 16.985s-.375.172-1.016.132c-.186-.25-1.485-.366-1.485-.366s-.163-.05-.45.07c-.288.116-.561.102-.816.166-.255.063-.508-.27-.704-.339-.196-.073-.455-.249-.455-.249l-.548-.053-1.1-.465-1.746-1.74-.474.743-.147.92.528 1.09 1.422 1.295 2.773.704 1.643-.485 2.06-.87.515-.553z" mask="url(#m3qj5kf7eg)"/>
                        <path fill="#F4ECB4" fill-rule="nonzero" d="M4.214 10.834L4.567 9.768 4.986 9.08 6.337 8.967 5.931 10.15 4.802 12.159 5.271 13.953 4.44 14.368 4.185 13.976 3.979 13.079 3.965 12.07z" mask="url(#m3qj5kf7eg)"/>
                        <path fill="#F3E19D" fill-rule="nonzero" d="M5.73 16.911l-.26-.362s-.069-.172-.03-.322c.04-.152.034-.162.015-.22-.02-.057-.186-.255-.177-.425.01-.172-.013-.23.113-.366.133-.132.093-.361.093-.361l.172.106.04-.059s.063.05.063.127c.014-.107-.043-.602.087-.714.133-.113.362.528.362.528l-.142-.93-.366-.953-.65-.87-.04-.96v-.083s-.3.46-.382.821c-.06.25.083.552.053.91-.024.356-.053.328.034.469.087.14.298.43.215.64-.073.18-.322.054-.322.054s-.05.146-.117.2c-.023-.087-.05-.143-.097-.196-.003.033-.013.079-.013.079s-.044-.137-.087-.309c-.06-.229-.123-.532-.18-.694-.024.093-.083.376-.083.376l.033.435.162.597.157.392.152.479.132.322.107.245.093.552.45.475.238.106.174-.089z" mask="url(#m3qj5kf7eg)"/>
                        <path fill="#F2E8B0" fill-rule="nonzero" d="M4.45 9.964s-.323.548-.415 1.1c-.093.551-.176 1.134-.117 1.886.06.757.172 1.222.263 1.554.156.552.562 1.32.562 1.32l.013-.03s-.106-.196-.162-.405c-.053-.21-.073-.46-.122-.572-.044-.113-.117-.21-.153-.348-.033-.133-.04-.342-.142-.498-.044-.064-.097-.23-.113-.396-.02-.25.01-.528-.014-.757-.043-.382-.073-.641-.033-.841.04-.2.245-.767.372-1.218.083-.289.033-.532.185-.783.153-.25.246-.47.28-.621.039-.139-.404.609-.404.609z" mask="url(#m3qj5kf7eg)"/>
                        <path fill="#F5EEC0" fill-rule="nonzero" d="M5.979 9.744s-.167.05-.246.137c-.079.083-.112.152-.22.292-.106.143-.112.255-.199.431-.087.173-.279.432-.302.525-.024.093-.064.528-.113.733-.044.206.05.46.05.46l.112-.025s0 .147.113.246c.112.097.132-.329.132-.329l.421-1.422.635-.43.07-.349-.453-.269z" mask="url(#m3qj5kf7eg)"/>
                        <path fill="#E6DB9D" fill-rule="nonzero" d="M6.287 10.389s-.299.02-.445.126c-.06.044-.083.08-.146.133-.117.097-.236.186-.293.312-.063.127-.132.319-.18.68-.02.153-.02.293-.033.416-.02.166-.05.299-.034.392.02.19.215.288.235.504l.406-.206.381-1.505.811-.508-.459-.514-.243.17z" mask="url(#m3qj5kf7eg)"/>
                        <path fill="#E5CB7A" fill-rule="nonzero" d="M6.35 23.823l-1.81.044-.958-.073.073-.87c.033-.103.146-.396.18-.45.024-.078.053-.278-.014-.523.043-.07.18-.107.332-1.472.06-.508.07-.894.113-1.135.063-.342.107-.469.097-.597-.014-.206-.03-.356-.01-.515.03-.21.235-.458.23-.63-.005-.137-.074-.226-.133-.309-.06-.083-.107-.152-.107-.152s.405-.28.402-1.402c.013.004.023.01.023.01l.2.567.136.166.525.977.674.655.997.67.625.68.063 1.814-.817 1.06-.82 1.485z" mask="url(#m3qj5kf7eg)"/>
                        <path fill="#D8C173" fill-rule="nonzero" d="M6.643 22.26s.014-.226.2-.373c.03.05.05.097.043.133.034-.06.27-.44.801-.538.532-.097.66-.485.66-.485l1.13-1.026 1.292-1.189 1.57-.552.734-.18s.013.054-.014.173c.136-.01.439-.08.753-.19.127-.05.246-.07.309-.004.093.087.107.292.113.415.152-.034.328-.18.468-.166.226.024.425.289.655.289.302 0 .439-.186.65-.333.127-.087.31-.195.412-.269.245-.18 2.84-.973 2.84-.973l.91.06.146.977-.08 2.567-4.164 2.175-6.566 1.007-2.674-.684-.188-.835z" mask="url(#m3qj5kf7eg)"/>
                        <path fill="#F1D789" fill-rule="nonzero" d="M3.866 23.83s.24-.543.352-1.326c.093-.64.01-.787.034-.992.034-.309.382-.91.411-1.027.024.24.093 1.143.343 1.345-.054.079-.143.352.176.562-.054.112-.163.249-.093.454.069.206.152.499.112.821-.112.024-.235.073-.332.166-.097.087-1.003-.004-1.003-.004z" mask="url(#m3qj5kf7eg)"/>
                        <path fill="#E0CD81" fill-rule="nonzero" d="M7.968 23.452l1.458-.406.063.02s.034.02.034.087c.093-.053.172-.044.23-.08.029.064.058.274.189.3.136.03.283-.06.431-.173.146-.116.313-.263.44-.322.023.04.082.162.122.263.166-.132.455-.67.866-.66.04-.093.186-.432.572-.69.381-.26.62-.28.92-.256.116-.152.268-.289.43-.385.05.02.186.102.356.023.172-.079.366-.385.621-.425.226-.034.396.083.396.083s.743-.738 1.256-.983c-.02-.06-.06-.283.542-.777.033.03.01.113.033.117.01 0 .156-.064.342-.206.23-.172.505-.352.67-.401.313-.093.646.096.646.096s.04-.03.092-.043c.08-.014.137-.024.18-.04-.004.103.054.28 0 .432 0 0 .083.049.196.083-.033.073-.107.259-.23.348.104.05.117.106.264.156-.06.083-.156.225-.2.312-.043.093-.2.479-.269.625-.073.147-.172.416-.22.47-.049.052-.219.282-.351.395.116-.044.597-.19.8-.246l-1.255 1.863-2.283.68-1.119.19-5.832-.003-.514-.256.124-.191z" mask="url(#m3qj5kf7eg)"/>
                        <path fill="#DFC57C" fill-rule="nonzero" d="M6.337 10.335s-.172 0-.206.024.172.073.235.097c.064.024.2.133.236.22.033.083 1.236.567 1.236.567l.85-.043.293-.406-.558-.488.392-1.153-.519.083-1.245.744-.625.239-.09.116z" mask="url(#m3qj5kf7eg)"/>
                        <path fill="#E5CC7C" fill-rule="nonzero" d="M8.204 10.717s.033.063.116.063c.176 0 .338.044.406.133.112.142.425.597.425.597l.747.27.05-.88-.817-.568-.93.342v.043h.003z" mask="url(#m3qj5kf7eg)"/>
                        <path fill="#D2C281" fill-rule="nonzero" d="M8.057 11.044s.137.01.309-.054c.172-.063.455-.2.577-.146.172.073.137.302.323.508.112.127.318.123.435.26.116.136.518.072.518.072l.152.821-.611.783-.2.973h-.826l-.756-.298-.372-.9.186-.91.265-1.11z" mask="url(#m3qj5kf7eg)"/>
                        <path fill="#E2C270" fill-rule="nonzero" d="M9.655 11.083s.03.01.063.01c-.023.02-.073.063-.053.176.02.113.083.255.03.342.023.03.059.063.093.162.033.097.043.186.263.2-.05.03-.087.07-.087.07s.152.132.23.254c.078-.004.288-.069.288-.069l.043.03.093-.04s-.087-.033-.023-.245c.059-.186.112-.176.116-.19.004-.014.044-.21.044-.289.03-.102.053-.415.053-.415l-.063-.69-.356-.216-.289-.279-.273.515-.18.18-.014.445.022.05z" mask="url(#m3qj5kf7eg)"/>
                        <path fill="#CCB360" fill-rule="nonzero" d="M10.512 10.506s.063.18.087.318c.013-.044.013-.083.013-.083s.05.273.06.386c.02-.004.04-.01.043.01.004.02.05.239.04.361.023-.043.136-.215.332-.332.08-.05.172-.103.269-.107.152-.004.263.097.445.097.439 0 .837-.322 1.13-.421.215-.073.4-.127.531-.245.064-.054.176-.172.28-.348.136-.236.278-.44.42-.465-.112.02-.195.014-.195.014s.043-.044.116-.103c.073-.06.162-.133.289-.133.225 0 .338.034.465.034.126-.004.2-.034.2-.034s.132.093.43.093c.3.004.499.03.655.044.156.014.68-.044.83-.04.157.004.284.07.284.07l-.485-1.409-1.74-1.52-1.037.733L12.38 9.02l-1.542.572-.323.362v.552h-.003z" mask="url(#m3qj5kf7eg)"/>
                        <path fill="#D5B457" fill-rule="nonzero" d="M13.972 9.699s.044-.044.117-.103c.073-.06.162-.133.289-.133.225 0 .338.034.465.034.126-.004.2-.034.2-.034s.132.093.43.093c.3.004.499.03.655.044.156.014.68-.044.83-.04.157.004.284.07.284.07l-.22-.635-.255-.485-.728-.797-.88-.518c-.004-.004-.302-.083-.302-.083l-.792.478-.717 1.858-.014.391.464.22c.117-.196.246-.352.366-.372-.108.012-.192.012-.192.012z" mask="url(#m3qj5kf7eg)"/>
                        <path fill="#D2B257" fill-rule="nonzero" d="M13.963 9.831c-.07.004-.127-.01-.143-.06-.06-.165-.107-.189-.156-.189-.05 0-.117.107-.156.117-.04.01-.087-.123-.087-.123l-.044-.02s-.255.166-.435.362c-.18.196-.475.528-.607.588-.133.059-.587.079-.744.112-.156.034-.328.147-.352.172-.023.026.07.054.083.08.014.023-.152.013-.166.039-.01.02.04.133.064.19.043-.02.087-.034.136-.034.152-.004.263.097.445.097.439 0 .837-.322 1.13-.421.215-.073.4-.127.531-.245.064-.054.176-.172.28-.348.074-.121.147-.234.22-.317z" mask="url(#m3qj5kf7eg)"/>
                        <path fill="#D2B159" fill-rule="nonzero" d="M7.666 19.619s-.04-.147-.402-.524c-.103-.107-.166-.196-.235-.26-.172-.162-.273-.205-.396-.298-.269-.2-.561-.2-.787-.445-.225-.245-.488-.714-.67-1.193-.18-.478-.23-.63-.23-.644 0-.014.05-.107.113-.093.063.014.063.136.08.166.003.01.049.073.106.136.093.107.225.236.293.426-.014-.163-.07-.343-.07-.343s.348.22.645.45c.299.229.421.308.508.454.087.147.293.532.392.645.099.113 1.448.538 1.448.538l.64.479.319.698-.25.391-.478.103-.777-.348-.25-.338z" mask="url(#m3qj5kf7eg)"/>
                        <path fill="#C2A44D" fill-rule="nonzero" d="M5.94 17.214s.161.259.557.504c.356.216.92.412 1.422.528.288.07.577.123.836.127.698.01 1.179-.19 1.774-.255.323-.034.718-.06 1.13-.156.528-.127.84-.27 1.265-.47.309-.142.592-.248.821-.385.322-.19.558-.401.83-.465-.033.093-.069.26-.337.432.142-.004.338-.014.338-.014s-.19.112-.524.366c-.206.156-.479.42-.758.597-.18.113-.376.196-.504.263-.313.172-.44.259-.645.469.073-.004.08 0 .08 0s-.26.033-.446.132c-.04 0-.107-.014-.225.02-.093.03-.216.097-.342.132-.18.054-.24.03-.24.03l.03.06s-.235-.005-.312.003c.013.004.01.01.01.01s-.01 0-.04.014c-.024.014-.063.04-.123.053-.024.004-.043.004-.073.01.01.024.087.157.123.236-.03.02-.475.356-.475.356s.02.03.034.069c.013.043.02.107.033.136.034.06.054.07.054.07s-.054.01-.147.033c-.079.02-.176.054-.312.073-.04.004-.083.01-.127.01.02.044.107.21-.053.402-.162.19-.21.22-.26.342-.013-.01-.039-.03-.078-.05-.054-.023-.127-.059-.153-.106-.004.02-.023.097-.059.186-.05.132-.123.263-.136.361-.054-.059-.153-.176-.29-.152-.136.024-.244.21-.268.263 0-.033-.024-.06-.03-.02-.004.044-.079.499-.498.867-.004-.093-.004-.299-.014-.366-.04.04-.087.097-.372.22-.279.122-.235.245-.235.245s-.024-.196.126-.402c.153-.206.246-.302.246-.318 0-.004-.004-.024-.02-.044-.02-.02-.06-.043-.06-.06.024-.01.26-.122.246-.355-.014-.21-.103-.319-.166-.396-.01-.01.093-.083.079-.106-.01-.014-.137-.107-.153-.157.004-.023.01-.063.02-.087.014-.043.024-.073.02-.103-.01-.049-.063-.185-.08-.2.015.005.114 0 .114 0s-.08-.126-.093-.185c-.014-.06-.044-.216-.06-.245.034.003.117.01.117 0 .004-.03-.073-.08-.04-.117.024.004.07.024.113.079-.024-.063-.063-.186-.146-.235.04-.014.172-.05.289.02.116.069.156.166.156.166l.176.132c.122.097.279.235.528.332.053.03.19.03.289.01.059-.014.093-.033.122-.05.024-.013.044-.02.044-.02s-.04-.078-.073-.122c.033 0 .073.004.073.004s.024-.053-.083-.156c.023-.024.053-.04.053-.08-.034-.003-.093-.052-.107-.072.02-.014.05-.06.083-.073-.03-.024-.102-.123-.136-.133.034-.01.093-.043.093-.043s-.166-.044-.22-.08c-.053-.04-.132-.106-.18-.126-.05-.02-.136-.03-.172-.07.034.01.087 0 .127 0 .03 0 .043.005.053.005-.004-.014-.004-.044.073-.054.074-.014.107-.033.107-.033s-.073-.004-.156-.083c-.083-.08-.152-.143-.2-.153-.05-.01-.142.034-.2.03-.079-.01-.112-.05-.112-.05s-.263.024-.847-.332c-.504-.308-.724-.581-.724-.581s-.059-.02-.136-.064c-.19-.098-.453-.304-.445-.573z" mask="url(#m3qj5kf7eg)"/>
                        <path fill="#CAA13E" fill-rule="nonzero" d="M13.215 5.344s.07.02.117.079c.093.107.152.308-.06.524.083.03.117.04.19.03-.073.087-.24.273-.249.435-.01.132.073.172.073.172s-.126.146-.132.391c.03-.033.097-.106.196-.186.146-.116.348-.249.484-.332-.004.054.014.103.014.103s.255-.21.469-.117c.097.044.053.18.053.18s.133-.05.225.044c.093.093.226.332.293.425.03.044.107.127.186.255.093.152.196.362.269.568.004-.103.03-.263.322-.162.293.102.625.318.904.743.28.425.348.904.489 1.086.142.176.288.469.298.591.01.123-.043.518.25 1.588.083-.332.21-1.07.21-1.07l.068-.65.08-2.013L15.86 6.28 14.218 5.09l-1.07.102.067.153z" mask="url(#m3qj5kf7eg)"/>
                        <path fill="#B59544" fill-rule="nonzero" d="M17.121 8.34s-.03-.196-.524-.528c-.495-.328-.88-.328-1.236-.607-.273-.22-.558-.724-.744-.89-.18-.164-.21-.639-.21-.639l.608-.508.904-1.306.763-.84.366.508.508.597.283 1.199.103 1.754-.821 1.26z" mask="url(#m3qj5kf7eg)"/>
                        <path fill="#C89D3A" fill-rule="nonzero" d="M17.732 10.442s.034-.381-.097-.787c-.13-.405-.415-1.125-.548-1.394-.053-.299-.013-.322.044-.356.06-.034.273-.156.391-.587.117-.432.485-.445.485-.445l.225-.167.343.857.298.773.093.591.07.505-.163 1.066-.8.724-.34-.78z" mask="url(#m3qj5kf7eg)"/>
                        <path fill="#CEB052" fill-rule="nonzero" d="M6.35 23.823s-.18-.332-.19-.474c-.003-.137.05-.226.05-.226s-.07-.103-.133-.126c.014-.07.04-.153.093-.21.054-.063.157-.146.176-.176.02-.03.03-.07.087-.079.06-.01.123-.01.123-.087v-.142s.024-.014.044-.04c.013-.02.023-.043.033-.05.02-.01.113-.039.162-.03.05.01.18.064.25.06.142-.004.308-.112.571-.063.396.073.489.342.718.494.156.107.318.06.342.06h.054c.01 0 .083-.083.122-.08.08.005.087.07.137.074.116.014.342-.06.455-.03.053.014.122.07.142.143.024.073.004.166-.053.22-.123.112-.24.219-.263.312.033.023.092.079.092.079s-.053.05-.152.097c-.043.02-.113.053-.19.063-.146.014-.328.033-.435.19-.107.156-.474.069-.474.069l-1.76-.048z" mask="url(#m3qj5kf7eg)"/>
                        <path fill="#CCA847" fill-rule="nonzero" d="M17.087 18.373s.309-.411.416-.615c.106-.21-.338-2.87-.338-2.87l.893-2.929-.023-.953s.043-.88.146-1.262c.123.22.504.485.587.625.04-.269.172-.836.153-1.442.073.113.249 1.246.249 1.246l.176.764.23.81.254.857.153.591.087.143.073.249.07.269.199.63.117.519.093.94s.033.116.043.219c.004.103-.014.162-.014.18 0 .02.034.225.02.381-.02.157-.02.28-.142.392-.123.113-.2.783-.2.783l-.22-.146s.044-.2-.059-.382c-.103-.18-.303-.22-.415-.19-.113.024-.339.06-.412.123-.069.063-.239.259-.395.348-.196.117-.514.127-.685.166-.172.04-.361.156-.561.293-.208.134-.417.231-.495.26z" mask="url(#m3qj5kf7eg)"/>
                        <path fill="#C39D3C" fill-rule="nonzero" d="M17.087 22.694s.172.113.489.19c.316.077 1.125.542 1.125.542l.68.415.841.064.738-.103s.023-.313-.024-1.478c-.05-1.168-.087-1.335-.087-1.422 0-.087-.03-1.57-.063-1.892-.034-.323-.01-.651-.02-.84-.01-.19-.117-.964-.166-1.164-.054-.2-.156-.298-.172-.298-.014.004-.097.375-.097.468 0 .093-.02.319-.02.376-.014-.004-.02-.04-.02-.053-.02.05-.043.136-.053.146-.01.01.014-.083 0-.103-.014-.02-.04-.01-.034-.06.004-.049.014-.086.014-.086s-.06.087-.103.308c-.043.22-.043.226-.06.246-.013.023-.092.102-.096.132-.004.054.073.107.08.137.003.05-.07.278-.094.391-.024.113-.014.332-.04.445-.02.103-.039.162-.106.206.05.01.097.024.097.024s.069.292-.107.542c-.063.087-.08.126-.146.205-.133.147-.236.313-.246.421-.01-.04-.014-.096-.014-.096s-.205.239-.292.375c-.113.176-.27.166-.313.21-.043.043-.053.123-.04.186-.039.01-.112.024-.161.176-.024.079-.083.156-.176.21-.093.053-.206.069-.263.083.049.013.069.013.092.03-.03.049-.166.126-.318.225-.152.093-.225.23-.263.318-.04.083-.097.137-.19.146.04.024.097.08.127.097-.044.01-.117.01-.25.123-.138.115-.185.148-.249.158z" mask="url(#m3qj5kf7eg)"/>
                        <path fill="#D2BA6B" fill-rule="nonzero" d="M14.149 23.79s.122-.19.43-.309c.31-.122.635-.146.764-.186.123-.04.22-.093.372-.122-.014.116-.02.21-.054.289.113.02.396-.2.548-.25.153-.05.499-.122.528-.146.03-.024.093-.166.113-.172.02-.004.073.03.107.03.063 0 .508-.412.86-.406.348.004.744.293.684.552.093-.053.19-.103.27-.083-.01.033-.014.073-.014.073s.19-.043.239.02c.053.063.024.122.152.273.103.126.073.156.054.2.049.013.292.096.518.308.225.21-1.8.08-1.8.08l-3.736-.034-.035-.117z" mask="url(#m3qj5kf7eg)"/>
                        <path fill="#C0993A" fill-rule="nonzero" d="M20.024 15.497s-.063.342-.176.558c-.112.216-.235.514-.235.514s0-.107.024-.2c-.143.084-.489.283-.588.372-.093.083-.249.23-.288.299.092-.273.19-.518.205-.631-.142.103-.807.65-1.153 1.013l-1.078.872s-.166.093-.381.18c-.186.079-.406.146-.568.21.044-.117.113-.22.21-.319.103-.097.411-.431.459-.587.043-.163.053-.26-.004-.396-.054.014-.176.02-.26.044-.083.023-.172.112-.172.112s.064-.362.2-.704c-.103.004-.279.034-.279.034s.246-.412.665-.698c-.07.014-.226.053-.376.116-.245.103-.514.256-.714.339.113-.157.904-1.286 1.375-2.338.468-1.05.644-1.32.747-1.883.054-.279.04-.69.054-1.06.013-.366.059-.694.03-.914.122.153.58.582.597 1.541.013.96-.44 2.255-.92 2.953.117.033.421.073.734-.469.312-.542.308-.694.42-.92.015.113.01.153.01.153s.456-.552.671-1.246c.044.298.172.561-.03 1.11-.18.494-.415.614-.415.614s.117-.02.289-.122c.03.073.024.156.073.186.05.03.117.079.127.126.053-.079.136-.18.162-.255-.02.156-.034.84.04 1.189.152-.014.308-.024.415-.299-.073.269-.073.431-.024.66.081-.055.154-.154.154-.154z" mask="url(#m3qj5kf7eg)"/>
                        <path fill="#A88F33" fill-rule="nonzero" d="M14.886 4.596s-.152.063-.411.063c-.226 0-.162-.087-.514-.087-.542 0-2.435.313-2.767.309-.216-.004.728.093.728.093l2.41.034.485-.04.18-.366-.11-.006z" mask="url(#m3qj5kf7eg)"/>
                        <path fill="#E3C571" fill-rule="nonzero" d="M8.635 9.31s-.309.234-.44.414c-.132.18-.2.299-.347.445.049.004.102-.013.102-.013s0 .04-.023.049c.05-.004.087.014.112.04-.043.023-.162.142-.069.282.07.107.216.117.216.117s-.034.097.107.087c.302-.014.64-.146.797-.113.156.04.245.054.356.246.116.19.219.22.219.22s.07-.177.053-.44c.093-.225.093-.445.093-.445l-.102-.757-.45-.568-.58.322-.044.113z" mask="url(#m3qj5kf7eg)"/>
                        <path fill="#D8B65B" fill-rule="nonzero" d="M9.186 9.196s.044.103.226.113c-.02.044-.02.05-.014.083l.01.083s.024-.01.053-.04c.01.044-.01.113 0 .163s.03.087.03.087l.01-.02c.004-.01.04.107.136.196 0-.024.01-.04.01-.04s0 .034.024.07c-.01-.004-.02-.014-.02-.014s.01.312.063.474c.014-.02.02-.023.024-.033 0-.01-.004.087-.014.156-.013.07-.004.166-.004.166s.054-.043.117-.07c.06-.023.156-.096.216-.258.059-.162.079-.283.079-.283s.033.063.04.117c.003.05.096.023.096.023l.02-.215.117-.489.107-.302.514-.801.93-.714.81.186.684-.93-1.178-.708-1.116.117-1.012 1.402-.811 1.272-.147.21z" mask="url(#m3qj5kf7eg)"/>
                        <path fill="#D3AE4D" fill-rule="nonzero" d="M15.029 7.167s-.07.014-.27.117c-.2.103-.338.136-.415.289-.079.152-.083.273-.083.273s.137-.06.216-.08c.083-.02.176-.013.166.02-.01.03-.04.064-.04.064s.157-.004.153.073c-.004.079-.03.162-.06.2-.03.039-.152.096-.166.142-.033.093.014.097-.004.172-.014.073-.079.215-.292.465-.22.249-.313.425-.313.425s-.107-.2-.162-.372c-.04.02-.25.137-.25.137l-.486-1.695.01-.113s.044-.054.053-.152c-.073-.024-.083-.044-.18-.137-.096-.093-.176-.206-.338-.283-.023-.043-.053-.103-.172-.126-.116-.024-.19-.044-.19-.044s.064-.023.093-.073c-.073.01-.132.034-.292.03-.163-.004-.18-.01-.27.004-.088.014-.195.053-.235-.083-.043-.034-.136-.004-.215.112-.08.117-.107.21-.26.255-.003.03-.02.107-.069.19-.043.074-.112.147-.205.255-.147.173-.123.455-.356.67-.236.216.04-.596.04-.596l.375-.9 1.07-1.046 1.661-.113.163.86.81.279.513.781z" mask="url(#m3qj5kf7eg)"/>
                        <path fill="#CAA13E" fill-rule="nonzero" d="M15.292 7.357l-.699-1.007-.488-.375s-.348-.641-.372-.66c-.02-.015-.348-.05-.558-.064l.04.097s.07.02.117.079c.093.107.152.308-.06.524.083.03.117.04.19.03-.073.087-.24.273-.249.435-.01.132.073.172.073.172s-.126.146-.132.391c.03-.033.097-.106.196-.186.146-.116.348-.249.484-.332-.004.054.014.103.014.103s.255-.21.469-.117c.097.044.053.18.053.18s.133-.05.225.044c.093.093.226.332.293.425.03.044.107.127.186.255.093.152.196.362.269.568.004-.08.02-.19.156-.19l-.207-.372z" mask="url(#m3qj5kf7eg)"/>
                        <path fill="#F4EFC8" fill-rule="nonzero" d="M4.826 10.217s-.05-.123 0-.362c.049-.24.126-.352.152-.704.024-.352.255-.791.255-.791l.635-.289.449.123.132.6-.567.313s-.03.133-.19.24c-.162.106-.382.19-.435.298-.054.113-.07.21-.07.21s-.162-.034-.259.073c-.102.109-.098.206-.102.289z" mask="url(#m3qj5kf7eg)"/>
                        <path fill="#EBCC73" fill-rule="nonzero" d="M6.107 10.057s-.053.033-.093.116c-.04-.063-.132-.439-.136-.777-.004-.338-.024-.421.053-.538.08-.117.386-.24.342-.449-.043-.2-.225-.283-.449-.225-.156.04-.273.372-.435.538-.122.126-.269.106-.308.176-.054.093-.004.186-.02.245-.004.02-.053.127-.142.255-.18.26-.485.625-.525.953.014-.186.004-.19.054-.395l-.03-.05.196-.64.127-.528.282-.885.499-.903.484-.542.505.033.059.758.289 1.422.607.747-.973.655-.386.034z" mask="url(#m3qj5kf7eg)"/>
                        <path fill="#E5C66B" fill-rule="nonzero" d="M6.41 10.326s-.083.02-.113.004c-.03-.014-.06-.034-.05-.054.01-.02.064-.053.064-.07 0-.013-.004-.052-.05-.058-.045-.006-.059.023-.059.023s-.043-.033-.079-.04c.03-.003.063-.003.063-.003s-.083-.04-.172-.05c.05-.03.147-.116.21-.116s.103-.01.093-.044c-.01-.033-.06-.083-.113-.103.02-.023.034-.059-.014-.156-.05-.097-.03-.162-.014-.186.014-.03.064-.083.087-.116.024-.034.044-.08.083-.103.02-.014.084-.04.147-.064.069-.023.126-.053.166-.023.043.03.024.069.024.069s.136-.05.259.014c.122.06.421.097.421.097l.107.215-.708.607-.293.147-.06.01z" mask="url(#m3qj5kf7eg)"/>
                        <path fill="#E6BD62" fill-rule="nonzero" d="M7.393 9.333s-.22.146-.27.2c.03.003.08.023.06.053-.024.03-.166.132-.245.23-.083.096-.162.219-.19.278-.03.054-.255.21-.332.23.162 0 .488-.2.61-.2-.003.06.034.126.104.132.069.004.269.044.538-.122.269-.162.18-.283.292-.362.216-.143.303-.27.422-.348.116-.08.18-.097.18-.097s.003-.06.039-.054c.034.004.044.034.044.034s.205-.146.468-.186c-.01-.004-.014-.014-.014-.014s.02-.01.024-.02c0 0 .014-.02.024-.01s.024.084.043.113c.044-.02.127-.205.127-.205l.2-.572v-.522l-.157.03-1.172.498-.712.738-.083.176z" mask="url(#m3qj5kf7eg)"/>
                        <path fill="#B6933F" fill-rule="nonzero" d="M10.77 6.772s.103-.024.18-.074c-.023.064-.023.133-.126.283-.103.153-.107.172-.19.329-.083.162-.093.395-.172.498.063-.03.113-.034.113-.034s-.08.07-.113.143c-.034.073-.093.225-.24.318-.146.093-.331.152-.531.372-.2.216-.406.488-.509.587.054-.093.127-.279.147-.401.02-.123-.004-.27.03-.431.033-.162.033-.28.195-.562.162-.283.44-1.266.44-1.266l.597-.19.18.428z" mask="url(#m3qj5kf7eg)"/>
                        <path fill="#C49937" fill-rule="nonzero" d="M10.34 6.41s-.18.259-.23.488c-.05.23-.004.21-.034.323-.03.112 0 .21 0 .21s.08-.143.25-.246c.17-.103.308-.176.391-.263.083-.093.152-.245.332-.362-.073-.01-.176-.043-.195-.04.073-.083.292-.21.514-.361.22-.157.206-.22.562-.376-.117.02-.173-.01-.27 0 .04-.083.177-.123.313-.26.136-.136-.087-.337-.087-.337l-1.042.63-.505.594z" mask="url(#m3qj5kf7eg)"/>
                        <path fill="#DFC068" fill-rule="nonzero" d="M7.509 5.939L7.533 5.749 7.832 5.271 8.144 4.43 8.144 3.281 8.12 2.617 8.17 2.181 8.207 2.043 8.247 1.99 8.502 2.122 8.854 2.601 8.888 3.524 8.546 4.982 7.569 6.048z" mask="url(#m3qj5kf7eg)"/>
                        <path fill="#A88F33" fill-rule="nonzero" d="M8.287 1.936s-.157.004-.19.655c-.034.65-.05.993-.073 1.315-.024.322-.08.518-.107.708-.03.19-.044.449-.133.607-.04.073-.122.303-.318.475-.22.19-.548.322-.597.332-.087.02-.528.063-.708.162-.064.034-.173.073-.293.186-.24.216-.558.601-.787 1.066-.352.694-.704 2.654-.704 2.654l.079-.132s.01-.176.186-.485c.172-.308.122-.654.362-1.246.093-.225.21-.518.352-.767.225-.406.498-.754.773-.944.449-.308.943-.375.943-.375l.532-.352s.093-.18.216-.386c.172-.289.391-.611.439-1.08.073-.694-.103-1.149-.093-1.56.01-.412.014-.714.097-.787.083-.074.024-.046.024-.046z" mask="url(#m3qj5kf7eg)"/>
                        <path fill="#C99E3D" fill-rule="nonzero" d="M8.287 5.041s.235-.577.342-1.09c.02-.102.06-.205.069-.288.05-.485.063-.685 0-.95-.05-.195-.24-.371-.338-.508-.097-.142-.143-.196-.123-.225.02-.03.097-.08.172-.073.073.003.263.02.421.195.153.176.273.774.273.774l.127.787.322.993-1.265.385z" mask="url(#m3qj5kf7eg)"/>
                        <path fill="#B58634" fill-rule="nonzero" d="M10.492 4.44s-.044.02-.123 0c.004.04-.004.117-.079.166-.083-.034-.86.034-.86.034s-.362-.064-.475-.542c-.08-.319.06-.758.014-1.046-.07-.426-.166-.509-.176-.641-.01-.133-.02-.166-.02-.25-.043-.01-.07-.023-.113-.023-.01-.04.01-.073-.033-.142.023.01.186.03.376.21.156.145.156.199.18.229.03.03.268.235.371.439.103.203.303.856.348.963.014.043.044.087.117.186.115.142.283.377.473.417z" mask="url(#m3qj5kf7eg)"/>
                        <path fill="#A88F33" fill-rule="nonzero" d="M9.21 2.444c.073.117.21.352.323.602.116.263.185.478.332.654-.08-.23-.22-.68-.303-.84-.093-.17-.283-.352-.352-.416z" mask="url(#m3qj5kf7eg)"/>
                        <path fill="#E6C367" fill-rule="nonzero" d="M7.865 5.696s-.2.05-.571.245c-.123.063-.24.117-.352.166-.293.133-.607.255-.857.323l.03.033s0 .097.053.152c-.03.03-.425.3-.308 1.199.08-.03.172-.07.186-.07.024.005.03.07.06.07.029 0 .126-.04.229-.172-.004.053-.064.591.255.953.059-.07.21-.299.21-.299l.003-.073s.014-.255.097-.488c.083-.236.245-.406.245-.406l.847-1.208-.127-.425z" mask="url(#m3qj5kf7eg)"/>
                        <path fill="#DCBA5A" fill-rule="nonzero" d="M7.074 7.47s-.06.043-.126.063c-.014-.05-.034-.22.083-.386.136-.2.435-.458.518-.664.053-.133.03-.465.504-.89.475-.425.66-.572.66-.572l.768-.385.943.372-.468 1.837-.364.86-1.448-.273-1.07.038z" mask="url(#m3qj5kf7eg)"/>
                        <path fill="#E9CE77" fill-rule="nonzero" d="M7.626 6.971l.18-.225v-.16s.2-.054.415-.273c.216-.22.515-.64.778-.615.263.03.288.571.298.724.01.152.044.498.097.684.06.186-.64.89-.64.89l-.475.362-.653-1.387z" mask="url(#m3qj5kf7eg)"/>
                        <path fill="#CDAE50" fill-rule="nonzero" d="M8.184 8.848s.146-.23.04-.279c.063-.142.18-.292.18-.292s.082-.206.351-.46c.27-.254.435-.42.479-.59.043-.173.043-.339.043-.339s.054.044.093.064c.044.02.25.19.22.532s-.156.484-.156.484-.123.123-.21.186c-.093.063-.127.137-.283.142.024-.02.054-.03.054-.03s-.163-.019-.25.06c-.087.08-.273.323-.365.396l-.196.126z" mask="url(#m3qj5kf7eg)"/>
                        <path fill="#D2A83E" fill-rule="nonzero" d="M14.76 5.002s-.313-.127-.728-.143c-.415-.014-1.023.01-1.618.014-.64.004-1.222-.22-2.03-.259-.132-.08-.468-.425-1.52.309.063-.004.763-.163 1.007.142.245.302.176.817.142.94-.063.272-.269.67-.352.949-.083.278-.063.425-.123.62-.059.196-.19.293-.112.519.103-.064.156-.064.328-.45.172-.385.137-.66.421-.986.28-.328.744-.777.92-.89.176-.113 1.578-.84 3.046-.146.354-.038.619-.62.619-.62z" mask="url(#m3qj5kf7eg)"/>
                        <path fill="#C29637" fill-rule="nonzero" d="M9.455 4.733s-.004-.034-.01-.044c-.023-.05-.053-.079-.053-.079s-.348-.063-.524-.043c-.308.033-.587.415-.718.61-.132.196-.293.499-.469.655.004-.023-.01-.043-.01-.043s.01.014-.01.033c-.02.02-.02.03-.01.04l.03.03c.01 0 .283-.123.655-.47.396-.361.698-.547.856-.61.121-.056.263-.08.263-.08z" mask="url(#m3qj5kf7eg)"/>
                        <path fill="#AC8132" fill-rule="nonzero" d="M16.207 3.245s-.063.08-.142.167c-.176.185-.406.395-.601.61-.186.206-.396.367-.631.635-.236.27-.508.568-.578.655-.063.087-.112.23-.112.303l-.074-.05s.02.04.06.087c.05.07.126.157.166.21.063.087.097.19.103.225.023.004.176.034.366-.278.19-.313.439-.655.439-.655l.395-.587.25-.499.312-.558.047-.265z" mask="url(#m3qj5kf7eg)"/>
                        <path fill="#A88F33" fill-rule="nonzero" d="M16.613 2.846s-.24.196-.333.312c-.092.117-.312.426-.312.426l.08-.01.4-.356.157-.28.008-.092z" mask="url(#m3qj5kf7eg)"/>
                        <path fill="#A67A2E" fill-rule="nonzero" d="M16.54 18.563s-.004-.162.087-.26c.093-.096.328-.239.557-.773.23-.532.255-.654.255-.654s-.411.352-.664.435c.06-.123.093-.21.123-.273-.034-.03-.176-.063-.19-.08.079-.078.122-.272.282-.4.206-.157.582-.426.875-.665.292-.24.866-.797.939-.96.044.064.053.103.053.103s-.288.376-.439.616c-.132.205-.122.322-.122.322l.273-.117s.079.293-.28.738c.157-.06.22-.024.31-.073-.147.093-.349.22-.539.567-.185.348-.439.754-.866 1.007-.415.267-.654.467-.654.467z" mask="url(#m3qj5kf7eg)"/>
                        <path fill="#8C6228" fill-rule="nonzero" d="M15.468 5.207s-.163.338-.186.602c-.004.063-.02.112-.02.185-.004.236.014.499-.04.621-.02-.049-.03-.083-.049-.102-.03.083-.083.342-.127.439-.02-.064-.063-.283-.059-.542.004-.26.01-.309.01-.362-.01.079-.063.186-.083.249-.03-.053-.063-.123-.103-.18-.024.04-.053.097-.08.127-.003-.024-.013-.087-.019-.176-.004-.103-.01-.236-.004-.263.01-.054.093-.263.27-.455.209-.23.424-.67.488-.807.063-.137.332-.704.332-.704h.206l-.299.68s-.18.372-.273.508c-.093.137-.289.528-.376.68.064-.082.117-.126.18-.205.062-.055.232-.295.232-.295z" mask="url(#m3qj5kf7eg)"/>
                        <path fill="#CBA94C" fill-rule="nonzero" d="M16.617 2.82s-.04.143-.157.283c-.122.146-.385.342-.514.498-.116.153-.352.568-.245 1.06.04-.106.113-.318.309-.557.195-.24.405-.514.508-.728.103-.216.116-.386.116-.386l.04-.05-.024-.112-.033-.008z" mask="url(#m3qj5kf7eg)"/>
                        <path fill="#A88F33" fill-rule="nonzero" d="M20.622 15.938s-.08-.215-.103-.411c-.024-.196.04-.235-.034-.459-.043-.136-.123-.117-.142-.136-.02-.02-.034-.226-.03-.339.004-.112-.004-.259-.024-.322-.03-.024-.05-.043-.093-.19-.05-.146-.073-.22-.097-.263-.023-.043-.093-.083-.093-.126 0-.087.08-.133.08-.157-.004-.049-.064-.01-.08-.023-.02-.024.05-.166.024-.186-.01-.01-.079.073-.097.05-.02-.025-.043-.26-.079-.416-.033-.152-.069-.263-.073-.309-.004-.043-.273-.81-.338-.996-.063-.186-.113-.386-.133-.479-.02-.093-.033-.283-.043-.263-.01.02-.004.117-.02.113-.014-.004-.063-.342-.08-.396-.013-.053-.096-.235-.116-.366-.02-.132-.063-.478-.093-.714-.03-.235-.043-.332-.043-.391 0-.03.01-.2-.024-.431-.04-.25-.117-.552-.186-.728-.132-.332-.484-1.183-.548-1.394 0-.054.07-.024.07-.024s.172.43.298.763c.123.332.24.625.27.655.023.03.209.356.292.89.083.534.113 1.026.162 1.355.024.156.044.322.093.488.053.18.136.366.245.65.093.24.162.44.2.612.043.22.043.385.07.494.023.093.058.28.142.548.083.269.205.615.288.83.162.432.236.792.26.984.021.197.094.882.075 1.087z" mask="url(#m3qj5kf7eg)"/>
                        <path fill="#BE9C44" fill-rule="nonzero" d="M16.627 2.796l-.01.024s.03.01.023.05c0 .02 0 .097-.01.162-.01.069-.03.122-.033.166 0 .093.014.2-.117.465-.04.073-.063.136-.083.18-.05.106-.06.122-.103.172.07-.04.319-.196.445-.172-.087.05-.22.146-.302.273.02.004.103.02.235 0 .22-.034.465-.113.68-.097.236.014.143-.283.143-.283l-.273-.597-.514-.362-.081.02z" mask="url(#m3qj5kf7eg)"/>
                        <path fill="#A17C34" fill-rule="nonzero" d="M17.967 7.27s-.229-.23-.322-1.016c-.093-.792-.073-1.956-.073-1.956l-.186-.455s-.04-.303-.136-.416c-.097-.112-.29-.302-.376-.395-.087-.093-.186-.22-.245-.24.03-.049.162-.328.67-.332.508-.004.665.28.718.382.053.103.293.548.382 1.394.083.847.087.91.073 1.203-.01.162-.064.538-.156.94-.086.34-.178.719-.349.891z" mask="url(#m3qj5kf7eg)"/>
                        <path fill="#8C6228" fill-rule="nonzero" d="M17.248 7.944s.106.014.22-.049c.072-.004.337.03.541-.23.014.06.05.22-.044.363.05-.05.123-.07.133-.084.004.074.073.3-.22.847.08-.087.173-.083.256-.093.004.103.059.449-.087.635-.097.126-.256.087-.256.087s.004-.044 0-.083c-.004-.054-.023-.107-.01-.143-.02-.01-.102-.043-.205-.142-.172-.162-.396-.44-.411-.645-.02-.23.185-.279.185-.279s-.023-.02-.043-.053c-.01-.034-.02-.087-.06-.13z" mask="url(#m3qj5kf7eg)"/>
                        <path fill="#92723A" fill-rule="nonzero" d="M15.723 5.456s-.01-.013-.064.05c.01-.063.02-.123.024-.18.02-.044.054-.097.097-.146-.03.059-.05.112-.05.112s.074-.136.18-.22c.074-.059.167-.086.206-.142.044-.059.034-.069.044-.079 0 0 .097-.063.245-.249.02-.024.05-.05.07-.073.033-.014.112-.05.205-.097.097-.053.206-.127.273-.156.132-.06.273-.054.338-.147.05-.013.103-.162.093-.288.073.03.449.263.578.773.092.362-.074.92-.143 1.189-.07.269-.079.468-.176.59-.123.163-.518.393-.615.505-.083.093-.332.329-.322.499.01.126.166.195.2.22.033.023.033.053.096.039.064-.014.087-.044.113-.044.03.004.03.01.044.01.013 0 .03-.004.03-.004s-.01.18-.432.235c-.03.004-.06.014-.097.02.05-.023.08-.023.133-.097-.06-.01-.23-.02-.273-.033.014-.024.06-.087.097-.117.033-.03-.004-.04-.034-.024-.014.01-.079.054-.146.113-.05.044-.093.103-.172.156-.024-.079-.02-.23.073-.338-.024.004-.07.073-.113.06-.004-.03-.01-.127.014-.216.024-.09.152-.245.152-.245l.621-1.11.133-.84-1.422.274z" mask="url(#m3qj5kf7eg)"/>
                        <path fill="#B18E3E" fill-rule="nonzero" d="M15.69 5.504s-.034.024.033.07c-.01.013-.034.062-.064.096-.033.04-.069.063-.083.097-.03.07-.053.117-.053.146 0 .03-.01.22-.093.342-.03.044-.063.117-.087.167-.05.087-.093.156-.103.195-.02.07-.033.26-.033.26l.059-.074c-.024.05-.05.103-.087.143.024-.02.093-.07.21-.172.162-.137.415-.366.723-.548-.093.033-.172.033-.235.043.05-.05.494-.571.728-.62.024-.03.02-.064.02-.064l-.2-.02-.406.087-.059-.312-.27.164z" mask="url(#m3qj5kf7eg)"/>
                        <path fill="#543E26" fill-rule="nonzero" d="M16.334 7.284s-.054.053-.103.186c-.014-.014-.06-.063-.097-.133-.073-.122-.186-.279-.449-.19-.004-.083-.01-.126 0-.185.044-.01.176-.117.309-.273.093-.107.18-.23.239-.386.04-.03.107-.08.196-.137.126-.087.279-.205.302-.338-.059.024-.186.083-.375.073.073-.033.186-.069.172-.215l.053-.034s-.024-.01-.07-.01c-.003-.013-.009-.033-.043-.023-.033.01-.04.01-.043.023-.014.004-.06 0-.093.024-.034.024-.127.103-.162.117l.033-.06s-.097.01-.166.04c-.126.044-.273.123-.421.2.014-.024.02-.04.03-.044.01-.004.033-.01.033-.014s-.01-.04-.004-.053c.004-.014.087-.176.157-.269.069-.093.083-.225.083-.225l.302-.153.85-.195.552.033-.069.382-.326.666-.279.607-.318.372-.293.214z" mask="url(#m3qj5kf7eg)"/>
                        <path fill="#806031" fill-rule="nonzero" d="M17.712 5.633s-.332.41-.425.474c.06-.126.425-.88.558-1.09-.03-.023-.07-.023.024-.391-.08.186-.107.283-.172.332-.064.05-.074.034-.117.034.014-.024.01-.05.01-.05s-.28-.033-.469-.033c-.19 0-.568.103-.777.186-.166.069-.26.069-.319.112-.059.05-.093.103-.122.117-.024.014-.137.05-.162.087-.024.04-.064.083-.064.093 0 .01-.01.024.02.014.01-.004.083-.044.166-.093.113-.063.25-.137.348-.18.283-.113.372-.093.499-.117.132-.024.322-.079.449-.079.126-.004.365 0 .42.01-.023.02-.043.043-.033.127 0 .023-.02.049-.04.106-.059.163-.171.431-.235.568-.087.186-.186.342-.235.439-.05.097-.156.352-.263.488-.107.137-.162.22-.196.25-.033.03-.273.205-.255.269.044-.014.318-.117.518-.342.2-.226.24-.362.396-.485.156-.123.279-.328.352-.498.061-.159.047-.208.124-.348z" mask="url(#m3qj5kf7eg)"/>
                        <path fill="#B6903C" fill-rule="nonzero" d="M10.551 8.702s-.043.18-.142.269c-.097.087-.27.162-.29.308-.023.147.173.22.173.22s-.107.176-.107.308c0 .137-.004.163.01.293-.024.014-.04.04-.04.04s.01.126.107.205c.097.08.18.127.23.107.01.02.02.05.02.05s.073-.186.122-.348c.05-.167.093-.143.113-.366.02-.226.235-.607.235-.607l.147-.329-.24-.186-.338.036z" mask="url(#m3qj5kf7eg)"/>
                        <path fill="#685026" fill-rule="nonzero" d="M10.996 9.024s-.073.073-.136.162c-.064.087-.113.167-.206.2-.093.034-.152.034-.146.127.005.093.093.132.142.18.053.05.097.132.073.225.03-.014.083-.03.133-.136.05-.107.395-.758.395-.758h-.255z" mask="url(#m3qj5kf7eg)"/>
                        <path fill="#D4B968" fill-rule="nonzero" d="M12.359 7.523s.03-.079 0-.136c-.03-.06-.21-.08-.299-.147-.093-.069-.206-.116-.299-.087.014-.033.07-.106.024-.122-.043-.014-.206.06-.249.093-.044.033-.142.073-.162.097-.02.023-.054.069-.073.049-.02-.014-.03-.05-.064-.03-.033.02-.195.153-.225.23-.03.077-.097.249-.299.445-.2.196-.289.322-.23.395.06.073.088.02.098.083.004.03.01.107-.01.186-.024.103-.063.2-.01.22.136.043.269-.04.299-.014.059.053-.034.245.106.283.143.04.283-.034.283-.034l.518-.279.499-.263.255-.504-.137-.421-.025-.044z" mask="url(#m3qj5kf7eg)"/>
                        <path fill="#CCA849" fill-rule="nonzero" d="M11.87 8.728s-.087-.133.02-.25c.107-.116.259-.166.318-.239-.02-.024-.043-.03-.043-.03s.053-.106.172-.162c-.03-.03-.07-.053-.113-.053-.097 0-.156.06-.245.06-.087 0-.097-.044-.097-.044s.146-.014.133-.08c-.014-.069-.04-.069-.04-.069s.283-.116.332-.18c.05-.063.044-.136.054-.166.033 0 .23-.103.308-.059.08.043.024.162.024.162s.24-.18.362-.356c.107.01.156-.073.235-.073.097 0 .25.132.279.415.02.162.05.255.02.542-.014.162-.01.508.04.68.033.137.112.123.112.123s-.014.06-.07.107c-.053.05-.058.18-.053.23.01.049.03.106.03.106s-.063.073-.079.123c-.014.05-.08.083-.127.083-.049 0-.023-.004-.087 0-.063.004-.083.014-.122 0-.04-.014-.07-.03-.054-.156.014-.127-.488-.422-.488-.422l-.82-.292z" mask="url(#m3qj5kf7eg)"/>
                        <path fill="#585136" fill-rule="nonzero" d="M10.927 9.978s.18.239.92.239c.351 0 .474-.034.547-.054.08-.02.376-.136.675-.488.269-.318.21-.449.21-.449l-.157-.024-.508.07-1.505.64-.182.066z" mask="url(#m3qj5kf7eg)"/>
                        <path fill="#252211" fill-rule="nonzero" d="M11.479 10.037s-.641.142-.641-.263c0-.396.395-.811.494-.884.103-.073.348-.156.348-.156h.592l.112.298-.049.645-.856.36z" mask="url(#m3qj5kf7eg)"/>
                        <path fill="#C3B378" fill-rule="nonzero" d="M12.07 8.854s-.123-.113-.402.04c-.278.152-.504.468-.518.757-.014.255.21.445.558.455.26.01.415-.02.494-.04-.02-.023-.122-.152-.122-.152l-.01-1.06z" mask="url(#m3qj5kf7eg)"/>
                        <path fill="#E6D89C" fill-rule="nonzero" d="M11.95 8.917s-.03-.023-.117.024c-.074.04-.18.143-.263.216-.054.043-.087.063-.117.097-.123.146-.226.385-.166.504.06.117.255.255.753.162l-.09-1.003z" mask="url(#m3qj5kf7eg)"/>
                        <path fill="#252211" fill-rule="nonzero" d="M11.787 9.163s-.079.122-.079.318c0 .2.113.518.528.542.318.02.532-.459.763-.645.176-.142.283-.146.283-.146s-.18-.196-.66-.449c-.475-.255-1.007-.289-1.296.103.137-.01.578-.123.578-.123l.215.07-.332.33z" mask="url(#m3qj5kf7eg)"/>
                        <path fill="#6F674D" fill-rule="nonzero" d="M12.786 10.094c-.064-.083-.109-.194.154-.222.271-.027.38-.01.47.11.09.123.181.222.046.272-.136.044-.49 0-.67-.16zm-.426-.78s-.09.038-.045-.04c.018-.093.136-.259.426-.22.29.038.226.232.18.287-.045.056-.29.15-.47.11-.181-.038-.09-.137-.09-.137z" mask="url(#m3qj5kf7eg)"/>
                        <path fill="#AC924C" fill-rule="nonzero" d="M6.962 9.27s.156.116.338.112c.18-.004.411-.19.518-.308.063-.07.117-.143.176-.2.05-.05.083-.073.107-.107.033-.04.069-.113.087-.136-.044.033-.107.093-.172.132-.064.04-.2.113-.255.133-.054.02-.608.312-.608.312l-.191.062z" mask="url(#m3qj5kf7eg)"/>
                        <path fill="#9F8E57" fill-rule="nonzero" d="M7.2 7.808s.088-.06.256-.097c.162-.04.488-.07.488-.07l.27.118.106.405-.196.421-.249.156-.283-.454-.391-.479z" mask="url(#m3qj5kf7eg)"/>
                        <path fill="#EAC970" fill-rule="nonzero" d="M6.849 8.17l-.093.07s.024-.044.043-.177c.02-.132.123-.455.273-.64.15-.187.147-.177.147-.177s-.044-.01-.08.02c.02-.043.147-.2.273-.279.127-.079.176-.103.309-.04.132.064.166.098.263.094.097-.004.18-.107.18-.107s.02.063-.053.21c-.074.146-.362.444-.362.444L7.147 8l-.298.17z" mask="url(#m3qj5kf7eg)"/>
                        <path fill="#D7BC6B" fill-rule="nonzero" d="M7.294 7.759s.435.059.567-.064c.004.014.02.014.02.024s-.01.02-.01.02.024-.004.044-.004c.02.004.033.01.053.01.02 0 .044-.004.044-.004s-.004.033-.03.05c.02 0 .04.003.04.019s.004.063-.02.073c-.03.01-.06-.004-.06-.004s0 .054.03.107c.04.073.123.156.235.132 0 0 .06.143-.19.46-.033.043-.069.102-.112.152-.034.079-.04.116-.04.116s.422-.162.542-.532c.123-.372.147-.737.123-1.08-.004-.096-.02-.166-.044-.215-.059-.123-.225-.103-.292-.034-.097.097-.26.338-.485.505-.23.166-.24.195-.415.269z" mask="url(#m3qj5kf7eg)"/>
                        <path fill="#585136" fill-rule="nonzero" d="M6.772 8.293s-.083.049-.127.235c-.043.19.04.421.087.494.05.073.156.273.382.283.05 0 .107-.01.162-.034.08-.033.156-.087.22-.136.096-.073.176-.136.166-.142-.024-.01-.598-.485-.598-.485l-.215-.241-.077.026z" mask="url(#m3qj5kf7eg)"/>
                        <path fill="#453A25" fill-rule="nonzero" d="M7.314 9.08s.116-.01.185-.054c.07-.043-.405-.514-.405-.514l.034.508.186.06z" mask="url(#m3qj5kf7eg)"/>
                        <path fill="#84754B" fill-rule="nonzero" d="M6.81 8.257s-.06.113-.06.142c-.01.097.02.402.043.499.024.103.153.259.319.259.103 0 .245-.064.245-.08 0-.02-.146-.039-.186-.112-.024-.04-.033-.137-.04-.235-.003-.064-.003-.133.02-.157.054-.059.064-.23.064-.23l.19-.351h-.25l-.298.186-.048.079z" mask="url(#m3qj5kf7eg)"/>
                        <path fill="#252211" fill-rule="nonzero" d="M6.736 8.366s.196-.26.372-.319.255-.023.255-.023l-.103.263-.146.162.01.083s-.024.22.122.372c.147.152.255.146.319.146.063 0 .245-.053.338-.273.083-.206.152-.469-.014-.734-.162-.263-.449-.273-.504-.273-.056.002-.49.022-.649.596z" mask="url(#m3qj5kf7eg)"/>
                        <path fill="#F7F7E7" fill-rule="nonzero" d="M11.757 9.246c-.073-.034-.003-.24.07-.303.073-.063.166-.136.328-.146.06-.004.117.033.107.073-.014.073-.117.176-.21.25-.128.1-.211.163-.295.126z" mask="url(#m3qj5kf7eg)"/>
                        <path fill="#F8F6DE" fill-rule="nonzero" d="M7.802 8.124c.053-.004.123.04.137.097.013.064-.034.19-.137.19-.083 0-.127-.103-.127-.132 0-.03.014-.06.02-.07.004-.005.014-.075.107-.085z" mask="url(#m3qj5kf7eg)"/>
                        <path fill="#D4C38B" fill-rule="nonzero" d="M7.03 8.17s-.136.063-.199.196c-.063.132-.05.263-.04.312.01.05.06.172.093.216.034.043.08.073.113.069.034-.004.103-.093.103-.146 0-.054.004-.28.07-.402.057-.122-.14-.245-.14-.245z" mask="url(#m3qj5kf7eg)"/>
                        <path fill="#E2D59D" fill-rule="nonzero" d="M7.05 8.16c-.023.014-.063.034-.053.06.01.023.093.039.123.096.033.06.033.123.023.153.01-.004.04-.02.07-.05.043-.05.097-.117.142-.117.03 0 .06.014.087.014.044 0 .087-.014.093-.06.01-.058-.083-.112-.136-.102.01-.04.023-.097-.02-.136-.044-.04-.18.03-.21.05-.031.019-.118.092-.118.092z" mask="url(#m3qj5kf7eg)"/>
                        <path fill="#CBAC5A" fill-rule="nonzero" d="M10.193 12.315l.293-.087.083.06s.06.126.152.142c-.03.063-.107.117-.103.162.004.046.044.08.044.08s-.263.434.255.873c-.123.05-.279.117-.362.157.06.013.186.04.24.087.053.049.053.063.102.093.05.03.08.069.07.087-.034-.02-.147-.08-.167-.024-.02.053-.488.033-.488.033l-.791.153s.03-.08-.054-.153c-.097-.087-.215.004-.342-.093-.166-.126-.172-.272-.225-.328.053-.033.162-.083.42-.117-.009-.02-.043-.079-.023-.132.024-.07.123-.113.093-.196.044-.01.063-.01.172-.146.103-.137.166-.166.245-.176.08-.01.127 0 .273-.137.103-.097.07-.18.07-.18s.067-.021.043-.158z" mask="url(#m3qj5kf7eg)"/>
                        <path fill="#D6BC6F" fill-rule="nonzero" d="M9.329 12.359c.004-.02.02-.03.126-.02.107.01.784-.063.968-.073.185-.014.84-.004 1.158.063.319.067.641.146.797.186.157.043.206.06.2.079-.004.02-.04.04-.06.034-.019-.004-.537-.163-.697-.196-.16-.034-.714-.123-1.017-.117-.283.004-.395-.004-.635.024-.239.03-.634.07-.753.053-.117-.014-.093-.014-.087-.033z" mask="url(#m3qj5kf7eg)"/>
                        <path fill="#DFC677" fill-rule="nonzero" d="M10.92 13.91s.406.219.553.488c.106.2-.064.298-.064.298s.23 0 .2.127c-.014.079-.395.293-.65.405-.26.113-.25.107-.376.127-.123.02-.46-.04-.528.06-.07.096-.04.199-.02.215.02.014.18.033.18.033s-.034.093-.366.103c-.332.01-.415.034-.435.07-.02.033.063.013.215.039.153.024.366.04.366.04s-.069.059-.249.106c-.206.054-.528.103-.625.163.05.033.123.083.156.087-.083.02-.2.063-.22.079.03.02.07.043.07.043s-.166.2-.263.25c-.097.049-.655.308-.846.258-.479-.126-.538-.65-.655-.69-.176-.06-.26.06-.415-.023.069-.05.106-.08.18-.113-.08-.04-.489-.299-.489-.299s-.05-.113-.142-.273c-.08-.136-.196-.318-.283-.478-.19-.352-.2-.515-.372-.714.03-.04.133-.034.133-.034l1.441.475 2.558.073.664-.95.283.034z" mask="url(#m3qj5kf7eg)"/>
                        <path fill="#C4A859" fill-rule="nonzero" d="M7.134 15.357s.02.024.053.043c.05.034.123.074.172.133.02-.03.07-.083.156 0 .087.083.196.024.263.043.07.024.073.034.073.034s.04-.034.127-.07c.053-.019.117-.033.186-.053.063-.013.132-.033.18-.033.043.03.2.196.827-.05.591-.23.727-.255.826-.22.01-.023.02-.068.172-.062 0-.064-.126-.28-.126-.28l-.698-.239h-.382l-1.145.21-.635.362-.05.182z" mask="url(#m3qj5kf7eg)"/>
                        <path fill="#927D49" fill-rule="nonzero" d="M6.752 14.955s.014.107.172.22c.156.113.206.18.206.18s.03-.04.053-.08c.024-.043.044-.092.083-.106.08-.034.26.03.299.02.033-.01.023-.08.06-.08.082-.003.136.054.165.054.03 0 .103-.004.113-.02.01-.016.014-.18.126-.259.123-.087.273-.05.313-.03 0 .03.004.103.083.107.08.004.087-.01.156.014.07.024.153-.004.19.113.034-.01.113-.02.093-.133.04-.03.073-.049.156-.166.02-.03.054-.063.08-.107.069 0 .152-.013.262.084-.033.023-.053.04-.063.063.01.01.05.05.08.093.029.04.049.087.086.097.083.023.22-.01.372 0 .146.01.27.063.322.097.02-.01.02-.014.07-.004s.087.013.033-.05c.03.014.064.044.093.014.03-.03.054-.073.137-.083.083-.01.112.004.146-.083.044-.107-.107-.107-.107-.107s.07-.063.147-.146c.093-.087.2-.2.225-.338.044-.256-.206-.29-.206-.29l-1.208.373-1.477-.074-1.26.627z" mask="url(#m3qj5kf7eg)"/>
                        <path fill="#6E6342" fill-rule="nonzero" d="M5.666 11.465s-.04.05-.063.166c-.024.117-.014.103-.034.186-.02.083-.263.91-.172 1.188.091.28.25.382.348.608.02.049.04.079.05.122.033.147.004.26.043.406.014.049.05.106.103.166.117.122.309.239.392.322.116.123.282.372.494.396.113.013.273-.034.405-.113.117-.073.19-.176.313-.235.087-.044.18-.06.263-.08.172-.033.328-.04.421-.02.143.03.479.133.665.133.073 0 .245-.01.43-.06.284-.082.626-.225.851-.288.133-.04.24-.05.348-.073.186-.044.343-.103.432-.216-.06-.069-.133-.176-.529-.172-.448.01-.967.26-1.222.299-.255.04-.366.073-.65-.03-.28-.103-.29-.172-.29-.172s-.292-.205-.414-.728c-.123-.524 0-.903.318-1.265.083-.093.063-.176.063-.176s.21-.283.152-.548c-.063-.263-.468-.21-.468-.21l-2.249.394z" mask="url(#m3qj5kf7eg)"/>
                        <path fill="#39331F" fill-rule="nonzero" d="M6.004 12.345s-.03.053-.023.107c.004.053.02.122.18.278.136.137.106.29.106.29s.07.013.255-.074c.147-.07.196.053.196.053s.06-.033.137-.043c.079-.01.122-.04.122-.04s.172.176.323.26c.136.073.215.122.283.073.063-.044.063-.133.059-.172 0 0-.02-.05-.06-.103-.043-.064-.112-.137-.116-.196-.01-.137.103-.299.079-.338-.024-.04-.113-.05-.332.03-.228.075-1.209-.125-1.209-.125z" mask="url(#m3qj5kf7eg)"/>
                        <path fill="#292311" fill-rule="nonzero" d="M6.522 13.229s-.112-.107-.073-.625c.06-.004.143.014.143.014s.061.401-.07.61z" mask="url(#m3qj5kf7eg)"/>
                        <path fill="#252211" fill-rule="nonzero" d="M5.72 11.07s.02-.015.043-.04c-.04.073-.22.366-.073.826.146.46.514.801.967.817.453.016.69-.206.963-.538.107-.132.23-.298.338-.411.162-.176.289-.226.289-.396 0-.348-.356-.504-.88-.66-.524-.156-.997-.137-1.242-.03-.24.117-.342.24-.405.431z" mask="url(#m3qj5kf7eg)"/>
                        <path fill="#3F3824" fill-rule="nonzero" d="M7.403 13.385l.04-.02s.009-.156.072-.152c.064.01.093.093.087.123-.004.03-.02.079-.083.073-.083.002-.116-.024-.116-.024z" mask="url(#m3qj5kf7eg)"/>
                        <path fill="#2D2815" fill-rule="nonzero" d="M7.227 12.72s.04-.013.087.034c.04 0 .21-.02.263.014.053.034.069.063.069.063s-.2.044-.309 0c-.11-.037-.11-.11-.11-.11z" mask="url(#m3qj5kf7eg)"/>
                        <path fill="#82764F" fill-rule="nonzero" d="M8.107 12.75c0-.01-.107-.083-.22-.107-.02-.003-.024.01-.04.01-.01-.004-.013-.033-.013-.033l-.064.033s-.01.014.024.04c.03.024.08.043.093.083.014.04.014.053.02.06.004.003.073 0 .107-.02.033-.022.097-.052.093-.066z" mask="url(#m3qj5kf7eg)"/>
                        <path fill="#2D2816" fill-rule="nonzero" d="M7.108 13.152s.02-.137.152-.143c.137-.01.162.123.162.123l-.079.08c0-.003-.06-.086-.235-.06z" mask="url(#m3qj5kf7eg)"/>
                        <path fill="#574F35" fill-rule="nonzero" d="M7.968 12.564s-.073.08-.235.103c-.014-.02-.044-.06 0-.122.043-.064.093-.083.142-.064.05.01.083.044.093.083z" mask="url(#m3qj5kf7eg)"/>
                        <path fill="#82764F" fill-rule="nonzero" d="M8.316 13.383c.01-.079-.024-.095 0-.134.024-.039.156-.117.18-.078.01.015 0 .078 0 .157 0 .078 0 .156-.024.211-.034.079-.132.118-.18.094-.05-.015-.059-.133-.059-.156.025-.016.083-.055.083-.094zm.834-.847c0-.04.083-.118.131-.118.073 0 .073.094.083.118.025.015.025-.016.049.055.024.078.058.196.034.274-.024.078-.122.133-.146.118-.034-.04-.142-.392-.151-.447z" mask="url(#m3qj5kf7eg)"/>
                        <path fill="#6E6342" fill-rule="nonzero" d="M7.925 12.707s.051.013.122.081c-.024.02-.059.041-.059.041s-.005-.062-.063-.122z" mask="url(#m3qj5kf7eg)"/>
                        <path fill="#585136" fill-rule="nonzero" d="M7.83 12.671c-.026-.017.08-.056.145-.05.064.007.091.033.16.04.07.007.081-.016.108-.033.027-.017.118-.007.134 0 .01.007.026.023.026.023s0-.04.054-.066c.053-.023.107-.023.145-.017.01.023.064.106.053.123-.01.017-.171.04-.198.023.027.04.145.123.16.14.011.016-.117.056-.17.05-.076-.004-.536-.17-.617-.233zm.702-.55s-.01-.024-.054-.04c-.037-.007-.16 0-.16.04s.107.262.225.378c.133.116.224.212.316.238.09.024.144-.016.16-.033.01-.016.038-.14.027-.428-.01-.288-.027-.567-.054-.583-.026-.017-.133-.017-.171.016-.037.033-.278.362-.29.411z" mask="url(#m3qj5kf7eg)"/>
                        <path fill="#574F35" fill-rule="nonzero" d="M7.91 12.956s-.068-.044-.136-.014c-.063.03-.059.146-.059.146s.044.02.087-.01c.044-.03.099-.079.109-.122z" mask="url(#m3qj5kf7eg)"/>
                        <path fill="#82764F" fill-rule="nonzero" d="M8.045 13.112c-.005-.04-.043-.04-.043-.06.004-.019.026-.033.047-.033s.043.024.069.04c.025.014.064.04.068.069.004.03-.043.113-.094.113-.052-.002-.037-.09-.047-.129zm.414-.053s-.086.024-.08 0c.004-.024.026-.03.054-.03.01-.01.032-.024.053-.024.022 0 .033.01.033.01s.057-.023.075-.01c.015.014.004.014.015.03.01.014.025.044.025.06 0 .015-.064.049-.115.043-.06-.012-.05-.07-.06-.08zm.5-.088s.025.014.003.03c-.015.014-.09.04-.154.044-.064 0-.122.01-.122-.01s.053-.06.086-.07c.01-.014.032-.025.053-.025.026 0 .127-.01.155-.014.025-.004.047.01.032.03-.007.015-.054.015-.054.015zm.147-.612s-.032.063-.069.063c-.036-.004-.036-.014-.036-.024 0-.014.036-.05.032-.06-.01 0-.036 0-.032-.023 0-.02.036-.043.069-.04.01-.01.047-.029.085-.029.037 0 .069.01.069.03 0 .02-.043.063-.058.073-.017.016-.038.026-.06.01zm-.489 1.174s-.043.004-.043.026c0 .01.011.01.026.004.01 0 .026-.004.026-.004.004.004.004.025.036.025.015 0 .047-.01.075-.025.026-.011.047-.022.047-.043-.01-.037-.032-.054-.064-.054s-.047.011-.047.011-.01-.021-.047 0-.032.021-.022.032c.02.017.013.028.013.028zm-.242.2c0-.01.054-.03.069-.024.015.004.057.08.057.088 0 .01-.053.034-.075.034-.021 0-.058-.034-.058-.04 0-.004.026-.01.026-.014.007-.01-.02-.034-.02-.044zm-.17-.289c.011-.004.011-.013.026-.023s.032-.004.032-.004.011-.02.037-.024.047 0 .043.01c0 .03.021.05.021.073 0 .024-.015.053-.068.073-.054.014-.127.014-.138.01-.01-.004-.021-.043-.01-.063.008-.022.04-.042.058-.052z" mask="url(#m3qj5kf7eg)"/>
                        <path fill="#6E6342" fill-rule="nonzero" d="M8.308 13.458s-.083.04-.083.06c-.01.02-.01.047-.01.059 0 .012.108-.008.122-.02.005-.008-.03-.079-.03-.099z" mask="url(#m3qj5kf7eg)"/>
                        <path fill="#585136" fill-rule="nonzero" d="M7.958 13.365c.02.004.054 0 .08.01.02.01.033.03.013.054-.02.023-.04.059-.083.053-.05-.004-.097-.03-.097-.05-.004-.023.01-.053.024-.069.02-.015.03-.006.063.002z" mask="url(#m3qj5kf7eg)"/>
                        <path fill="#574F35" fill-rule="nonzero" d="M7.935 13.385s-.064.05-.08.073c-.02.024-.116.147-.146.172.01-.02.034-.05.034-.05s-.06.035-.083.108c-.024.073.132.112.235.142l.142.04s-.059-.087-.097-.18c-.04-.093-.059-.103-.033-.147.02-.043.05-.073.05-.106l-.022-.052z" mask="url(#m3qj5kf7eg)"/>
                        <path fill="#252211" fill-rule="nonzero" d="M5.68 13.541s.014.004.043 0c.03-.004.339-.116.661-.097.142.01.396.03.714.117.405.107.91.319 1.236.44.087.033.172.092.235.116.25.097.26.097.406.122.172.024.348-.033.532-.073.225-.05.61-.073.95-.122.175-.024.321-.073.321-.073s-.268.268-.913.365c-.323.05-.588.034-.787.01-.206-.02-.342-.05-.445-.079-.117-.033-.356-.122-.651-.196-.206-.053-.435-.093-.698-.142-.649-.119-1.353-.255-1.604-.388z" mask="url(#m3qj5kf7eg)"/>
                        <path d="M5.344 11.034L3.696 9.495" mask="url(#m3qj5kf7eg)"/>
                        <path fill="#CFB66C" fill-rule="nonzero" d="M5.344 10.917c-.07-.063-.143-.127-.21-.19-.07-.063-.136-.126-.206-.19l-.205-.196c-.034-.033-.07-.063-.103-.096l-.107-.093c-.273-.26-.548-.519-.817-.778.28.255.552.509.831.768l.097.097c.033.033.07.063.103.096l.205.19c.07.064.137.127.206.196.07.07.137.133.206.196zm-3.623-.04s.992.103 1.477.172c.449.064 1.853.28 1.853.28m-3.33-.452c.278.024.557.054.836.083.143.014.279.03.415.044l.21.024.206.03.83.132.416.07c.136.023.273.049.415.072-.136-.014-.279-.033-.415-.053l-.416-.06-.83-.122c-.07-.01-.137-.024-.206-.034l-.21-.023c-.136-.014-.278-.034-.415-.05-.279-.034-.558-.07-.836-.113zm3.231.71s-1.06.27-1.418.372c-.352.097-1.418.421-1.418.421" mask="url(#m3qj5kf7eg)"/>
                        <path fill="#CFB66C" fill-rule="nonzero" d="M4.952 11.587c-.235.07-.469.137-.708.2l-.708.19c-.235.07-.469.136-.704.206l-.352.097c-.117.033-.235.063-.356.096.117-.04.235-.079.352-.112l.352-.113c.235-.073.469-.142.704-.216.24-.059.475-.122.714-.18.228-.057.467-.114.706-.168zm-2.688 1.446c.117-.043 1.462-.67 1.774-.817.157-.073.612-.235.612-.235" mask="url(#m3qj5kf7eg)"/>
                        <path fill="#CFB66C" fill-rule="nonzero" d="M2.264 13.033c.103-.04.2-.087.3-.132l.292-.137.587-.283c.196-.093.386-.195.588-.283.102-.043.205-.079.308-.112l.156-.05c.054-.014.103-.03.157-.043-.196.093-.402.172-.598.263-.195.097-.395.176-.597.263l-.597.263c-.2.081-.396.168-.596.251zm.131.548s1.218-.714 1.638-.943c.22-.123.93-.475.93-.475" mask="url(#m3qj5kf7eg)"/>
                        <path fill="#CFB66C" fill-rule="nonzero" d="M2.395 13.58c.206-.126.415-.254.625-.385l.312-.19.319-.186c.107-.063.21-.126.318-.185.054-.034.107-.06.162-.083l.167-.084c.22-.106.439-.215.67-.308-.21.132-.425.245-.64.362-.108.06-.216.113-.323.172-.107.06-.21.123-.319.18-.106.063-.21.123-.318.18l-.322.176-.651.352zm2.557-1.26s-.757.58-1.003.766c-.245.186-.967.708-.967.708" mask="url(#m3qj5kf7eg)"/>
                        <path fill="#CFB66C" fill-rule="nonzero" d="M4.952 12.32c-.156.132-.322.258-.484.38l-.489.377c-.166.122-.328.249-.494.371-.166.123-.333.24-.509.352.157-.132.323-.255.489-.375.166-.121.338-.24.498-.362l.489-.376c.168-.123.33-.25.5-.368zm-.864 1.384s.176-.147.395-.353c.273-.255.608-.581.714-.64" mask="url(#m3qj5kf7eg)"/>
                        <path fill="#CFB66C" fill-rule="nonzero" d="M4.088 13.929c.09-.107.186-.211.282-.313l.147-.15c.045-.049.096-.102.141-.155.09-.107.178-.221.268-.33.045-.054.09-.107.14-.155.025-.025.052-.049.083-.066.024-.017.05-.048.086-.053-.02.036-.045.053-.066.085-.024.024-.045.053-.065.077-.045.054-.096.102-.141.15-.096.098-.197.192-.293.294-.096.102-.186.211-.282.313-.104.104-.2.206-.3.303zm1.222-.97s-.666.774-.803.9" mask="url(#m3qj5kf7eg)"/>
                        <path fill="#CFB66C" fill-rule="nonzero" d="M5.67 12.912c-.09.07-.185.133-.281.19l-.297.186c-.095.063-.185.127-.287.19-.105.06-.2.117-.312.172l.288-.186c.096-.063.2-.116.302-.18l.288-.186c.099-.065.195-.128.3-.186zm.046.343s-.111.215-.318.484c-.252.332-.63.748-.794.96M5.3 13.255c0 .073-.02.136-.043.2-.024.063-.05.126-.08.185-.029.06-.063.123-.096.18-.034.06-.073.117-.103.176l-.2.352c-.07.117-.136.236-.21.348.05-.126.117-.245.18-.362.07-.116.133-.235.196-.356.03-.059.06-.122.083-.185.03-.064.06-.123.083-.18.03-.064.054-.123.083-.18.034-.062.062-.121.107-.178z" mask="url(#m3qj5kf7eg)"/>
                        <path fill="#DEC270" fill-rule="nonzero" d="M6.004 14.876s-.195.26-.176.588c.054-.172.12-.435.176-.588zm.186.26s-.069.703-.126 1.05c.08-.4.097-.366.126-1.05zm1.296 1.091s-.293.86-.299 1.1c.063-.246.186-.748.299-1.1z" mask="url(#m3qj5kf7eg)"/>
                        <path fill="#CBAF59" fill-rule="nonzero" d="M8.17 14.823s.475.783.83 1.452c-.096-.337-.318-.954-.83-1.452z" mask="url(#m3qj5kf7eg)"/>
                        <path fill="#E3C677" fill-rule="nonzero" d="M9.446 15.976s.371.64.704 1.422c-.04-.336-.147-.912-.704-1.422z" mask="url(#m3qj5kf7eg)"/>
                        <path fill="#ECD592" fill-rule="nonzero" d="M13.195 17.13c.08-.049.236-.318.372-.385.137-.069.24-.083.362-.22.123-.142.156-.229.425-.341.376-.163.117-.372.117-.372s.063-.064.132-.113c.097-.073.21-.162.2-.318-.014-.263-.063-.645-.279-.867.21-.043.611-.073.86-.136.29-.073.422-.176.422-.176s-.166-.283.103-.568c.269-.283.488-.455.65-.773-.186-.024-.468-.123-1.192.152.053.024.113.064.113.064s-.445.122-.608.259c-.282.239-.318.435-.625.581-.308.146-.615.107-.87.226-.255.116-.292.22-.385.263.02.023-.004.063.033.097-.024.033-.162.259-.302.259.013.053.132.093.132.093s-.087.063-.308.079c.112.116.22.245.514.43-.024.05-.123.123-.083.216.043.093.156.22.607.323-.23.01-.499.063-.86.014-.362-.044-.422-.07-.645-.014.024.023.087.023.142.087-.06.004-.43-.044-.557.122-.133.172-.19.455-.18.645-.07.034-.137.093-.103.216.033.122.21.162.322.239.113.083.123.113.23.093.112-.024.278-.137.375-.137.097 0 .166.074.166.074s.263-.127.29-.103c.023.024.003.176.029.2.025.017.322-.159.401-.208z" mask="url(#m3qj5kf7eg)"/>
                        <path fill="#FFF" fill-rule="nonzero" d="M18.944 9.216c-1.236-3.192-4.291-3.783-4.291-3.783H5.935l.034 3.251h1.736v7.26h-1.77v3.246h8.477c2.043 0 3.68-2.053 3.68-2.053 2.622-3.722.852-7.92.852-7.92zm-4.487 5.733s-.664.96-1.388.96H11.62l-.034-7.217h1.857s.86.18 1.462 1.883c0 0 .797 2.438-.449 4.374z" mask="url(#m3qj5kf7eg)" opacity=".8"/>
                    </g>
                </g>
            </g>
        </g>
    </g>
</svg>
