<svg xmlns="http://www.w3.org/2000/svg" xmlns:xlink="http://www.w3.org/1999/xlink" width="36" height="36" xmlns:v="https://vecta.io/nano"><style><![CDATA[.B{mask:url(#D)}.C{fill:#a88f33}.D{fill:#252211}.E{fill:#585136}.F{fill:#6e6342}.G{fill:#82764f}.H{fill:#574f35}.I{fill-rule:nonzero}]]></style><defs><circle id="A" cx="18" cy="18" r="18"/><circle id="B" cx="18.5" cy="17.5" r="17.5"/><circle id="C" cx="18" cy="18" r="17"/></defs><g fill-rule="evenodd"><g class="I"><use fill="#988430" xlink:href="#A"/><use fill="#7a6a2a" xlink:href="#B"/></g><mask id="D" fill="#fff"><use xlink:href="#C"/></mask><g class="I"><use fill="#ba9f33" xlink:href="#C"/><path fill="#e2cc85" d="M13.587 25.038L13 23.941l.341-1.373 2.434-.929-1.036-2.101.512-2.121.961-1.899 2.969-.462L21.363 13l4.712.352.925 4.979-1.781 6.269-1.015 3.246-4.113.154-1.91-1.308-2.236-.923z" class="B"/><path d="M21 25.189s-.546.253-1.478.195c-.27-.367-2.159-.539-2.159-.539s-.236-.073-.653.102-.817.151-1.188.245-.739-.396-1.024-.498c-.285-.108-.661-.367-.661-.367l-.797-.079-1.599-.685L8.903 21l-.69 1.095L8 23.45l.768 1.605 2.067 1.908L14.867 28l2.39-.714 2.993-1.282.75-.816z" fill="#f1d789" class="B"/><path fill="#f4ecb4" d="M6.315 15.765l.445-1.579.53-1.019L9 13l-.513 1.752-1.429 2.976.593 2.657L6.601 21l-.323-.58-.26-1.33L6 17.596z" class="B"/><path d="M8.341 24.865l-.357-.547s-.095-.26-.041-.487.046-.245.019-.332-.256-.386-.243-.643-.019-.347.155-.553c.183-.2.128-.547.128-.547l.237.161.054-.09s.087.075.087.191c.019-.161-.06-.909.12-1.079s.499.798.499.798l-.196-1.405-.504-1.441-.896-1.316-.054-1.45V16s-.411.694-.526 1.241c-.082.377.114.834.074 1.375-.033.538-.074.496.046.709s.411.652.297.969c-.101.272-.444.081-.444.081s-.068.221-.161.302c-.033-.132-.068-.215-.134-.296-.005.051-.019.12-.019.12l-.12-.466-.248-1.05-.114.568.046.658.223.903.215.592.21.724.183.487.147.371.128.834.619.718.33.161.24-.135h0z" fill="#f3e19d" class="B"/><path d="M6.576 14.965s-.337.845-.434 1.695-.184 1.75-.122 2.909c.062 1.168.18 1.884.275 2.397.163.851.586 2.034.586 2.034l.014-.046s-.111-.302-.169-.625l-.128-.881c-.045-.174-.122-.323-.159-.537-.035-.204-.041-.527-.149-.768-.045-.098-.101-.354-.118-.61l-.014-1.168-.035-1.296c.041-.308.256-1.183.388-1.878.087-.445.035-.82.194-1.207s.256-.723.291-.957c.041-.213-.421.939-.421.939h0z" fill="#f2e8b0" class="B"/><path d="M8.413 14s-.215.07-.318.194c-.102.118-.146.217-.284.416s-.146.363-.259.613c-.113.245-.361.613-.392.745s-.082.751-.146 1.043c-.056.292.064.652.064.652l.146-.034s0 .208.146.349.172-.467.172-.467l.546-2.022.822-.613.09-.495L8.413 14h0z" fill="#f5eec0" class="B"/><path d="M8.854 15.249s-.487.029-.726.185c-.097.064-.136.116-.239.194-.19.142-.384.272-.478.457-.103.185-.216.466-.294.996-.032.223-.032.428-.055.608-.032.243-.081.437-.055.573.032.278.352.423.384.738l.662-.301.623-2.203L10 15.753 9.251 15l-.397.249h0z" fill="#e6db9d" class="B"/><path d="M9.77 34.936L7.306 35 6 34.892l.1-1.285c.046-.152.199-.584.245-.663.032-.117.073-.412-.019-.774.059-.102.245-.158.452-2.172l.154-1.676c.086-.505.145-.692.132-.882-.019-.304-.04-.526-.013-.759.04-.309.32-.677.312-.931-.005-.201-.1-.333-.18-.455l-.145-.225s.552-.412.547-2.07c.019.006.032.015.032.015l.272.838.186.245.714 1.442.918.966 1.357.99.851 1.004.086 2.677-1.112 1.565-1.118 2.193h0z" fill="#e5cb7a" class="B"/><path d="M10 32.762s.02-.332.292-.548c.043.073.072.143.064.195.049-.087.393-.647 1.172-.793s.966-.714.966-.714l1.652-1.513 1.889-1.752 2.297-.813 1.073-.265s.02.079-.02.254c.2-.015.642-.117 1.102-.28.185-.073.359-.102.451-.006.136.128.156.431.165.612.223-.05.48-.265.686-.245.33.035.622.426.958.426.443 0 .642-.274.952-.49l.602-.396c.359-.265 4.154-1.434 4.154-1.434l1.331.087.214 1.44-.116 3.783-6.093 3.206L14.186 35l-3.911-1.008-.275-1.23h0z" fill="#d8c173" class="B"/><path d="M6 34.939s.356-.8.523-1.957c.138-.946.015-1.162.05-1.466.05-.456.568-1.343.612-1.516.035.353.138 1.688.509 1.986-.079.117-.212.52.262.829-.079.166-.241.368-.138.672s.226.736.168 1.212c-.168.035-.35.108-.494.245-.144.129-1.491-.006-1.491-.006z" fill="#f1d789" class="B"/><path d="M11.188 34.325l2.204-.607.096.03s.051.03.051.13c.141-.08.26-.065.347-.118.045.095.09.408.287.447.206.044.428-.089.652-.257.221-.175.472-.393.664-.482.036.059.126.243.185.393.251-.198.688-1.003 1.31-.988a2.34 2.34 0 0 1 .864-1.033c.577-.388.939-.417 1.391-.382.176-.228.407-.432.652-.577.075.03.281.154.538.036s.553-.577.939-.636c.341-.05.598.124.598.124s1.124-1.104 1.899-1.47c-.03-.089-.09-.423.819-1.163.051.044.015.169.051.175.015 0 .236-.095.517-.308.347-.257.763-.527 1.014-.601.472-.139.975.145.975.145s.06-.044.141-.065l.272-.059c-.006.154.081.417 0 .645a1.46 1.46 0 0 0 .296.124c-.051.109-.161.388-.347.521.155.074.176.16.398.234-.09.124-.236.337-.302.467l-.407.935-.332.701c-.075.08-.332.423-.532.592.176-.065.903-.284 1.211-.367l-1.899 2.787-3.451 1.018-1.693.284-8.818-.006-.777-.382.188-.287h0z" fill="#e0cd81" class="B"/><path d="M9.293 15.697s-.241 0-.288.034.241.105.33.139.28.19.33.315c.047.119 1.733.815 1.733.815l1.192-.062.41-.582-.782-.701.549-1.655-.726.119-1.747 1.067-.876.343-.125.167z" fill="#dfc57c" class="B"/><path d="M12.003 15.533s.058.087.2.087c.302 0 .581.06.696.183.194.197.73.825.73.825l1.284.372.085-1.216L13.597 15 12 15.473v.06h.003z" fill="#e5cc7c" class="B"/><path d="M11.652 16.309s.197.014.446-.078.658-.291.835-.213c.249.107.197.441.466.741.163.185.461.179.629.378s.75.107.75.107L15 18.44l-.884 1.142L13.827 21h-1.196l-1.093-.435L11 19.253l.269-1.326.383-1.618h0z" fill="#d2c281" class="B"/><path d="M14.037 15.979a.39.39 0 0 0 .108.016c-.04.033-.125.105-.091.293s.141.425.051.57c.04.049.101.105.158.27s.074.309.448.333c-.084.049-.148.115-.148.115s.259.221.391.425c.135-.007.492-.115.492-.115l.074.049.158-.066s-.148-.056-.04-.408c.101-.309.192-.293.199-.316s.074-.349.074-.481c.051-.171.091-.691.091-.691l-.108-1.149-.606-.359-.492-.464-.465.856-.306.3-.024.741.037.082h0z" fill="#e2c270" class="B"/><path d="M15 15.554s.094.262.129.464c.021-.063.021-.121.021-.121l.088.562c.029-.006.059-.014.065.014s.074.349.059.527a1.45 1.45 0 0 1 .494-.484c.118-.072.256-.15.4-.156.226-.006.391.141.662.141.653 0 1.244-.47 1.679-.614.321-.107.597-.184.791-.357.094-.078.262-.251.415-.507.203-.343.415-.64.626-.677-.168.029-.291.02-.291.02s.065-.063.174-.15.241-.193.429-.193c.335 0 .503.049.691.049.188-.006.297-.049.297-.049s.197.135.641.135c.444.006.741.043.974.063s1.012-.063 1.235-.058c.232.006.421.101.421.101l-.721-2.051L21.691 10l-1.541 1.069-2.371 2.322-2.294.833-.479.527v.804H15z" fill="#ccb360" class="B"/><path d="M20.981 14.511s.067-.059.179-.14.249-.18.443-.18c.346 0 .519.046.714.046.194-.005.307-.046.307-.046s.203.126.662.126l1.005.059c.24.019 1.045-.059 1.275-.054a1.23 1.23 0 0 1 .434.094l-.337-.862-.392-.658-1.117-1.082-1.351-.703c-.006-.005-.465-.113-.465-.113l-1.215.65-1.102 2.521-.021.532.714.298c.179-.266.377-.478.562-.505l-.295.016h0z" fill="#d5b457" class="B"/><path d="M20 14.342c-.099.005-.18-.012-.203-.074-.085-.207-.152-.236-.223-.236s-.166.133-.223.145-.124-.153-.124-.153L19.166 14s-.363.207-.62.451-.676.658-.865.732-.837.099-1.059.14-.468.182-.502.214.099.067.118.099-.217.017-.237.049c-.014.025.056.165.09.236.062-.025.124-.042.194-.042.217-.005.375.121.634.121.626 0 1.192-.401 1.609-.525.307-.091.572-.158.758-.305.09-.067.251-.214.397-.433.107-.15.211-.291.316-.394h0z" fill="#d2b257" class="B"/><path d="M11.255 29.007s-.062-.212-.628-.759l-.368-.375c-.269-.235-.427-.298-.619-.432-.421-.289-.879-.289-1.232-.644s-.764-1.034-1.049-1.726L7 24.137c0-.02.077-.155.176-.135s.099.198.124.24a1.44 1.44 0 0 0 .167.198c.145.155.353.341.458.616-.022-.235-.108-.495-.108-.495l1.009.65c.467.332.659.447.795.658l.613.933c.155.163 2.265.779 2.265.779l1.003.693.498 1.011-.39.567-.749.149-1.216-.504-.39-.49z" fill="#d2b159" class="B"/><path d="M9 25.795s.244.36.839.702c.536.3 1.384.572 2.14.735.435.096.869.171 1.259.176 1.051.014 1.774-.264 2.67-.355.485-.047 1.081-.083 1.7-.217.795-.176 1.265-.374 1.905-.652l1.235-.536c.485-.264.839-.558 1.25-.646-.051.129-.104.36-.509.6L22 25.58s-.286.157-.789.509c-.31.217-.72.586-1.14.831-.271.157-.566.272-.759.366-.47.239-.661.36-.97.652.11-.006.119 0 .119 0s-.39.047-.67.184c-.06 0-.161-.019-.339.028-.14.041-.324.135-.515.184-.271.074-.36.041-.36.041l.045.083s-.354-.006-.47.006c.021.006.015.014.015.014s-.015 0-.06.019c-.036.019-.095.055-.185.074l-.11.014c.015.033.131.217.185.327-.045.028-.714.495-.714.495s.03.041.051.096c.021.061.03.149.051.19.051.083.08.096.08.096l-.22.047c-.119.028-.265.074-.47.102l-.191.014c.03.061.161.292-.08.558s-.316.305-.39.476c-.021-.014-.06-.041-.119-.069-.08-.033-.191-.083-.229-.149-.006.028-.036.135-.089.259-.074.184-.185.366-.205.503-.08-.083-.229-.245-.435-.212s-.369.292-.405.366c0-.047-.036-.083-.045-.028-.006.061-.119.693-.75 1.205l-.021-.509c-.06.055-.131.135-.56.305-.42.171-.354.341-.354.341s-.036-.272.191-.558l.369-.443c0-.006-.006-.033-.03-.061-.03-.028-.089-.061-.089-.083.036-.014.39-.171.369-.495-.021-.292-.155-.443-.25-.55-.015-.014.14-.116.119-.149-.015-.019-.205-.149-.229-.217.006-.033.015-.088.03-.121.021-.061.036-.102.03-.143-.015-.069-.095-.259-.119-.278.021.006.17 0 .17 0s-.119-.176-.14-.259l-.089-.341c.051.006.176.014.176 0 .006-.041-.11-.11-.06-.162.036.006.104.033.17.11-.036-.088-.095-.259-.22-.327.06-.019.259-.069.435.028s.235.231.235.231l.265.184c.185.135.42.327.795.462.08.041.286.041.435.014.089-.019.14-.047.185-.069.036-.019.065-.028.065-.028s-.06-.11-.11-.171c.051 0 .11.006.11.006s.036-.074-.125-.217c.036-.033.08-.055.08-.11-.051-.006-.14-.074-.161-.102.03-.019.074-.083.125-.102-.045-.033-.155-.171-.205-.184.051-.014.14-.061.14-.061s-.25-.061-.33-.11c-.08-.055-.199-.149-.271-.176s-.205-.041-.259-.096c.051.014.131 0 .191 0 .045 0 .065.006.08.006-.006-.019-.006-.061.11-.074.11-.019.161-.047.161-.047s-.11-.006-.235-.116-.229-.198-.301-.212-.214.047-.301.041c-.119-.014-.17-.069-.17-.069s-.396.033-1.274-.462c-.759-.429-1.09-.809-1.09-.809s-.089-.028-.205-.088c-.286-.138-.682-.424-.67-.798h0z" fill="#c2a44d" class="B"/><path d="M19.098 7.382a.37.37 0 0 0 .17.119c.135.16.221.462-.086.785.121.044.17.059.276.044-.106.13-.348.409-.362.652-.014.199.106.258.106.258s-.184.219-.193.587a2.32 2.32 0 0 1 .285-.279c.213-.175.506-.373.704-.498-.006.08.02.154.02.154s.371-.314.681-.175c.141.065.078.27.078.27s.193-.074.328.065.328.498.425.637c.043.065.155.19.27.382.135.228.285.542.391.851.006-.154.043-.394.469-.243s.908.477 1.314 1.114.506 1.354.71 1.627c.207.264.42.702.434.886s-.063.777.362 2.38c.121-.498.305-1.603.305-1.603l.101-.975.115-3.017-3.056-2.617L20.555 7 19 7.154l.098.228h0z" fill="#caa13e" class="B"/><path d="M24.839 12s-.042-.295-.741-.794c-.699-.494-1.245-.494-1.749-.913-.386-.33-.789-1.089-1.052-1.339-.255-.247-.297-.961-.297-.961l.859-.765 1.279-1.964L24.218 4l.518.765.719.898.4 1.803.145 2.639L24.839 12h0z" fill="#b59544" class="B"/><path d="M26.019 15.792s.051-.592-.147-1.22-.631-1.745-.833-2.162c-.081-.463-.021-.5.066-.552s.415-.242.595-.911.737-.69.737-.69l.343-.258.52 1.328.454 1.199.141.917.105.782-.247 1.653L26.536 17l-.517-1.208h0z" fill="#c89d3a" class="B"/><path d="M9.388 34.876s-.256-.577-.27-.824c-.006-.237.07-.391.07-.391s-.098-.179-.188-.22c.02-.12.056-.264.132-.364.076-.11.222-.254.25-.306s.042-.12.124-.137.174-.017.174-.151v-.247s.034-.024.062-.069c.02-.034.034-.076.048-.086a.44.44 0 0 1 .23-.052c.07.017.256.11.354.103.202-.007.438-.196.812-.11.562.127.694.594 1.02.858.222.185.453.103.486.103h.076c.014 0 .118-.144.174-.137.112.007.124.12.194.127.166.024.486-.103.646-.052.076.024.174.12.202.247.034.127.006.288-.076.381-.174.196-.34.381-.374.543.048.041.132.137.132.137s-.076.086-.216.168c-.062.034-.16.093-.27.11-.208.024-.467.058-.618.33s-.675.12-.675.12l-2.501-.082h0z" fill="#ceb052" class="B"/><path d="M25 27l.579-.912c.149-.311-.471-4.253-.471-4.253l1.246-4.341-.033-1.413s.061-1.304.204-1.87c.171.325.703.718.819.926.055-.399.24-1.24.212-2.137.102.167.347 1.847.347 1.847l.245 1.131.32 1.202.356 1.269.212.876.121.211.102.369.096.399.278.935.163.768.13 1.392a2.24 2.24 0 0 0 .061.325c.006.152-.019.24-.019.267s.047.334.028.566c-.028.232-.028.413-.198.58s-.278 1.161-.278 1.161l-.306-.217s.061-.296-.083-.566a.53.53 0 0 0-.579-.281c-.157.035-.471.088-.573.182-.096.094-.334.384-.551.516-.273.173-.717.188-.954.246s-.504.232-.783.434c-.289.199-.582.343-.689.387h0z" fill="#cca847" class="B"/><path d="M25 33.15s.266.172.756.29 1.741.828 1.741.828l1.053.635 1.3.097 1.141-.157s.037-.478-.037-2.258l-.135-2.173-.098-2.893c-.052-.493-.015-.995-.031-1.285a18.42 18.42 0 0 0-.257-1.777c-.083-.305-.242-.456-.266-.456-.021.006-.15.574-.15.716s-.031.487-.031.574c-.021-.006-.031-.06-.031-.082l-.083.224c-.015.015.021-.127 0-.157s-.061-.015-.052-.091.021-.133.021-.133-.092.133-.159.472l-.092.375c-.021.036-.144.157-.15.203-.006.082.113.163.122.209.006.076-.107.426-.144.599s-.021.508-.061.68c-.031.157-.061.248-.165.314l.15.036s.107.447-.165.828c-.098.133-.122.193-.226.314-.205.224-.364.478-.379.644-.015-.06-.021-.148-.021-.148l-.453.574c-.174.269-.416.254-.483.32s-.083.187-.061.284c-.061.015-.174.036-.251.269-.037.121-.129.239-.272.32s-.318.106-.407.127c.076.021.107.021.144.045-.046.076-.257.193-.493.345a1.02 1.02 0 0 0-.407.487c-.061.127-.15.209-.294.224.061.036.15.121.196.148-.067.015-.181.015-.386.187-.214.175-.288.227-.386.242h0z" fill="#c39d3c" class="B"/><path d="M21 34.739s.176-.26.617-.422c.442-.168.909-.2 1.093-.254.176-.054.314-.127.532-.168-.02.16-.028.287-.076.395.161.027.566-.273.784-.341l.756-.2c.042-.032.133-.227.161-.235s.105.041.153.041c.091 0 .728-.563 1.231-.555.498.005 1.064.4.98.755.133-.073.272-.141.385-.114-.014.046-.02.1-.02.1s.272-.06.343.027c.076.087.034.168.218.373.147.173.105.214.076.273a2.01 2.01 0 0 1 .742.422c.323.287-2.576.108-2.576.108l-5.348-.046-.051-.16h0z" fill="#d2ba6b" class="B"/><path d="M30 22.367s-.098.497-.273.811-.365.748-.365.748 0-.155.037-.29l-.912.541c-.144.121-.387.334-.448.434l.319-.917c-.221.15-1.253.946-1.79 1.472l-1.673 1.268s-.258.135-.593.262l-.881.305c.068-.17.175-.319.325-.463.16-.141.639-.627.712-.854.068-.236.083-.377-.006-.575-.083.02-.273.029-.402.063s-.267.164-.267.164.098-.526.31-1.024c-.16.006-.433.049-.433.049s.381-.598 1.032-1.015a3.53 3.53 0 0 0-.583.17L23 24.006c.175-.227 1.403-1.869 2.134-3.399s1.001-1.918 1.161-2.738c.083-.405.061-1.004.083-1.541.021-.532.092-1.009.046-1.329.19.221.903.845.927 2.24s-.682 3.278-1.428 4.293c.181.049.654.106 1.139-.682s.479-1.009.654-1.337c.021.164.015.221.015.221s.706-.802 1.041-1.812c.068.434.267.817-.046 1.613-.279.719-.645.894-.645.894s.181-.029.448-.178c.046.106.037.227.114.27s.181.115.196.184c.083-.115.212-.262.252-.371-.031.227-.052 1.222.061 1.728.236-.02.479-.035.645-.434-.114.391-.114.627-.037.96.126-.081.239-.224.239-.224h0z" fill="#c0993a" class="B"/><path d="M21.827 7.055s-.238.145-.644.145c-.353 0-.254-.2-.804-.2-.848 0-3.809.718-4.329.709-.337-.009 1.139.214 1.139.214L20.96 8l.758-.091.282-.841-.173-.014h0z" class="B C"/><path d="M13.202 13.591s-.471.32-.671.564-.305.406-.532.604c.076.005.157-.019.157-.019s0 .054-.036.067c.076-.005.133.019.172.054-.066.032-.248.193-.106.384.106.145.329.158.329.158s-.051.132.163.118c.462-.019.979-.199 1.218-.153.239.054.375.073.544.333.178.258.335.298.335.298s.106-.239.082-.596c.142-.306.142-.604.142-.604l-.157-1.029-.686-.771-.888.438-.066.153h0z" fill="#e3c571" class="B"/><path d="M14 13.726s.061.162.317.178c-.028.069-.028.078-.019.131l.014.131s.033-.016.075-.062c.014.069-.014.178 0 .255a.61.61 0 0 0 .042.137s.006-.016.014-.031.056.168.192.308c0-.037.014-.062.014-.062s0 .053.033.109c-.014-.006-.028-.022-.028-.022s.014.492.089.748c.019-.031.028-.037.033-.053 0-.016-.006.137-.019.246-.019.109-.006.262-.006.262s.075-.069.164-.109c.083-.037.22-.153.303-.408s.111-.445.111-.445.047.1.056.184c.006.078.136.037.136.037l.028-.34.164-.769.15-.477.724-1.262 1.308-1.125 1.141.293.963-1.464L18.341 9l-1.57.184-1.425 2.209-1.141 2.003-.206.33h0z" fill="#d8b65b" class="B"/><path d="M22 10.824s-.103.02-.398.172-.501.201-.615.425-.123.401-.123.401.202-.087.319-.116c.123-.029.261-.02.246.029-.015.044-.059.093-.059.093s.231-.006.226.108-.044.238-.088.294-.226.143-.246.209c-.05.137.021.143-.006.253-.021.108-.117.317-.433.683-.325.366-.463.625-.463.625s-.158-.294-.24-.547l-.369.201-.72-2.492.015-.166s.064-.079.079-.224c-.108-.035-.123-.064-.267-.201s-.261-.302-.501-.416c-.035-.064-.079-.151-.255-.186l-.281-.064s.094-.035.138-.108c-.108.015-.196.049-.433.044s-.267-.015-.398.006-.29.079-.349-.122c-.064-.049-.202-.006-.319.166s-.158.308-.384.375c-.006.044-.029.157-.103.279-.064.108-.167.215-.305.375-.217.253-.182.669-.527.986s.059-.878.059-.878l.556-1.323 1.584-1.539L19.801 8l.24 1.265 1.201.41.759 1.149h0z" fill="#d3ae4d" class="B"/><path d="M22.734 11.158l-.893-1.509-.625-.563-.476-.99c-.025-.021-.445-.074-.713-.095l.051.145s.089.03.149.119c.119.16.195.463-.076.786.106.044.149.059.243.044-.094.13-.306.409-.319.652-.013.199.094.258.094.258s-.162.219-.169.587a2.2 2.2 0 0 1 .25-.279c.187-.175.445-.374.62-.498a.49.49 0 0 0 .018.154s.326-.314.599-.175c.124.065.068.27.068.27s.169-.074.288.065.288.498.374.638c.038.065.137.19.238.383A5.25 5.25 0 0 1 22.8 12c.005-.119.025-.285.2-.285l-.266-.557z" fill="#caa13e" class="B"/><path d="M7.027 15s-.06-.171 0-.506.154-.492.185-.984.31-1.106.31-1.106L8.293 12l.546.171.161.841-.69.437s-.036.185-.231.335-.464.265-.529.418c-.065.158-.084.293-.084.293s-.197-.047-.315.102c-.125.152-.12.288-.125.404h0z" fill="#f4efc8" class="B"/><path d="M8.788 14.552s-.087.051-.151.178c-.064-.096-.216-.668-.222-1.183s-.039-.641.087-.818.628-.364.557-.683c-.071-.304-.367-.43-.731-.343-.254.06-.444.566-.708.818-.2.193-.438.162-.502.268-.087.141-.006.283-.032.373-.006.03-.087.193-.232.388-.293.394-.789.951-.853 1.45.023-.283.006-.289.087-.602l-.048-.075.319-.975.206-.803.46-1.345.811-1.375L8.624 9l.821.051.097 1.152.47 2.163.988 1.137-1.584.996-.628.051h0z" fill="#ebcc73" class="B"/><path d="M9.543 14.983s-.114.033-.155.007-.082-.057-.068-.09.087-.09.087-.117-.005-.09-.068-.1-.082.04-.082.04-.06-.057-.109-.067c.041-.007.087-.007.087-.007s-.114-.067-.236-.084c.068-.05.201-.198.288-.198s.141-.017.128-.074a.31.31 0 0 0-.155-.174c.027-.04.046-.1-.019-.264s-.041-.275-.019-.315c.019-.05.087-.141.12-.198s.06-.134.114-.174a1.25 1.25 0 0 1 .201-.107c.095-.04.174-.09.228-.04.06.05.033.117.033.117s.188-.084.356.023c.168.1.579.164.579.164l.147.365-.973 1.028-.402.248-.082.017h0z" fill="#e5c66b" class="B"/><path d="M10.575 13.371s-.354.241-.434.328c.048.007.128.039.096.088-.038.049-.268.218-.395.377-.134.159-.261.361-.306.459A1.62 1.62 0 0 1 9 15c.261 0 .788-.328.985-.328-.006.098.054.208.166.218s.434.072.867-.202c.434-.267.29-.465.472-.595.348-.234.488-.442.679-.572s.29-.159.29-.159.006-.098.064-.088.07.055.07.055.332-.241.756-.306c-.016-.007-.022-.023-.022-.023s.032-.016.038-.033c0 0 .022-.033.038-.016s.038.137.07.185c.07-.033.204-.338.204-.338l.322-.94V11l-.252.049-1.891.82-1.148 1.213-.134.289h0z" fill="#e6bd62" class="B"/><path d="M15.695 9.6s.174-.033.305-.103c-.04.089-.04.186-.215.397s-.181.241-.322.461c-.141.228-.158.555-.292.7.107-.042.191-.047.191-.047s-.134.097-.191.2-.158.316-.406.447-.564.214-.903.522L13 13c.091-.13.215-.391.248-.563s-.007-.378.05-.605.057-.391.332-.788.745-1.777.745-1.777L15.389 9l.305.6h0z" fill="#b6933f" class="B"/><path d="M15.424 9.636s-.276.346-.352.653-.006.28-.052.431 0 .28 0 .28.121-.19.383-.328.474-.235.601-.352c.128-.124.234-.328.51-.484-.112-.013-.27-.058-.301-.053.112-.111.449-.28.789-.484.337-.209.316-.293.862-.502-.179.026-.264-.013-.413 0 .061-.111.27-.164.48-.346S17.799 8 17.799 8l-1.6.843-.774.793h0z" fill="#c49937" class="B"/><path fill="#dfc068" d="M11 8.839l.034-.281.433-.708.453-1.243V4.909l-.034-.982.072-.643.055-.205L12.07 3l.37.196.511.708L13 5.269l-.496 2.155L11.086 9z" class="B"/><path d="M11.969 3.008s-.239.006-.29.962l-.112 1.933c-.036.474-.121.762-.163 1.041s-.066.66-.202.892c-.06.108-.187.445-.486.698a3.04 3.04 0 0 1-.912.488c-.133.029-.806.093-1.081.238-.097.049-.263.108-.447.273-.365.317-.851.884-1.202 1.567C6.537 12.12 6 15 6 15l.121-.195s.015-.259.284-.712c.263-.453.187-.962.552-1.831l.537-1.128c.344-.596.761-1.107 1.18-1.386.685-.453 1.44-.552 1.44-.552l.812-.517.329-.567c.263-.424.598-.898.67-1.587.112-1.02-.157-1.689-.142-2.293s.021-1.049.148-1.157.036-.067.036-.067h0z" class="B C"/><path d="M12.082 8s.357-.921.519-1.738l.105-.46c.075-.773.096-1.091 0-1.514-.075-.312-.363-.593-.513-.811-.147-.227-.216-.312-.186-.36s.147-.126.261-.117a.87.87 0 0 1 .638.312c.231.281.414 1.233.414 1.233l.192 1.255L14 7.385 12.082 8z" fill="#c99e3d" class="B"/><path d="M16 6.698s-.07.03-.197 0a.26.26 0 0 1-.127.251c-.134-.051-1.384.051-1.384.051s-.582-.096-.764-.82c-.127-.482.095-1.146.022-1.583-.111-.643-.267-.769-.283-.969l-.032-.377c-.07-.015-.111-.036-.181-.036-.016-.06.016-.111-.054-.215.038.015.299.045.604.317.251.221.251.302.29.347.048.045.433.356.598.664s.487 1.295.56 1.457c.022.066.07.132.188.281.185.215.455.571.76.631h0z" fill="#b58634" class="B"/><path d="M14 4a8.84 8.84 0 0 1 .492.957c.178.419.284.762.508 1.043l-.462-1.339c-.142-.271-.432-.561-.538-.661z" class="B C"/><path d="M11.824 9s-.278.068-.796.338l-.49.229a8.54 8.54 0 0 1-1.193.445l.041.046s0 .134.074.21c-.041.041-.592.412-.43 1.653l.259-.095c.033.005.041.095.083.095s.176-.055.32-.237c-.006.074-.088.816.355 1.315.083-.095.292-.412.292-.412l.006-.101s.019-.352.135-.674.342-.559.342-.559L12 9.587 11.824 9h0z" fill="#e6c367" class="B"/><path d="M10.197 11.617s-.085.071-.181.103c-.02-.081-.048-.358.119-.628.196-.325.624-.747.743-1.082.077-.216.043-.757.723-1.45l.947-.931 1.1-.628L15 7.606l-.672 2.993L13.806 12l-2.076-.445-1.534.061h0z" fill="#dcba5a" class="B"/><path d="M11 9.916l.305-.339v-.241s.338-.08.703-.41.871-.963 1.316-.925c.445.045.489.859.506 1.088s.074.749.164 1.029c.1.279-1.085 1.338-1.085 1.338l-.804.544L11 9.916h0z" fill="#e9ce77" class="B"/><path d="M12 13s.208-.351.056-.427c.09-.218.255-.448.255-.448s.118-.315.5-.702.618-.645.679-.905.062-.518.062-.518a.93.93 0 0 0 .132.097c.062.03.354.291.312.814s-.222.742-.222.742-.174.188-.298.285c-.132.097-.18.209-.401.218.034-.03.076-.045.076-.045s-.23-.03-.354.091-.387.493-.519.605L12 13h0z" fill="#cdae50" class="B"/><path d="M22 7.742s-.477-.174-1.111-.196-1.561.014-2.47.019c-.978.005-1.866-.302-3.098-.357-.202-.109-.716-.586-2.322.425.097-.005 1.165-.223 1.537.196s.269 1.125.217 1.294c-.097.376-.411.924-.537 1.308s-.097.586-.187.855-.29.403-.172.714c.157-.087.239-.087.501-.618s.208-.91.643-1.36c.426-.452 1.135-1.071 1.404-1.226s2.409-1.158 4.649-.202c.54-.052.945-.853.945-.853z" fill="#d2a83e" class="B"/><path d="M14 7.256s-.007-.051-.016-.065c-.039-.074-.088-.119-.088-.119s-.577-.095-.869-.065c-.511.051-.973.625-1.19.92s-.485.75-.777.985c.007-.036-.016-.065-.016-.065s.016.021-.016.051-.033.045-.016.06L11.06 9c.016 0 .469-.185 1.085-.705.656-.545 1.157-.824 1.419-.92.2-.083.436-.119.436-.119h0z" fill="#c29637" class="B"/><path d="M24 5l-.2.234-.844.859-.885.893-.81.921c-.089.122-.158.323-.158.426L21 8.262a.71.71 0 0 0 .083.122l.233.295a.9.9 0 0 1 .144.317c.033.006.247.047.513-.392l.616-.921.555-.826.35-.701.438-.784L24 5h0z" fill="#ac8132" class="B"/><path d="M24 4s-.371.265-.515.424L23 5l.123-.013.623-.483.242-.378L24 4h0z" class="B C"/><path d="M25 27s-.005-.223.113-.357.425-.33.722-1.065l.33-.902s-.532.485-.86.599l.159-.376c-.044-.041-.228-.087-.246-.109.102-.109.159-.376.366-.553l1.131-.916c.379-.33 1.121-1.098 1.216-1.322a.51.51 0 0 1 .069.142l-.568.847c-.171.283-.159.444-.159.444l.353-.161s.102.403-.361 1.016c.202-.082.284-.033.399-.101-.189.128-.451.302-.696.782-.241.48-.568 1.038-1.121 1.387L25 27h0z" fill="#a67a2e" class="B"/><path d="M23.174 7.198s-.25.543-.286.966c-.006.102-.03.181-.03.299-.006.378.021.801-.061.997-.03-.079-.046-.133-.076-.165-.046.133-.128.55-.195.705-.03-.102-.098-.454-.091-.87l.015-.581c-.015.127-.098.299-.128.4l-.158-.289c-.037.064-.082.156-.122.203-.006-.038-.021-.14-.03-.283l-.006-.422c.015-.086.143-.422.414-.731.323-.368.655-1.077.753-1.296L23.683 5H24l-.46 1.093-.421.816c-.143.219-.445.848-.579 1.093.098-.133.18-.203.277-.33.094-.089.357-.473.357-.473h0z" fill="#8c6228" class="B"/><path d="M23.943 4s-.04.232-.156.461c-.123.238-.386.557-.514.812-.117.248-.352.925-.245 1.727.04-.174.113-.519.308-.909s.405-.838.508-1.186.117-.628.117-.628l.04-.081-.024-.184L23.943 4z" fill="#cba94c" class="B"/><path d="M30.995 24s-.128-.322-.167-.615.064-.352-.055-.686c-.071-.204-.199-.174-.231-.204s-.055-.337-.048-.506-.006-.387-.038-.482c-.048-.035-.08-.065-.151-.284l-.157-.393c-.038-.065-.151-.124-.151-.189 0-.13.128-.198.128-.234-.006-.074-.103-.015-.128-.035-.032-.035.08-.248.038-.278-.016-.015-.128.109-.157.074s-.071-.387-.128-.621l-.119-.461c-.006-.065-.442-1.212-.548-1.49s-.183-.577-.215-.715-.055-.423-.071-.393-.006.174-.032.169-.103-.511-.128-.591-.157-.352-.189-.547l-.151-1.067-.071-.585c0-.044.016-.299-.038-.645-.064-.373-.189-.825-.301-1.088L27 10.048c0-.08.112-.035.112-.035l.484 1.141.436.979c.038.044.34.532.474 1.33l.263 2.025c.038.234.071.482.151.73.087.269.221.547.398.973.151.358.263.656.324.914.071.328.071.577.112.739l.231.819.468 1.242c.263.645.382 1.183.42 1.469L30.995 24h0z" class="B C"/><path d="M24.545 4.029l-.016.035s.049.015.039.073c0 .029 0 .144-.016.24-.016.103-.049.182-.055.246 0 .138.023.296-.192.689-.065.109-.104.202-.136.267-.081.158-.097.182-.169.255.114-.059.523-.29.73-.255-.143.073-.36.217-.497.405a1.24 1.24 0 0 0 .386 0c.36-.05.763-.167 1.117-.144.386.021.234-.419.234-.419l-.448-.886L24.678 4l-.133.029h0z" fill="#be9c44" class="B"/><path d="M26.172 11s-.372-.334-.523-1.479c-.151-1.151-.119-2.847-.119-2.847l-.302-.662s-.064-.44-.221-.604l-.61-.576c-.141-.135-.302-.319-.398-.348.048-.072.263-.478 1.088-.484s1.078.406 1.165.556.475.797.619 2.029l.119 1.75c-.016.236-.103.783-.253 1.367-.138.495-.289 1.048-.565 1.298h0z" fill="#a17c34" class="B"/><path d="M26.086 11.475s.109.024.223-.084c.074-.007.344.051.551-.391.014.101.05.374-.044.617.05-.084.125-.118.135-.142.004.125.074.509-.223 1.443.08-.148.175-.142.259-.158.004.175.06.765-.088 1.082-.098.216-.259.148-.259.148s.004-.074 0-.142c-.004-.091-.024-.182-.01-.243-.02-.017-.105-.074-.209-.243-.175-.276-.402-.748-.418-1.099-.02-.391.189-.475.189-.475s-.024-.034-.044-.091c-.01-.057-.02-.148-.06-.222z" fill="#8c6228" class="B"/><path d="M23.081 8.404s-.013-.021-.081.074l.031-.268a.95.95 0 0 1 .125-.218l-.064.168s.094-.203.232-.327c.094-.088.214-.129.265-.212.056-.088.043-.103.056-.118 0 0 .125-.094.316-.371.025-.035.064-.074.089-.109.043-.021.145-.074.265-.144l.351-.232c.171-.088.351-.079.436-.218.064-.021.132-.241.12-.43.094.044.578.391.744 1.151.12.538-.094 1.368-.183 1.769s-.102.697-.227.88c-.158.241-.667.583-.792.75-.107.138-.428.488-.415.742.013.188.214.291.257.327s.043.079.125.059.112-.065.145-.065c.038.006.038.015.056.015s.038-.006.038-.006-.013.268-.555.35c-.038.006-.076.021-.125.029.064-.035.102-.035.171-.144l-.351-.05c.018-.035.076-.129.125-.174.043-.044-.005-.059-.043-.035-.018.015-.102.079-.188.168-.064.065-.12.153-.222.232-.031-.118-.025-.341.094-.503-.031.006-.089.109-.145.088-.005-.044-.013-.188.018-.321s.196-.365.196-.365l.8-1.651.171-1.251-1.831.409h0z" fill="#92723a" class="B"/><path d="M22.706 8.204s-.047.03.047.086c-.014.017-.047.079-.088.121-.047.049-.096.079-.115.121-.041.086-.074.145-.074.182s-.014.273-.129.426c-.041.054-.088.145-.12.207-.068.108-.129.195-.142.244-.027.086-.047.323-.047.323l.082-.091c-.033.062-.068.128-.12.177l.29-.214c.224-.17.574-.456 1.001-.682-.129.042-.238.042-.326.054.068-.062.684-.712 1.007-.773.033-.037.027-.079.027-.079l-.276-.025-.561.108L23.081 8l-.375.204h0z" fill="#b18e3e" class="B"/><path d="M24.075 10.698s-.08.087-.154.302c-.021-.023-.089-.103-.145-.215-.11-.199-.278-.453-.672-.309-.006-.135-.015-.206 0-.302.065-.016.264-.19.462-.444a2.09 2.09 0 0 0 .358-.627l.293-.222c.19-.141.418-.334.453-.55-.089.039-.278.135-.563.119.11-.055.278-.113.258-.35l.08-.055s-.036-.016-.104-.016c-.006-.023-.015-.055-.065-.039s-.059.016-.065.039c-.021.006-.089 0-.139.039s-.19.167-.243.19l.05-.096s-.145.016-.249.064c-.19.071-.409.199-.631.325.021-.039.03-.064.044-.071s.05-.016.05-.023-.015-.064-.006-.087.13-.286.234-.437.124-.367.124-.367l.453-.248L25.174 7l.826.055-.104.621-.489 1.084-.418.987-.477.605-.438.347h0z" fill="#543e26" class="B"/><path d="M25.786 8.503l-.582.708.763-1.627c-.041-.035-.095-.035.032-.585-.108.277-.146.422-.235.496s-.1.05-.16.05c.019-.035.014-.074.014-.074s-.381-.05-.641-.05-.777.154-1.063.277c-.227.103-.354.103-.436.168-.081.074-.127.154-.168.174-.032.021-.187.074-.222.13s-.087.124-.087.139-.014.035.027.021a3.61 3.61 0 0 0 .227-.139l.476-.269c.387-.168.509-.139.682-.174.181-.035.441-.118.614-.118.173-.006.501 0 .576.015-.032.03-.06.065-.046.189 0 .035-.027.074-.054.159l-.322.847c-.119.277-.254.511-.322.655s-.214.525-.36.729l-.268.372c-.046.044-.373.307-.349.401.06-.021.436-.174.709-.511s.327-.54.541-.723.381-.49.482-.744c.084-.236.065-.31.17-.52h0z" fill="#806031" class="B"/><path d="M15.429 13.058s-.043.294-.141.44-.266.265-.286.504.17.359.17.359-.106.288-.106.504l.01.478c-.023.023-.039.065-.039.065s.01.207.106.336.178.207.227.175a1.1 1.1 0 0 1 .02.081l.121-.569c.049-.272.092-.233.112-.598s.233-.992.233-.992l.145-.537-.237-.304-.335.058z" fill="#b6903c" class="B"/><path d="M16.657 13s-.098.082-.183.181-.152.186-.276.223-.205.038-.197.142.125.148.191.201c.072.055.13.148.098.252.04-.015.112-.033.178-.153S17 13 17 13h-.343z" fill="#685026" class="B"/><path d="M17.763 10.723s.043-.116 0-.2-.306-.116-.436-.214c-.136-.101-.3-.171-.436-.127.02-.049.101-.156.035-.179s-.3.087-.364.136-.208.107-.237.142-.078.101-.107.072c-.029-.02-.043-.072-.092-.043s-.286.223-.329.336-.141.365-.436.651-.421.472-.335.579.127.029.141.122c.006.043.014.156-.014.272-.035.15-.092.292-.014.321.199.064.393-.058.436-.02.087.078-.049.359.156.414s.413-.049.413-.049l.756-.408.728-.385.372-.738-.199-.616-.038-.064h0z" fill="#d4b968" class="B"/><path d="M17.053 12.547s-.137-.219.031-.413.408-.275.502-.396c-.031-.039-.069-.049-.069-.049s.084-.177.271-.268c-.047-.049-.109-.088-.178-.088-.153 0-.246.098-.386.098s-.153-.072-.153-.072.231-.023.209-.131c-.022-.115-.062-.115-.062-.115s.446-.193.523-.298.069-.226.084-.275c.053 0 .361-.17.486-.098s.037.268.037.268.377-.298.57-.589c.168.016.246-.121.371-.121.153 0 .393.219.439.688.031.268.078.422.031.897-.022.268-.016.842.062 1.126.053.226.178.203.178.203s-.022.098-.109.177-.093.298-.084.38c.016.082.047.177.047.177s-.1.121-.125.203-.125.138-.199.138-.037-.007-.137 0-.131.023-.193 0-.109-.049-.084-.259-.77-.697-.77-.697l-1.293-.485h0z" fill="#cca849" class="B"/><path d="M16 14.764s.229.236 1.17.236c.448 0 .604-.033.697-.053.101-.019.478-.135.858-.481.342-.314.267-.442.267-.442L18.794 14l-.647.068-1.916.632-.232.064z" class="B E"/><path d="M16.829 14.963s-.829.215-.829-.396c0-.596.512-1.222.639-1.332.133-.11.45-.235.45-.235h.765l.146.45-.064.971-1.107.542h0z" class="B D"/><path d="M17.748 13.062s-.233-.174-.763.061-.958.724-.984 1.171c-.026.394.398.688 1.06.703.492.015.789-.031.939-.061l-.233-.235-.019-1.638z" fill="#c3b378" class="B"/><path d="M17.882 13.011s-.038-.046-.151.046c-.095.076-.233.274-.341.415-.069.084-.113.122-.151.187-.159.282-.293.742-.216.971s.331.491.978.312l-.118-1.93h0z" fill="#e6d89c" class="B"/><path d="M17.707 13.798s-.121.171-.121.445c0 .279.173.723.81.757.488.028.816-.641 1.171-.9.27-.199.434-.204.434-.204s-.276-.273-1.013-.627c-.728-.356-1.544-.403-1.987.144.209-.014.886-.171.886-.171l.331.097-.51.461h0z" class="B D"/><path d="M18.791 14.711c-.104-.136-.178-.317.252-.362.444-.045.622-.018.77.181s.296.362.074.444c-.222.072-.8 0-1.096-.262h0zm-.696-1.276s-.148.063-.074-.063c.03-.154.222-.425.696-.362s.37.38.296.471-.474.244-.77.181-.148-.226-.148-.226z" fill="#6f674d" class="B"/><path d="M10 13.85a1.15 1.15 0 0 0 .552.15c.294-.005.671-.253.845-.41l.287-.266c.081-.066.135-.097.174-.142.055-.053.113-.15.142-.182-.071.045-.174.124-.281.176s-.326.15-.416.176-.99.416-.99.416L10 13.85z" fill="#ac924c" class="B"/><path d="M10 11.302s.155-.108.456-.176c.29-.072.873-.126.873-.126l.481.212.191.737-.35.766-.445.284-.505-.827-.7-.871h0z" fill="#9f8e57" class="B"/><path d="M10.132 11.896L10 12s.034-.066.062-.265.174-.685.387-.965l.208-.265s-.062-.015-.112.03c.028-.066.208-.301.387-.42s.25-.155.437-.06.236.146.373.14.255-.161.255-.161.028.095-.076.316-.513.67-.513.67l-.852.62-.423.256h0z" fill="#eac970" class="B"/><path d="M11 11.297s.699.093.912-.099c.006.022.032.022.032.037s-.016.031-.016.031.038-.006.07-.006c.032.006.054.015.086.015s.07-.006.07-.006-.006.053-.048.077c.032 0 .064.006.064.031s.006.099-.032.115c-.048.015-.095-.006-.095-.006s0 .084.048.167c.064.115.197.245.378.207 0 0 .095.223-.305.718l-.181.238c-.054.124-.064.183-.064.183s.677-.254.871-.833.235-1.155.197-1.691c-.006-.152-.032-.26-.07-.337-.095-.192-.362-.161-.47-.053-.156.152-.416.529-.779.79-.369.26-.385.307-.668.421h0z" fill="#d7bc6b" class="B"/><path d="M10.27 12.05s-.161.095-.246.453c-.085.366.077.811.169.952s.303.526.741.545a.82.82 0 0 0 .315-.065c.154-.065.303-.168.426-.263.188-.141.342-.263.323-.274-.046-.019-1.16-.933-1.16-.933L10.419 12l-.15.05h0z" class="B E"/><path d="M10.532 13s.283-.017.451-.094S10 12 10 12l.082.895.451.105h0z" fill="#453a25" class="B"/><path d="M10.093 12.455s-.09.194-.09.244a4.82 4.82 0 0 0 .066.856c.036.177.232.445.485.445.157 0 .374-.109.374-.136 0-.034-.223-.068-.283-.194-.036-.068-.051-.234-.06-.404-.006-.109-.006-.228.03-.268.081-.102.096-.394.096-.394L11 12h-.38l-.455.319-.072.136z" fill="#84754b" class="B"/><path d="M10 11.93s.312-.405.593-.498.407-.037.407-.037l-.164.411-.233.253.016.13s-.038.343.195.581.407.229.508.229.391-.083.539-.427c.132-.321.243-.733-.022-1.147-.259-.411-.716-.427-.804-.427s-.782.034-1.034.93h0z" class="B D"/><path d="M17.058 13.976c-.136-.073-.007-.52.129-.658s.31-.297.612-.318c.111-.009.217.073.199.159-.026.159-.217.382-.391.542-.24.219-.394.357-.549.275z" fill="#f7f7e7" class="B"/><path d="M10.991 11.789a.21.21 0 0 1 .201.143c.02.093-.05.28-.201.28-.122 0-.186-.151-.186-.195s.02-.087.029-.102c.006-.009.02-.111.157-.125z" fill="#f8f6de" class="B"/><path d="M10.625 12s-.344.08-.503.247-.125.332-.1.394a.86.86 0 0 0 .234.272c.085.055.199.092.284.087s.259-.117.259-.184.01-.351.174-.506c.145-.155-.349-.309-.349-.309h0z" fill="#d4c38b" class="B"/><path d="M10.102 12.334c-.044.03-.117.073-.099.128s.172.085.227.209c.062.128.062.265.044.329.018-.009.073-.043.128-.107.081-.107.179-.252.264-.252.055 0 .11.03.161.03.081 0 .161-.03.172-.128.018-.128-.154-.244-.253-.222.018-.085.044-.209-.037-.295s-.333.064-.388.107-.22.201-.22.201h0z" fill="#e2d59d" class="B"/><path d="M14.876 18.137L15.3 18l.12.094s.086.2.221.225c-.043.1-.155.184-.149.256s.063.125.063.125-.381.686.37 1.378l-.525.246c.086.022.27.062.347.137s.077.1.149.147.115.109.1.137c-.049-.031-.212-.125-.241-.037s-.708.053-.708.053l-1.147.24s.043-.125-.077-.24c-.141-.137-.313.006-.496-.147-.241-.2-.25-.43-.327-.518.077-.053.235-.131.611-.184-.014-.031-.063-.125-.034-.209.034-.109.178-.178.135-.309.063-.016.092-.016.25-.231.149-.215.241-.262.356-.278s.184 0 .396-.215c.149-.153.1-.284.1-.284s.098-.034.063-.249h0z" fill="#cbac5a" class="B"/><path d="M14.009 18.267c.006-.054.03-.081.194-.054s1.203-.172 1.485-.199c.285-.038 1.291-.011 1.78.172l1.224.505c.24.118.316.161.307.215s-.061.107-.091.091c-.03-.011-.826-.44-1.072-.531s-1.096-.333-1.561-.317c-.434.011-.607-.011-.975.064-.367.081-.975.188-1.157.145-.179-.038-.143-.038-.134-.091h0z" fill="#d6bc6f" class="B"/><path d="M16.042 21.044s.562.29.765.644c.148.264-.088.394-.088.394s.318 0 .277.167c-.019.104-.548.386-.902.535-.359.149-.346.141-.521.167-.17.026-.636-.052-.732.078s-.055.264-.027.284.25.044.25.044-.047.123-.507.136-.576.044-.603.091.088.018.299.052l.507.052s-.096.078-.346.141c-.285.07-.732.136-.867.214.069.044.17.11.217.115-.115.026-.277.083-.304.104l.096.057s-.23.264-.365.329-.908.407-1.174.342c-.664-.167-.746-.858-.908-.911-.244-.078-.359.078-.576-.031.096-.065.148-.104.25-.149-.11-.052-.677-.394-.677-.394s-.069-.149-.197-.36l-.392-.631c-.263-.464-.277-.678-.516-.942.041-.052.184-.044.184-.044l1.999.626 3.546.097L15.65 21l.392.044h0z" fill="#dfc677" class="B"/><path d="M11 22.749s.026.024.07.043c.065.033.162.073.227.132.026-.029.091-.083.206 0s.258.024.347.043.096.033.096.033.052-.033.167-.069c.07-.02.154-.033.245-.053l.237-.033c.057.029.263.194 1.089-.049.779-.228.959-.253 1.089-.218.013-.024.026-.069.227-.063 0-.063-.167-.277-.167-.277l-.92-.238h-.503l-1.509.208-.836.36-.065.181z" fill="#c4a859" class="B"/><path d="M10 22.397s.02.161.248.331.297.272.297.272l.077-.119c.034-.066.063-.14.12-.161.114-.051.374.045.431.03.049-.015.034-.119.086-.119.12-.006.197.081.24.081s.148-.006.163-.03.02-.272.183-.391a.47.47 0 0 1 .451-.045c0 .045.006.155.12.161s.126-.015.226.021.22-.006.274.17c.049-.015.163-.03.134-.2.057-.045.106-.075.226-.251.029-.045.077-.096.114-.161.1 0 .22-.021.38.125-.049.036-.077.06-.091.096.014.015.071.075.114.14.043.06.071.131.126.146.12.036.317-.015.537 0 .211.015.388.096.465.146.029-.015.029-.021.1-.006s.126.021.049-.075c.043.021.091.066.134.021s.077-.11.197-.125.163.006.211-.125c.063-.161-.154-.161-.154-.161l.211-.221c.134-.131.288-.301.325-.51.063-.385-.297-.436-.297-.436l-1.744.561-2.133-.11-1.819.946h0z" fill="#927d49" class="B"/><path d="M8.415 16.603s-.057.075-.091.252l-.048.282c-.028.126-.377 1.378-.247 1.801s.357.578.499.92c.028.075.057.12.071.186.048.222.006.393.062.614.02.075.071.162.148.252.167.186.443.363.562.488.167.186.406.563.709.599.162.021.391-.051.582-.171.167-.111.272-.267.448-.357.125-.066.258-.09.377-.12.247-.051.471-.06.604-.03.204.045.686.201.953.201a2.46 2.46 0 0 0 .618-.09l1.22-.437c.19-.06.343-.075.499-.111.267-.066.491-.156.618-.327-.085-.105-.19-.267-.757-.261-.644.015-1.387.393-1.753.452s-.525.111-.933-.045c-.4-.156-.414-.261-.414-.261s-.42-.312-.596-1.103 0-1.369.457-1.918c.119-.141.091-.267.091-.267s.301-.428.218-.83c-.091-.399-.672-.318-.672-.318l-3.225.596h0z" class="B F"/><path d="M9.029 18s-.036.058-.029.116.024.133.216.302c.164.148.128.313.128.313s.083.015.307-.079c.176-.075.235.058.235.058s.071-.036.164-.047.147-.043.147-.043a2.09 2.09 0 0 0 .388.28c.164.079.259.133.34.079.076-.047.076-.143.071-.186 0 0-.024-.054-.071-.111-.052-.069-.136-.148-.14-.212-.012-.148.124-.323.095-.366s-.136-.054-.399.032c-.273.081-1.453-.135-1.453-.135h0z" fill="#39331f" class="B"/><path d="M9.999 20s-.166-.171-.108-.999c.087-.006.21.022.21.022s.09.642-.102.977z" fill="#292311" class="B"/><path d="M8.132 16.729s.03-.02.067-.056c-.061.104-.336.518-.112 1.17s.787 1.134 1.48 1.156 1.056-.291 1.474-.761l.518-.582c.248-.249.442-.319.442-.56 0-.493-.545-.714-1.347-.935s-1.526-.193-1.901-.042c-.366.165-.524.339-.62.61h0z" class="B D"/><path d="M10.852 20.109l.058-.029s.015-.23.108-.224c.093.015.137.137.128.181s-.029.117-.122.108c-.122.003-.172-.035-.172-.035z" fill="#3f3824" class="B"/><path d="M10 18.906s.094-.02.208.05c.094 0 .5-.029.627.02s.165.093.165.093-.476.064-.736 0C10 19.013 10 18.906 10 18.906h0z" fill="#2d2815" class="B"/><path d="M12.248 19.032c0-.015-.157-.122-.323-.157-.029-.006-.035.015-.058.015-.015-.006-.02-.05-.02-.05l-.093.05s-.015.02.035.058c.044.035.117.064.137.122s.02.079.029.087.108 0 .157-.029.143-.076.137-.096h0z" class="B G"/><path d="M10.768 19.062s.029-.201.224-.21c.201-.015.239.181.239.181l-.117.117c0-.003-.087-.125-.347-.087z" fill="#2d2816" class="B"/><path d="M12.19 18.991s-.108.117-.347.151c-.02-.029-.064-.087 0-.181s.137-.122.21-.093a.17.17 0 0 1 .137.122z" class="B H"/><path d="M12.136 19.578c.016-.128-.04-.154 0-.218s.255-.192.295-.128c.016.026 0 .128 0 .257s0 .257-.04.346c-.056.128-.215.192-.295.154-.08-.026-.096-.218-.096-.257.04-.026.136-.09.136-.154zm1.364-1.386c0-.064.136-.192.215-.192.12 0 .12.154.136.192.04.026.04-.026.08.09.04.128.096.321.056.449s-.199.218-.239.192c-.056-.064-.231-.642-.247-.731h0z" class="B G"/><path d="M11.91 18.91a.47.47 0 0 0 .18.12c-.035.028-.087.06-.087.06s-.007-.092-.093-.18z" class="B F"/><path d="M11.007 18.619c-.044-.027.131-.092.237-.081s.149.054.263.065.131-.027.175-.054.193-.011.219 0a.32.32 0 0 1 .044.038s0-.065.088-.109a.42.42 0 0 1 .237-.027c.018.038.105.174.088.201s-.28.065-.324.038c.044.065.237.201.263.228.018.027-.193.092-.28.081-.123-.005-.876-.277-1.008-.38h0zm1.148-.901s-.018-.038-.088-.065c-.061-.011-.263 0-.263.065s.175.429.368.619c.219.19.368.347.517.391.149.038.237-.027.263-.054.018-.027.061-.228.044-.7s-.044-.928-.088-.955a.35.35 0 0 0-.28.027c-.061.054-.456.592-.473.673z" class="B E"/><path d="M12.144 18.915s-.102-.064-.201-.02c-.093.044-.087.216-.087.216s.064.029.128-.015.146-.117.16-.181h0z" class="B H"/><path d="M12.07 19.094c-.007-.05-.07-.05-.07-.075.007-.025.042-.042.077-.042s.07.03.112.05.105.05.112.087a.18.18 0 0 1-.154.142c-.084-.002-.06-.112-.077-.162zm.677-.067s-.14.03-.13 0 .042-.037.088-.037c.018-.012.053-.03.088-.03s.053.012.053.012.095-.03.123-.012.007.017.025.037.042.055.042.075-.105.062-.189.055c-.098-.015-.081-.087-.098-.1zm.818-.111s.042.018.007.038c-.025.018-.147.051-.253.056-.105 0-.2.013-.2-.013s.088-.076.14-.089c.018-.018.053-.031.088-.031.042 0 .207-.013.253-.018s.077.013.053.038c-.011.018-.088.018-.088.018zm.242-.773s-.053.08-.112.08-.06-.017-.06-.03.06-.062.053-.075c-.018 0-.06 0-.053-.03 0-.025.06-.055.112-.05.018-.012.077-.037.14-.037s.112.012.112.037-.07.08-.095.092c-.028.02-.063.032-.098.012zm-.8 1.483s-.07.005-.07.032c0 .014.018.014.042.005.018 0 .042-.005.042-.005.007.005.007.032.06.032a.41.41 0 0 0 .123-.032c.042-.014.077-.027.077-.054-.018-.046-.053-.068-.105-.068s-.077.014-.077.014-.018-.027-.077 0-.053.027-.035.041c.032.022.021.035.021.035zm-.396.253c0-.013.088-.038.112-.03s.095.1.095.11-.088.043-.123.043-.095-.043-.095-.05.042-.013.042-.018c.011-.013-.032-.043-.032-.055h0zm-.277-.365c.018-.005.018-.017.042-.03s.053-.005.053-.005.018-.025.06-.03.077 0 .07.012c0 .037.035.062.035.092s-.025.067-.112.092c-.088.017-.207.017-.225.012s-.035-.055-.018-.08.067-.052.095-.065h0z" class="B G"/><path d="M12.046 19.91s-.122.058-.122.087c-.014.029-.014.07-.014.087s.158-.012.179-.029c.007-.012-.043-.116-.043-.146z" class="B F"/><path d="M11.989 19.921c.029.006.079 0 .117.015.029.015.05.044.02.079s-.058.087-.122.079c-.073-.006-.143-.044-.143-.073-.006-.035.015-.079.035-.102.029-.023.044-.009.093.003h0z" class="B E"/><path d="M11.729 20s-.166.102-.208.151l-.385.355c.026-.041.088-.102.088-.102s-.156.069-.218.22.349.233.619.294L12 21s-.156-.18-.255-.371c-.104-.192-.156-.212-.088-.302.052-.09.13-.151.13-.22L11.729 20h0z" class="B H"/><path d="M8 20.107a.27.27 0 0 0 .068 0c.047-.004.531-.126 1.036-.105.223.011.621.032 1.12.126.636.115 1.427.344 1.939.474.137.036.27.1.369.126.391.105.407.105.636.132.27.026.546-.036.835-.079.354-.053.959-.079 1.49-.132.276-.026.506-.079.506-.079s-.422.29-1.434.395c-.506.053-.922.036-1.235.011-.323-.021-.537-.053-.698-.085l-1.021-.211-1.095-.154L8 20.107h0z" class="B D"/><g fill="#cfb66c" class="B"><path d="M8 16.053l-.289-.253-.284-.253-.284-.261-.142-.129-.147-.124L5.727 14l1.146 1.021.134.129.142.129.284.253.284.261.284.261h0zM3 16l2.039.229 2.557.371M3 16l1.154.111.573.058.289.032.284.039 1.146.176.573.092.573.097-.573-.071-.573-.079-1.146-.163-.284-.045-.289-.032-.573-.066L3 16zm4.46.945l-1.957.495-1.957.56M7 17l-1.001.276-1.001.263-.996.285-.498.134-.503.134.498-.156.498-.156.996-.298 1.01-.249L7 17h0zm-3.801 2a156.52 156.52 0 0 0 2.509-1.13c.221-.101.864-.326.864-.326M3 19.31l.443-.167.434-.172.871-.356.871-.356.457-.142.232-.062L6.54 18l-.886.331-.886.331-.886.331L3 19.31h0zm.194.69l2.428-1.188L7 18.214"/><path d="M3 19.739l.972-.472.486-.232.495-.227.495-.227c.083-.041.166-.073.252-.102l.258-.102L7 18l-.996.443-.501.21-.495.22-.495.22-.501.215-1.012.43h0zm3.975-1.543l-1.559.938L3.913 20m3.756-2l-.654.515-.66.507-.668.502L5 20l.66-.507.673-.489.66-.507.676-.497h0zm-1.167 1.869l.534-.475.964-.865M6 21l.462-.512.241-.246.231-.254.438-.54.231-.254a.63.63 0 0 1 .134-.107c.04-.028.084-.079.14-.087-.033.06-.074.087-.107.139-.04.04-.074.087-.107.127l-.231.246-.478.48-.462.512L6 21h0zm2-1.587l-1.314 1.472"/><path d="M8.926 19a4.77 4.77 0 0 1-.461.319l-.485.312-.471.319-.51.289.471-.312.495-.302.471-.312.49-.312h0zm.074.575s-.181.362-.52.814L7.181 22"/><path d="M8 20a.78.78 0 0 1-.059.277l-.108.258-.132.25-.141.244-.273.488L7 22c.068-.176.159-.34.246-.502l.268-.494.114-.258.114-.25.114-.25c.046-.085.084-.167.146-.247z"/></g><path d="M9.214 22s-.236.423-.212.959L9.214 22zm.224.423l-.153 1.714c.098-.652.117-.597.153-1.714zM11 24.205L10.64 26l.36-1.795z" fill="#dec270" class="B"/><path d="M12 22l1 2c-.117-.463-.383-1.313-1-2z" fill="#cbaf59" class="B"/><path d="M14 24s.528.901 1 2c-.056-.473-.208-1.282-1-2z" fill="#e3c677" class="B"/><path d="M19.811 25.676c.122-.077.363-.494.573-.598s.369-.129.558-.34c.189-.221.241-.356.656-.53.58-.251.18-.576.18-.576s.098-.098.204-.175c.149-.113.323-.251.308-.494-.021-.408-.098-.999-.43-1.343l1.327-.212c.445-.113.65-.273.65-.273s-.256-.438.159-.88.753-.705 1.004-1.199c-.287-.037-.723-.19-1.839.236a1.4 1.4 0 0 1 .174.098s-.686.19-.937.402c-.436.371-.491.674-.964.901s-.949.166-1.342.35-.451.34-.595.408c.031.037-.006.098.052.15-.037.052-.25.402-.467.402.021.083.204.144.204.144s-.134.098-.476.123c.174.181.339.38.793.668-.037.077-.189.19-.128.334.067.144.241.34.937.5-.354.015-.769.098-1.327.021-.558-.067-.65-.107-.994-.021.037.037.134.037.22.135-.092.006-.665-.067-.86.19-.204.267-.293.705-.278.999-.107.052-.21.144-.159.334s.323.251.497.371c.174.129.189.175.354.144.174-.037.43-.212.58-.212a.39.39 0 0 1 .256.113s.406-.196.445-.159.006.273.046.31c.04.028.497-.245.619-.322h0z" fill="#ecd592" class="B"/><path d="M28.141 13.5C26.322 8.86 21.826 8 21.826 8H9l.049 4.727h2.555v10.555H9V28h12.471c3.006 0 5.415-2.984 5.415-2.984 3.858-5.411 1.254-11.515 1.254-11.515zm-6.602 8.335s-.978 1.394-2.043 1.394h-2.13l-.049-10.492h2.732s1.266.262 2.15 2.737c0 0 1.173 3.545-.661 6.36h0z" fill="#fff" opacity=".8" class="B"/></g></g></svg>