<svg xmlns="http://www.w3.org/2000/svg" xmlns:xlink="http://www.w3.org/1999/xlink" width="41" height="40" viewBox="0 0 41 40">
    <defs>
        <path id="t2vf2bu3ta" d="M20 40c11.046 0 20-8.954 20-20S31.046 0 20 0 0 8.954 0 20s8.954 20 20 20z"/>
    </defs>
    <g fill="none" fill-rule="evenodd">
        <g>
            <g>
                <g transform="translate(-123 -1248) translate(64 1236) translate(59.5 12)">
                    <mask id="3glzlfz8pb" fill="#fff">
                        <use xlink:href="#t2vf2bu3ta"/>
                    </mask>
                    <use fill="#F3F3F3" xlink:href="#t2vf2bu3ta"/>
                    <circle cx="20" cy="20" r="19.95" stroke="#90A4BE" stroke-opacity=".6" stroke-width=".1" mask="url(#3glzlfz8pb)"/>
                    <g mask="url(#3glzlfz8pb)">
                        <g>
                            <path fill="#FFDA44" fill-rule="nonzero" d="M0 11.111c0 1.36.244 2.661.691 3.865l10.42.966 10.42-.966c.447-1.204.691-2.506.691-3.865 0-1.359-.244-2.66-.69-3.865l-10.42-.966-10.42.966C.243 8.45 0 9.752 0 11.111z" transform="translate(8.889 8.889)"/>
                            <g>
                                <path fill="#D80027" fill-rule="nonzero" d="M20.88 7.246C19.31 3.016 15.237 0 10.46 0S1.61 3.015.04 7.246h20.84zM.04 14.976c1.57 4.23 5.643 7.246 10.42 7.246s8.85-3.015 10.42-7.246H.04z" transform="translate(8.889 8.889) translate(.651)"/>
                            </g>
                        </g>
                    </g>
                </g>
            </g>
        </g>
    </g>
</svg>
