<?xml version="1.0" encoding="UTF-8"?>
<svg width="36px" height="36px" viewBox="0 0 36 36" version="1.1" xmlns="http://www.w3.org/2000/svg" xmlns:xlink="http://www.w3.org/1999/xlink">
    <title>Logos/Shadow/Indices/USA</title>
    <defs>
        <polygon id="path-1" points="0 0 36 0 36 36 0 36"></polygon>
    </defs>
    <g id="Logos/Shadow/Indices/USA" stroke="none" stroke-width="1" fill="none" fill-rule="evenodd">
        <g id="Group-3">
            <mask id="mask-2" fill="white">
                <use xlink:href="#path-1"></use>
            </mask>
            <g id="Clip-2"></g>
            <path d="M36,18.1100041 C36,8.10811767 27.9411328,0 18,0 C8.05886719,0 0,8.10811767 0,18.1100041 C0,27.1492307 6.58233984,34.641396 15.1875,36 L15.1875,23.3449272 L10.6171875,23.3449272 L10.6171875,18.1100041 L15.1875,18.1100041 L15.1875,14.1201438 C15.1875,9.58132406 17.8747734,7.07422036 21.9863672,7.07422036 C23.9557148,7.07422036 26.015625,7.42793138 26.015625,7.42793138 L26.015625,11.8846902 L23.7458672,11.8846902 C21.5098242,11.8846902 20.8125,13.2806815 20.8125,14.7128574 L20.8125,18.1100041 L25.8046875,18.1100041 L25.0066406,23.3449272 L20.8125,23.3449272 L20.8125,36 C29.4176602,34.641396 36,27.1492307 36,18.1100041" id="Fill-1" fill="#1877F2" mask="url(#mask-2)"></path>
        </g>
    </g>
</svg>