<?xml version="1.0" encoding="UTF-8"?>
<svg width="36px" height="36px" viewBox="0 0 36 36" version="1.1" xmlns="http://www.w3.org/2000/svg" xmlns:xlink="http://www.w3.org/1999/xlink">
    <title>Logos/Shadow/Indices/Germany</title>
    <g id="Logos/Shadow/Indices/Germany" stroke="none" stroke-width="1" fill="none" fill-rule="evenodd">
        <g id="germany" fill-rule="nonzero">
            <path d="M1,24.5293552 C3.56129075,31.2269141 10.2058048,36 18,36 C25.7941952,36 32.4387092,31.2269141 35,24.5293552 L18,23 L1,24.5293552 Z" id="Path" fill="#FFDA44"></path>
            <path d="M18,0 C10.2058048,0 3.56129075,4.77301722 1,11.4706448 L18,13 L35,11.4705761 C32.4387092,4.77301722 25.7941952,0 18,0 Z" id="Path" fill="#000000"></path>
            <path d="M1.11958594,11 C0.396070313,13.0244657 0,15.2141269 0,17.5 C0,19.7858731 0.396070313,21.9755343 1.11958594,24 L34.8804844,24 C35.604,21.9755343 36,19.7858731 36,17.5 C36,15.2141269 35.604,13.0244657 34.8804141,11 L1.11958594,11 Z" id="Path" fill="#D80027"></path>
        </g>
    </g>
</svg>