<?xml version="1.0" encoding="UTF-8"?>
<svg width="36px" height="36px" viewBox="0 0 36 36" version="1.1" xmlns="http://www.w3.org/2000/svg" xmlns:xlink="http://www.w3.org/1999/xlink">
    <title>Logos/Shadow/Crypto/IOTA</title>
    <g id="Logos/Shadow/Crypto/IOTA" stroke="none" stroke-width="1" fill="none" fill-rule="evenodd">
        <g id="iota-1" transform="translate(1.000000, 1.000000)" fill="#000000" fill-rule="nonzero">
            <path d="M24.7266158,3.82837305 C25.7650205,3.82837305 26.6072289,2.96962772 26.6072289,1.91418653 C26.6072289,0.858745333 25.7650205,3.97903932e-13 24.7266158,3.97903932e-13 C23.6882112,0.00479745996 22.8460028,0.863542793 22.8460028,1.91898399 C22.8460028,2.97442518 23.6882112,3.82837305 24.7266158,3.82837305 Z M25.2811813,8.80338701 C26.1616719,8.80338701 26.8746779,8.07897055 26.8746779,7.18184554 C26.8746779,6.28951799 26.1616719,5.56030407 25.2811813,5.56030407 C24.4006908,5.56030407 23.6876848,6.28472053 23.6876848,7.18184554 C23.6876848,8.07897055 24.4006908,8.80338701 25.2811813,8.80338701 L25.2811813,8.80338701 Z M29.6551618,9.43655577 C30.5308671,9.43655577 31.2438731,8.71213932 31.2438731,7.81981177 C31.2438731,6.92748421 30.5308671,6.20306776 29.6551618,6.20306776 C28.7794565,6.20306776 28.0664506,6.92748421 28.0664506,7.81981177 C28.0664506,8.71213932 28.7794565,9.43655577 29.6551618,9.43655577 Z M29.1298822,13.6928623 C29.8811704,13.6928623 30.4889003,13.0739899 30.4889003,12.3111938 C30.4889003,11.5483976 29.8811704,10.9295253 29.1298822,10.9295253 C28.3785941,10.9295253 27.7708642,11.5483976 27.7708642,12.3111938 C27.7708642,13.0739899 28.3785941,13.6928623 29.1298822,13.6928623 Z M32.6314114,15.0731874 C33.3874848,15.0731874 34,14.4495176 34,13.681924 C34,12.9143304 33.3874848,12.2906607 32.6314114,12.2906607 C31.875338,12.2906607 31.2628228,12.9143304 31.2628228,13.681924 C31.2628228,14.4495176 31.875338,15.0731874 32.6314114,15.0731874 Z M24.7293434,13.1169272 C25.4997727,13.1169272 26.1218584,12.4836625 26.1218584,11.7016765 C26.1218584,10.9196905 25.4997727,10.2864258 24.7293434,10.2864258 C23.9589142,10.2864258 23.3368285,10.9196905 23.3368285,11.7016765 C23.3368285,12.478865 23.9589142,13.1169272 24.7293434,13.1169272 Z M23.4674186,16.50379 C24.1134307,16.50379 24.6350257,15.9712719 24.6350257,15.3188174 C24.6350257,14.6615654 24.1134307,14.1338448 23.4674186,14.1338448 C22.8214065,14.1338448 22.2998115,14.6663628 22.2998115,15.3188174 C22.2998115,15.9712719 22.8214065,16.50379 23.4674186,16.50379 Z M27.8466151,17.102417 C28.4878419,17.102417 29.0046516,16.5746965 29.0046516,15.9222419 C29.0046516,15.2697873 28.4878419,14.7420667 27.8466151,14.7420667 C27.2053882,14.7420667 26.6885785,15.2697873 26.6885785,15.9222419 C26.6837933,16.5746965 27.2053882,17.102417 27.8466151,17.102417 Z M31.3382866,18.477513 C31.9842987,18.477513 32.5058936,17.9449949 32.5058936,17.2877429 C32.5058936,16.6304909 31.9842987,16.0979729 31.3382866,16.0979729 C30.6922745,16.0979729 30.1706795,16.6304909 30.1706795,17.2877429 C30.1706795,17.9449949 30.6922745,18.477513 31.3382866,18.477513 Z M29.6133864,21.0466008 C30.1589077,21.0466008 30.599153,20.5956395 30.599153,20.0439316 C30.599153,19.4922238 30.1589077,19.0412625 29.6133864,19.0412625 C29.067865,19.0412625 28.6276198,19.4922238 28.6276198,20.0439316 C28.6276198,20.5956395 29.067865,21.0466008 29.6133864,21.0466008 Z M26.1052535,19.6934292 C26.6603454,19.6934292 27.1149465,19.2328731 27.1149465,18.6667728 C27.1149465,18.1006725 26.6651307,17.6401164 26.1052535,17.6401164 C25.5453764,17.6401164 25.0955605,18.1006725 25.0955605,18.6667728 C25.0955605,19.2328731 25.5501616,19.6934292 26.1052535,19.6934292 Z M21.7318473,19.0664972 C22.2821539,19.0664972 22.7319697,18.6107385 22.7319697,18.0494356 C22.7319697,17.4881328 22.2869392,17.0323741 21.7318473,17.0323741 C21.1815407,17.0323741 20.7317248,17.4881328 20.7317248,18.0494356 C20.7317248,18.6107385 21.1767554,19.0664972 21.7318473,19.0664972 Z M24.1627669,21.4797155 C24.6460797,21.4797155 25.0336869,21.0815263 25.0336869,20.5969828 C25.0336869,20.1076419 24.6460797,19.7142502 24.1627669,19.7142502 C23.6794541,19.7142502 23.2918469,20.1124394 23.2918469,20.5969828 C23.2918469,21.0863238 23.6794541,21.4797155 24.1627669,21.4797155 Z M27.6695599,22.8552912 C28.1528726,22.8552912 28.5500505,22.457102 28.5500505,21.9629636 C28.5500505,21.4688252 28.1576579,21.0706361 27.6695599,21.0706361 C27.1862471,21.0706361 26.7890693,21.4688252 26.7890693,21.9629636 C26.7938546,22.457102 27.1862471,22.8552912 27.6695599,22.8552912 Z M25.694342,23.8875606 C26.077164,23.8875606 26.3882068,23.5709283 26.3882068,23.182334 C26.3882068,22.7937398 26.077164,22.4771074 25.694342,22.4771074 C25.31152,22.4771074 25.0004771,22.7937398 25.0004771,23.182334 C25.0052624,23.5709283 25.31152,23.8875606 25.694342,23.8875606 Z M23.8233952,24.4411875 C24.1727203,24.4411875 24.4502662,24.1533399 24.4502662,23.8031253 C24.4502662,23.4481133 24.167935,23.1650632 23.8233952,23.1650632 C23.4740701,23.1650632 23.1965242,23.4529107 23.1965242,23.8031253 C23.1917389,24.1581374 23.4740701,24.4411875 23.8233952,24.4411875 Z M22.18463,22.6065429 C22.5961636,22.6065429 22.9311329,22.2659232 22.9311329,21.8485442 C22.9311329,21.4311652 22.5961636,21.0905455 22.18463,21.0905455 C21.7730963,21.0905455 21.4381271,21.4311652 21.4381271,21.8485442 C21.4381271,22.2659232 21.7730963,22.6065429 22.18463,22.6065429 Z M19.7791202,20.8671758 C20.2576476,20.8671758 20.6500402,20.4737841 20.6500402,19.9844431 C20.6500402,19.4951022 20.2624329,19.1017105 19.7791202,19.1017105 C19.3005927,19.1017105 18.9082001,19.4951022 18.9082001,19.9844431 C18.9129854,20.4737841 19.3005927,20.8671758 19.7791202,20.8671758 Z M26.9114288,31.9219628 C27.9450482,31.9219628 28.7824713,31.0680149 28.7824713,30.0173712 C28.7824713,28.9667274 27.9450482,28.1127796 26.9114288,28.1127796 C25.8778094,28.1127796 25.0403863,28.9667274 25.0403863,30.0173712 C25.0403863,31.0680149 25.8778094,31.9219628 26.9114288,31.9219628 Z M22.1563969,29.5105195 C23.0177463,29.5105195 23.7163965,28.8004954 23.7163965,27.9225603 C23.7163965,27.0446251 23.0177463,26.334601 22.1563969,26.334601 C21.2950474,26.334601 20.5963973,27.0446251 20.5963973,27.9225603 C20.5963973,28.8004954 21.2950474,29.5105195 22.1563969,29.5105195 Z M19.4403227,33 C20.3112427,33 21.0146781,32.2851785 21.0146781,31.3976484 C21.0146781,30.5149157 20.3112427,29.7952967 19.4403227,29.7952967 C18.5694027,29.7952967 17.8659673,30.5101183 17.8659673,31.3976484 C17.8659673,32.280381 18.5694027,33 19.4403227,33 Z M18.6236198,26.5708759 C19.374908,26.5708759 19.9874232,25.9520036 19.9874232,25.18441 C19.9874232,24.4168164 19.374908,23.7979441 18.6236198,23.7979441 C17.8723317,23.7979441 17.2598165,24.4168164 17.2598165,25.18441 C17.2598165,25.9472061 17.8723317,26.5708759 18.6236198,26.5708759 Z M15.9131444,30.1072756 C16.6644326,30.1072756 17.2721625,29.4884032 17.2721625,28.7256071 C17.2721625,27.962811 16.6644326,27.3439386 15.9131444,27.3439386 C15.1618563,27.3439386 14.5541264,27.962811 14.5541264,28.7256071 C14.5493411,29.4884032 15.1618563,30.1072756 15.9131444,30.1072756 Z M12.9926912,32.5086921 C13.7439794,32.5086921 14.346924,31.8898198 14.346924,31.1318211 C14.346924,30.369025 13.7391941,29.7549501 12.9926912,29.7549501 C12.241403,29.7549501 11.6384584,30.3738224 11.6384584,31.1318211 C11.6384584,31.8898198 12.2461883,32.5086921 12.9926912,32.5086921 Z M10.5620587,29.3834348 C11.1985002,29.3834348 11.7200952,28.8557142 11.7200952,28.2080571 C11.7200952,27.5604 11.2032855,27.0326794 10.5620587,27.0326794 C9.92561712,27.0326794 9.40402216,27.5604 9.40402216,28.2080571 C9.40880744,28.8557142 9.92561712,29.3834348 10.5620587,29.3834348 Z M13.4878714,26.9723274 C14.1290983,26.9723274 14.645908,26.4446068 14.645908,25.7969497 C14.645908,25.1444951 14.1290983,24.621572 13.4878714,24.621572 C12.8466446,24.621572 12.3298349,25.1492926 12.3298349,25.7969497 C12.3298349,26.4446068 12.8466446,26.9723274 13.4878714,26.9723274 Z M16.2182536,23.4361196 C16.8594804,23.4361196 17.3762901,22.908399 17.3762901,22.2559445 C17.3762901,21.6034899 16.8594804,21.0757693 16.2182536,21.0757693 C15.5770267,21.0757693 15.0602171,21.6034899 15.0602171,22.2559445 C15.0602171,22.908399 15.5770267,23.4361196 16.2182536,23.4361196 Z M12.042192,23.9231578 C12.5972839,23.9231578 13.0470998,23.4673991 13.0470998,22.9012988 C13.0470998,22.3351985 12.5972839,21.8794398 12.042192,21.8794398 C11.4871002,21.8794398 11.0372843,22.3351985 11.0372843,22.9012988 C11.0372843,23.4673991 11.4871002,23.9231578 12.042192,23.9231578 Z M9.13174002,26.3248622 C9.68204663,26.3248622 10.1270772,25.8739009 10.1270772,25.3125981 C10.1270772,24.7512953 9.68204663,24.3003341 9.13174002,24.3003341 C8.58143342,24.3003341 8.13640285,24.7512953 8.13640285,25.3125981 C8.13640285,25.8739009 8.58143342,26.3248622 9.13174002,26.3248622 Z M8.46180154,23.5099046 C8.93554376,23.5099046 9.32315102,23.1165129 9.32315102,22.6367669 C9.32315102,22.1522234 8.93554376,21.7636291 8.46180154,21.7636291 C7.98805933,21.7636291 7.60045207,22.1570209 7.60045207,22.6367669 C7.60045207,23.1213103 7.98805933,23.5099046 8.46180154,23.5099046 Z M8.43734879,21.0402681 C8.84409715,21.0402681 9.17428112,20.7044459 9.17428112,20.2870669 C9.17428112,19.8744854 8.84409715,19.5338657 8.43734879,19.5338657 C8.03060043,19.5338657 7.70041646,19.8696879 7.70041646,20.2870669 C7.70041646,20.7044459 8.03060043,21.0402681 8.43734879,21.0402681 Z M8.8432358,18.9863316 C9.19256087,18.9863316 9.47010681,18.698484 9.47010681,18.3482694 C9.47010681,17.9980548 9.18777559,17.7102073 8.8432358,17.7102073 C8.49391074,17.7102073 8.2163648,17.9980548 8.2163648,18.3482694 C8.2163648,18.698484 8.49391074,18.9863316 8.8432358,18.9863316 Z M11.3529211,18.6435531 C11.7644547,18.6435531 12.0994239,18.3029334 12.0994239,17.8855544 C12.0994239,17.4681754 11.7644547,17.1275557 11.3529211,17.1275557 C10.9413874,17.1275557 10.6064182,17.4681754 10.6064182,17.8855544 C10.6064182,18.3029334 10.9413874,18.6435531 11.3529211,18.6435531 Z M14.1074688,17.5670031 C14.5859963,17.5670031 14.9783889,17.1688139 14.9783889,16.6842704 C14.9783889,16.1949295 14.5907816,15.8015378 14.1074688,15.8015378 C13.6289413,15.8015378 13.2365488,16.199727 13.2365488,16.6842704 C13.2365488,17.1736114 13.6241561,17.5670031 14.1074688,17.5670031 Z M14.763195,20.368144 C15.3087164,20.368144 15.7537469,19.9171828 15.7537469,19.3606774 C15.7537469,18.804172 15.3087164,18.3532108 14.763195,18.3532108 C14.2176737,18.3532108 13.7726431,18.804172 13.7726431,19.3606774 C13.7726431,19.9171828 14.2128884,20.368144 14.763195,20.368144 Z M11.387375,21.1137172 C11.8659025,21.1137172 12.2487245,20.7203255 12.2487245,20.2357821 C12.2487245,19.7512386 11.8611172,19.3578469 11.387375,19.3578469 C10.9088476,19.3578469 10.5260256,19.7512386 10.5260256,20.2357821 C10.5212403,20.7203255 10.9088476,21.1137172 11.387375,21.1137172 Z M1.8662572,19.8124542 C2.89509129,19.8124542 3.73251439,18.9633038 3.73251439,17.9174575 C3.73251439,16.8716112 2.89509129,16.0224608 1.8662572,16.0224608 C0.837423101,16.0224608 0,16.8716112 0,17.9174575 C0,18.9633038 0.837423101,19.8124542 1.8662572,19.8124542 Z M6.10242177,16.4275584 C6.98769762,16.4275584 7.70070358,15.6983444 7.70070358,14.8012194 C7.70070358,13.9040944 6.98291235,13.1748805 6.10242177,13.1748805 C5.21714592,13.1748805 4.50413997,13.9040944 4.50413997,14.8012194 C4.50413997,15.7031419 5.2219312,16.4275584 6.10242177,16.4275584 Z M4.44934857,12.2542959 C5.32983914,12.2542959 6.03805982,11.5298795 6.03805982,10.6375519 C6.03805982,9.74522435 5.32505387,9.02080789 4.44934857,9.02080789 C3.56885799,9.02080789 2.86061337,9.74522435 2.86061337,10.6375519 C2.85585204,11.5298795 3.56885799,12.2542959 4.44934857,12.2542959 Z M8.5332457,10.2769268 C9.28453385,10.2769268 9.89704903,9.6580545 9.89704903,8.89046091 C9.89704903,8.12286731 9.28453385,7.50399498 8.5332457,7.50399498 C7.78195754,7.50399498 7.16944236,8.12286731 7.16944236,8.89046091 C7.16944236,9.6580545 7.78195754,10.2769268 8.5332457,10.2769268 Z M10.2013447,14.4403065 C10.9574181,14.4403065 11.5699333,13.8166367 11.5699333,13.0490431 C11.5699333,12.2814495 10.9574181,11.6577797 10.2013447,11.6577797 C9.44527123,11.6577797 8.83275605,12.2814495 8.83275605,13.0490431 C8.83275605,13.8166367 9.44527123,14.4403065 10.2013447,14.4403065 Z M13.9183069,13.5757563 C14.5595337,13.5757563 15.0811287,13.0480357 15.0811287,12.3907836 C15.0811287,11.7383291 14.5595337,11.205811 13.9183069,11.205811 C13.2770801,11.205811 12.7554851,11.7335316 12.7554851,12.3907836 C12.7506998,13.0432382 13.2722948,13.5757563 13.9183069,13.5757563 Z M17.1275515,13.5863107 C17.6826434,13.5863107 18.1324592,13.130552 18.1324592,12.5692492 C18.1324592,12.0079463 17.6826434,11.5521876 17.1275515,11.5521876 C16.5724596,11.5521876 16.1226438,12.0079463 16.1226438,12.5692492 C16.1274291,13.130552 16.5772449,13.5863107 17.1275515,13.5863107 Z M19.7802686,14.1989463 C20.2444403,14.1989463 20.6272623,13.8151495 20.6272623,13.340201 C20.6272623,12.8652524 20.2492256,12.4814556 19.7802686,12.4814556 C19.316097,12.4814556 18.933275,12.8652524 18.933275,13.340201 C18.9380602,13.810352 19.316097,14.1989463 19.7802686,14.1989463 Z M20.1259569,11.0649576 C20.5327052,11.0649576 20.8628892,10.7291354 20.8628892,10.3165539 C20.8628892,9.9039723 20.5327052,9.5681501 20.1259569,9.5681501 C19.7192085,9.5681501 19.3890245,9.9039723 19.3890245,10.3165539 C19.3890245,10.7291354 19.7192085,11.0649576 20.1259569,11.0649576 Z M18.086377,10.0393086 C18.555334,10.0393086 18.938156,9.65071439 18.938156,9.17096839 C18.938156,8.69122239 18.555334,8.30262814 18.086377,8.30262814 C17.6174201,8.30262814 17.2345981,8.69122239 17.2345981,9.17096839 C17.2345981,9.65071439 17.6126348,10.0393086 18.086377,10.0393086 Z M15.4644292,9.41784568 C16.0147358,9.41784568 16.4597664,8.96208698 16.4597664,8.40558163 C16.4597664,7.84427881 16.0147358,7.39331757 15.4644292,7.39331757 C14.9141226,7.39331757 14.4690921,7.84907627 14.4690921,8.40558163 C14.4690921,8.96688444 14.9141226,9.41784568 15.4644292,9.41784568 Z M12.2601135,9.42187555 C12.9061256,9.42187555 13.4277205,8.88935749 13.4277205,8.23690293 C13.4277205,7.58444838 12.9061256,7.05193032 12.2601135,7.05193032 C11.6141014,7.05193032 11.0925064,7.58444838 11.0925064,8.23690293 C11.0972917,8.89415495 11.6188866,9.42187555 12.2601135,9.42187555 Z M7.9440348,6.4585325 C8.67618186,6.4585325 9.26477067,5.85885001 9.26477067,5.11524371 C9.26477067,4.37163742 8.67139658,3.77195492 7.9440348,3.77195492 C7.21188775,3.77195492 6.62329894,4.37163742 6.62329894,5.11524371 C6.62329894,5.85885001 7.21667302,6.4585325 7.9440348,6.4585325 Z M11.6587001,5.64445152 C12.3047122,5.64445152 12.8263072,5.11193346 12.8263072,4.45947891 C12.8263072,3.80702435 12.3047122,3.2745063 11.6587001,3.2745063 C11.012688,3.2745063 10.4910931,3.80702435 10.4910931,4.45947891 C10.4910931,5.11193346 11.012688,5.64445152 11.6587001,5.64445152 L11.6587001,5.64445152 Z M14.867849,5.65980339 C15.4229409,5.65980339 15.8727567,5.20404469 15.8727567,4.63794442 C15.8727567,4.07184414 15.4229409,3.61608545 14.867849,3.61608545 C14.3127571,3.61608545 13.8629413,4.07184414 13.8629413,4.63794442 C13.8629413,5.19924723 14.3127571,5.65980339 14.867849,5.65980339 Z M17.5006115,6.26773752 C17.9695685,6.26773752 18.3476052,5.88394072 18.3476052,5.40899218 C18.3476052,4.93404365 17.9695685,4.55024685 17.5006115,4.55024685 C17.0316546,4.55024685 16.6536179,4.93404365 16.6536179,5.40899218 C16.6536179,5.87914326 17.0364399,6.26773752 17.5006115,6.26773752 Z M19.5238736,7.32101985 C19.9401925,7.32101985 20.279947,6.97560274 20.279947,6.55342626 C20.279947,6.12645232 19.9401925,5.78583266 19.5238736,5.78583266 C19.1075547,5.78583266 18.7678002,6.13124978 18.7678002,6.55342626 C18.7678002,6.97560274 19.1075547,7.32101985 19.5238736,7.32101985 Z M21.0079787,8.52926014 C21.3525185,8.52926014 21.6300645,8.24621001 21.6300645,7.89599543 C21.6300645,7.54578085 21.3525185,7.26273071 21.0079787,7.26273071 C20.663439,7.26273071 20.385893,7.54578085 20.385893,7.89599543 C20.3811077,8.24621001 20.663439,8.52926014 21.0079787,8.52926014 Z" id="Shape"></path>
        </g>
    </g>
</svg>