<?xml version="1.0" encoding="utf-8"?>
<!-- Generator: Adobe Illustrator 25.4.1, SVG Export Plug-In . SVG Version: 6.00 Build 0)  -->
<svg version="1.1" id="Layer_1" xmlns="http://www.w3.org/2000/svg" xmlns:xlink="http://www.w3.org/1999/xlink" x="0px" y="0px"
	 viewBox="0 0 919.66 240" style="enable-background:new 0 0 919.66 240;" xml:space="preserve">
<style type="text/css">
	.st0{fill-rule:evenodd;clip-rule:evenodd;fill:#231F20;}
	.st1{fill-rule:evenodd;clip-rule:evenodd;}
	.st2{filter:url(#Adobe_OpacityMaskFilter);}
	.st3{fill-rule:evenodd;clip-rule:evenodd;fill:#FFFFFF;}
	.st4{mask:url(#mask-2_00000120525523534229962350000015618270006091587995_);fill-rule:evenodd;clip-rule:evenodd;}
	.st5{filter:url(#Adobe_OpacityMaskFilter_00000162343346687321275680000000159739240086737063_);}
	.st6{mask:url(#mask-4_00000057839769941501155650000014415623563559297676_);fill-rule:evenodd;clip-rule:evenodd;}
	.st7{fill:#231F20;}
	.st8{font-family:'CreatoDisplay-Bold';}
	.st9{font-size:89.3757px;}
	.st10{font-family:'CreatoDisplay-Black';}
	.st11{font-size:160.8763px;}
</style>
<g id="Logo-Med">
	<path id="Fill-127" class="st0" d="M0,144c-0.22,48,43.44,96,119.92,96C196.39,240,240,192.87,240,144
		c-27.25,96-57.03-4.49-74.49,5.6c-17.46,10.09-22.87,42.4-45.59,42.4c-22.72,0-28.59-46.93-46.67-42.4
		C55.16,154.13,22.05,212.44,0,144"/>
	<g id="Group-63" transform="translate(4.000000, 0.000000)">
		<path id="Fill-1" class="st1" d="M224.37,148.28c-1.01-4.43-2.55-8.62-4.36-12.7c-0.11-0.24-0.19-0.51-0.34-0.73
			c-1.64-2.4-1.78-5.13-1.78-8.02c0.06-23.56,0.03-47.13,0.03-70.69v-1.43c1.21,0.04,2.11,0.6,2.69,1.57
			c2.06,3.46,3.79,7,3.78,11.36c-0.06,26.43-0.03,52.86-0.03,79.3V148.28z"/>
		<path id="Fill-3" class="st1" d="M21.32,25.22v1.11c0,28.97,0,57.93,0.02,86.9c0,0.89-0.28,1.49-0.88,2.12
			c-1.7,1.78-3.32,3.64-5.06,5.57c-0.03-0.41-0.07-0.74-0.07-1.06c0-27.1-0.01-54.2,0.01-81.31c0-0.64,0.12-1.33,0.38-1.9
			c1.59-3.52,3.24-7.02,4.88-10.53c0.15-0.33,0.36-0.64,0.54-0.96C21.2,25.19,21.26,25.2,21.32,25.22"/>
		<path id="Fill-5" class="st1" d="M14.23,42.2v1.16c0,26.1,0.01,52.21-0.03,78.31c0,0.82-0.35,1.71-0.76,2.44
			c-1.89,3.38-3.86,6.71-5.74,9.95c0-0.06-0.04-0.37-0.04-0.69c0-23.44,0-46.87,0-70.31c0-0.46,0.02-0.94,0.15-1.37
			c1.96-6.29,3.93-12.58,5.91-18.87c0.08-0.24,0.21-0.46,0.32-0.69C14.1,42.16,14.16,42.18,14.23,42.2"/>
		<path id="Fill-7" class="st1" d="M23.53,112.17v-1.52c0-29.46-0.01-58.92,0.03-88.37c0-0.87,0.29-1.84,0.75-2.59
			c1.38-2.23,2.9-4.38,4.37-6.55c0.1,0.04,0.2,0.08,0.3,0.12v1.11c0,30.74-0.01,61.48,0.02,92.22c0,0.92-0.31,1.48-1.02,2.01
			C26.52,109.69,25.14,110.87,23.53,112.17"/>
		<path id="Fill-9" class="st1" d="M31.76,106.15v-1.45c0-31.07,0-62.14-0.02-93.22c0-0.97,0.25-1.7,0.99-2.35
			c1.25-1.12,2.44-2.31,3.85-3.66c0.03,0.67,0.06,1.03,0.06,1.4c0,31.69,0,63.39,0.02,95.08c0,0.84-0.24,1.33-1,1.75
			C34.39,104.4,33.2,105.24,31.76,106.15"/>
		<path id="Fill-11" class="st1" d="M216.68,129.68c-1.97-2.59-3.89-5.09-5.77-7.62c-0.21-0.28-0.23-0.73-0.23-1.11
			c-0.01-20.86-0.01-41.73-0.02-62.59c0-0.73,0.21-1.16,0.88-1.44c1.65-0.68,3.28-1.4,5.13-2.2V129.68z"/>
		<path id="Fill-13" class="st1" d="M44.29,1.09v1.43c0,31.6-0.01,63.19,0.03,94.79c0,1.01-0.31,1.54-1.28,1.91
			c-0.98,0.38-1.89,0.9-3.01,1.45c-0.03-0.52-0.06-0.92-0.06-1.32c0-31.75,0-63.5-0.03-95.25c0-0.95,0.26-1.53,1.22-1.84
			C42.15,1.93,43.12,1.53,44.29,1.09"/>
		<g id="Group-17" transform="translate(225.433962, 69.490566)">
			<g id="Clip-16">
			</g>
			<defs>
				<filter id="Adobe_OpacityMaskFilter" filterUnits="userSpaceOnUse" x="0.03" y="0.04" width="6.43" height="83.13">
					<feColorMatrix  type="matrix" values="1 0 0 0 0  0 1 0 0 0  0 0 1 0 0  0 0 0 1 0"/>
				</filter>
			</defs>
			
				<mask maskUnits="userSpaceOnUse" x="0.03" y="0.04" width="6.43" height="83.13" id="mask-2_00000120525523534229962350000015618270006091587995_">
				<g class="st2">
					<polygon id="path-1_00000106859596177533484840000009581366646176736134_" class="st3" points="0.03,0.04 6.45,0.04 
						6.45,83.17 0.03,83.17 					"/>
				</g>
			</mask>
			<path id="Fill-15" class="st4" d="M0.03,83.12V0.08C0.1,0.07,0.17,0.05,0.25,0.04C0.74,1.92,1.27,3.8,1.71,5.7
				c1.84,7.92,3.11,15.93,3.88,24.02c0.77,8.18,1.12,16.36,0.66,24.57C5.73,63.67,4.49,72.92,0.87,81.7
				c-0.2,0.49-0.43,0.98-0.65,1.47C0.16,83.15,0.09,83.14,0.03,83.12"/>
		</g>
		<path id="Fill-18" class="st1" d="M6.56,66.78v1.38c0,22.35,0.01,44.7-0.02,67.05c0,1.29-0.26,2.58-0.48,3.86
			c-0.35,2.12-0.76,4.22-1.17,6.47c-0.19-0.36-0.41-0.72-0.58-1.1c-1.95-4.32-2.89-8.91-3.47-13.59
			c-1.36-10.92-0.93-21.84,0.16-32.75C2.03,87.9,3.76,77.82,6.1,67.84c0.09-0.36,0.18-0.73,0.27-1.09
			C6.44,66.76,6.5,66.77,6.56,66.78"/>
		<path id="Fill-20" class="st1" d="M78.25,12.58c1.63,1.21,3.14,2.26,4.54,3.41c0.31,0.25,0.37,0.9,0.37,1.36
			c0.02,17.38,0.02,34.77,0.02,52.16v17.3c-1.64,0.25-3.25,0.49-4.92,0.74V12.58z"/>
		<path id="Fill-22" class="st1" d="M93.57,25.72c2.05,1.79,3.94,3.42,5.79,5.09c0.21,0.19,0.22,0.64,0.22,0.97
			c0.01,17.67,0.01,35.34,0.01,53.02c0,0.22-0.02,0.45-0.04,0.77c-2,0.12-3.95,0.23-5.98,0.34V25.72z"/>
		<path id="Fill-24" class="st1" d="M91.38,85.91c-1.67,0.18-3.26,0.36-4.92,0.54V18.6c1.66,1.5,3.21,2.83,4.67,4.25
			c0.27,0.27,0.25,0.93,0.25,1.41c0.01,18.46,0.01,36.92,0.01,55.37V85.91z"/>
		<g id="Group-28" transform="translate(47.603774, 0.000000)">
			<g id="Clip-27">
			</g>
			<defs>
				
					<filter id="Adobe_OpacityMaskFilter_00000020372672917186702070000016623621293502187705_" filterUnits="userSpaceOnUse" x="0.26" y="0.26" width="3.53" height="96.27">
					<feColorMatrix  type="matrix" values="1 0 0 0 0  0 1 0 0 0  0 0 1 0 0  0 0 0 1 0"/>
				</filter>
			</defs>
			
				<mask maskUnits="userSpaceOnUse" x="0.26" y="0.26" width="3.53" height="96.27" id="mask-4_00000057839769941501155650000014415623563559297676_">
				<g style="filter:url(#Adobe_OpacityMaskFilter_00000020372672917186702070000016623621293502187705_);">
					<polygon id="path-3_00000000913155791049169790000007895623680093797266_" class="st3" points="0.26,0.26 3.8,0.26 3.8,96.53 
						0.26,96.53 					"/>
				</g>
			</mask>
			<path id="Fill-26" class="st6" d="M0.26,96.53V0.26h3.45c0.02,0.4,0.06,0.8,0.06,1.21c0,30.83,0,61.67,0.03,92.5
				c0,0.88-0.26,1.34-1.11,1.6C1.9,95.81,1.16,96.17,0.26,96.53"/>
		</g>
		<path id="Fill-29" class="st1" d="M74.96,88.35c-1.29,0.28-2.51,0.55-3.83,0.84V8.21c1.26,0.87,2.44,1.61,3.54,2.48
			c0.26,0.2,0.28,0.83,0.28,1.26c0.02,7.61,0.01,15.22,0.01,22.83V86.8V88.35z"/>
		<path id="Fill-31" class="st1" d="M207.59,119.28c-1.59-1.72-3.2-3.41-4.74-5.17c-0.28-0.32-0.37-0.91-0.37-1.37
			c-0.02-12.69-0.02-25.38-0.02-38.07c0-3.82,0.02-7.63-0.02-11.45c-0.01-0.7,0.2-1.15,0.77-1.53c1.53-0.99,3.04-2.03,4.7-3.15
			v60.45C207.81,119.09,207.7,119.19,207.59,119.28"/>
		<path id="Fill-33" class="st1" d="M107.15,85.36h-5.92V32.83c2.02,1.94,3.95,3.77,5.85,5.62c0.16,0.15,0.17,0.5,0.17,0.75
			c0.01,15.22,0,30.43,0,45.65C107.24,84.96,107.2,85.07,107.15,85.36"/>
		<path id="Fill-35" class="st1" d="M64.02,3.83c1.04,0.53,1.97,0.98,2.87,1.49c0.2,0.11,0.31,0.47,0.37,0.74
			c0.06,0.25,0.01,0.54,0.01,0.81c0,27.23-0.01,54.46,0.03,81.69c0,1.08-0.23,1.64-1.31,1.76c-0.65,0.07-1.28,0.32-1.98,0.5V3.83z"
			/>
		<path id="Fill-37" class="st1" d="M108.34,39.4c2.39,2.28,4.64,4.4,6.85,6.55c0.21,0.21,0.25,0.65,0.26,0.98
			c0.01,12.57,0.01,25.14,0.01,37.7c0,0.22-0.04,0.45-0.07,0.72h-7.04V39.4z"/>
		<path id="Fill-39" class="st1" d="M56.36,1.09c0.8,0.22,1.54,0.39,2.24,0.65c0.21,0.08,0.4,0.42,0.46,0.67
			c0.08,0.33,0.02,0.7,0.02,1.05c0,28.97,0,57.94,0,86.91c0,2.63,0,2.63-2.72,3.19V1.09z"/>
		<path id="Fill-41" class="st1" d="M123.05,85.36h-6.51V47.3c0.1-0.08,0.21-0.16,0.31-0.25c2.01,2.1,4.03,4.19,6.01,6.31
			c0.18,0.19,0.23,0.57,0.23,0.86c0.01,10.23,0.01,20.46,0.01,30.69C123.11,85.11,123.06,85.29,123.05,85.36"/>
		<path id="Fill-43" class="st1" d="M200.26,64.02v47.06c-0.99-0.71-1.79-1.48-2.76-1.96c-2.24-1.11-2.74-2.75-2.71-5.05
			c0.13-11.82,0.07-23.63,0.04-35.45c0-0.87,0.24-1.4,1.05-1.86C197.32,65.95,198.68,65.02,200.26,64.02"/>
		<path id="Fill-45" class="st1" d="M124.75,55.26c2.04,1.87,3.91,3.56,5.75,5.29c0.19,0.18,0.27,0.55,0.27,0.84
			c0.01,8.02,0.01,16.04,0,24.06c0,0.11-0.05,0.21-0.12,0.46c-1.94-0.15-3.88-0.31-5.89-0.47V55.26z"/>
		<path id="Fill-47" class="st1" d="M192.06,69.49v36.11c-1.64-0.93-3.2-1.8-4.73-2.73c-0.18-0.11-0.19-0.56-0.19-0.85
			c-0.01-9.67-0.01-19.34,0.01-29.01c0-0.33,0.14-0.82,0.39-0.98C188.97,71.17,190.46,70.38,192.06,69.49"/>
		<path id="Fill-49" class="st1" d="M137.83,87c-1.95-0.23-3.66-0.44-5.41-0.64V62.92c1.15,0.98,2.05,1.95,3.13,2.64
			c1.9,1.2,2.41,2.79,2.33,4.97c-0.17,4.99-0.05,9.99-0.05,14.99V87z"/>
		<path id="Fill-51" class="st1" d="M184.4,101.23c-1.19-0.62-2.27-1.13-3.29-1.75c-0.27-0.16-0.52-0.64-0.52-0.97
			c-0.03-7.17-0.03-14.34,0-21.5c0-0.31,0.19-0.78,0.43-0.91c1.07-0.59,2.18-1.09,3.38-1.67V101.23z"/>
		<path id="Fill-53" class="st1" d="M145.37,88.09c-1.55-0.23-3.11-0.45-4.75-0.7V70.04c1.58,1.09,3.13,2.15,4.66,3.25
			c0.18,0.13,0.26,0.47,0.26,0.72c0.01,4.57,0,9.13-0.01,13.7C145.53,87.81,145.45,87.91,145.37,88.09"/>
		<path id="Fill-55" class="st1" d="M176.19,96.85c-1.07-0.44-2.04-0.81-2.97-1.25c-0.18-0.09-0.3-0.49-0.3-0.75
			c-0.02-5.17-0.02-10.34,0.01-15.5c0-0.26,0.21-0.68,0.43-0.76c0.9-0.34,1.83-0.58,2.84-0.88V96.85z"/>
		<path id="Fill-57" class="st1" d="M153.21,89.74c-1.58-0.32-2.96-0.59-4.38-0.87V75.51c1.37,0.62,2.68,1.2,3.97,1.82
			c0.2,0.1,0.39,0.42,0.39,0.64C153.21,81.84,153.21,85.7,153.21,89.74"/>
		<path id="Fill-59" class="st1" d="M160.87,79.39v12.53c-1.12-0.3-2.17-0.58-3.28-0.88V78.79
			C158.67,78.99,159.73,79.18,160.87,79.39"/>
		<path id="Fill-61" class="st1" d="M167.98,94.11c-0.17,0-0.25,0.02-0.32,0c-2.41-0.72-2.41-0.72-2.41-3.29V79.64
			c0.91-0.1,1.78-0.19,2.74-0.3V94.11z"/>
	</g>
</g>
<text transform="matrix(1 0 0 1 255.7344 92.5662)"><tspan x="0" y="0" class="st7 st8 st9">The</tspan><tspan x="9.65" y="125.13" class="st7 st10 st11">Markets</tspan></text>
</svg>
