<svg xmlns="http://www.w3.org/2000/svg" xmlns:xlink="http://www.w3.org/1999/xlink" width="240" height="240" xmlns:v="https://vecta.io/nano"><defs><path id="A" d="M.026.038h6.428V83.17H.026z"/><path id="B" d="M.264.258h3.531v96.269H.264z"/></defs><g fill="none" fill-rule="evenodd"><path d="M0 144c-.223 48 43.443 96 119.918 96S240 192.87 240 144c-27.254 96-57.029-4.49-74.494 5.6S142.635 192 119.918 192s-28.593-46.925-46.673-42.4S22.047 212.444 0 144" fill="#fff"/><g transform="translate(4)"><g fill="#fff"><path d="M224.37 148.283c-1.012-4.434-2.551-8.62-4.357-12.7-.108-.244-.191-.51-.337-.725-1.637-2.404-1.783-5.128-1.776-8.015l.035-70.692v-1.433a3.08 3.08 0 0 1 2.69 1.567c2.057 3.463 3.786 7.002 3.775 11.362l-.03 79.296v1.342zM21.32 25.219v1.111l.019 86.896c0 .893-.282 1.495-.883 2.124l-5.06 5.574-.075-1.058.013-81.306c0-.636.123-1.326.383-1.9L20.6 26.131c.155-.332.36-.641.541-.962l.178.049m-7.093 16.984v1.158l-.032 78.313c-.001.817-.348 1.71-.756 2.438L7.7 134.057l-.038-.688.004-70.308c0-.458.016-.939.149-1.37l5.909-18.868c.075-.24.21-.461.317-.691l.185.07m9.303 69.968v-1.524l.032-88.373a5.19 5.19 0 0 1 .748-2.588l4.37-6.552.298.119v1.11L29 106.583c.001.923-.306 1.476-1.019 2.011l-4.452 3.576m8.228-6.019v-1.45l-.021-93.218c0-.972.253-1.696.987-2.353l3.853-3.658.062 1.402.023 95.08c0 .841-.238 1.327-1 1.749-1.271.702-2.465 1.536-3.903 2.449m184.921 23.527l-5.767-7.624c-.205-.277-.228-.734-.228-1.108l-.025-62.591c0-.726.214-1.161.884-1.44l5.135-2.2v74.962z"/><path d="M44.293 1.094v1.433l.028 94.788c.001 1.014-.312 1.543-1.278 1.914-.98.377-1.894.904-3.012 1.451l-.062-1.322-.026-95.252c0-.951.262-1.526 1.217-1.843l3.132-1.168"/></g><g transform="translate(225.434 69.491)"><mask id="C" fill="#fff"><use xlink:href="#A"/></mask><path d="M.026 83.118V.084l.22-.046 1.465 5.66c1.835 7.919 3.113 15.926 3.877 24.017.773 8.178 1.119 16.364.663 24.571C5.73 63.669 4.491 72.916.868 81.701c-.204.494-.43.979-.645 1.468l-.197-.052" fill="#fff" mask="url(#C)"/></g><path d="M6.565 66.782v1.382l-.021 67.054c-.002 1.288-.264 2.582-.477 3.862l-1.173 6.468-.576-1.103C2.37 140.122 1.431 135.53.85 130.856c-1.356-10.922-.929-21.839.158-32.753C2.025 87.899 3.759 77.82 6.101 67.845l.273-1.09.191.027m71.68-54.197l4.54 3.412c.309.254.368.898.369 1.364l.015 52.155v17.296l-4.924.736V12.585zm15.321 13.132l5.788 5.093c.211.191.222.638.223.966l.007 53.015-.037.77-5.981.343V25.717zm-2.189 60.194l-4.924.542V18.604l4.668 4.254c.273.268.247.933.247 1.415l.009 55.373v6.265z" fill="#fff"/><g transform="translate(47.604)"><mask id="D" fill="#fff"><use xlink:href="#B"/></mask><path d="M.264 96.527V.258h3.449L3.77 1.47l.026 92.503c.001.883-.256 1.339-1.106 1.6-.786.241-1.534.598-2.425.954" fill="#fff" mask="url(#D)"/></g><g fill="#fff"><path d="M74.962 88.346l-3.83.843V8.208l3.536 2.479c.255.203.282.827.282 1.257l.012 22.829v52.031 1.543zm132.63 30.937l-4.74-5.169c-.278-.318-.365-.907-.366-1.371l-.016-38.073-.017-11.446c-.006-.705.197-1.154.771-1.527l4.701-3.15v60.448l-.333.288"/><path d="M107.146 85.358h-5.92V32.83l5.85 5.624c.156.153.166.497.166.751v45.646c0 .109-.04.219-.095.507M64.019 3.83l2.869 1.495c.198.114.308.469.374.735.062.254.015.538.015.809l.025 81.693c.001 1.082-.225 1.642-1.305 1.765-.65.074-1.283.321-1.978.504v-87zm44.321 35.566l6.849 6.555c.213.208.255.649.255.982l.006 37.704c0 .224-.042.448-.07.722h-7.041V39.396zM56.358 1.094l2.238.65c.21.078.396.417.457.671.078.331.021.695.021 1.045v86.911c0 2.626 0 2.626-2.716 3.194V1.094zm66.696 84.264h-6.507V47.304l.312-.247 6.012 6.306c.182.193.233.571.234.864l.005 30.692c0 .186-.047.372-.056.439m77.21-21.339v47.057c-.986-.715-1.791-1.483-2.76-1.961-2.244-1.107-2.736-2.747-2.711-5.046l.041-35.451c-.002-.866.241-1.4 1.052-1.857l4.377-2.741"/><path d="M124.755 55.264l5.747 5.289c.191.179.266.553.266.837l-.001 24.059c0 .108-.054.215-.119.455l-5.893-.468V55.264zm67.302 14.227v36.113l-4.726-2.726c-.184-.112-.191-.559-.192-.851l.008-29.007c.001-.334.138-.822.391-.976l4.518-2.554M137.825 87l-5.41-.643V62.925c1.146.98 2.049 1.948 3.134 2.635 1.901 1.204 2.405 2.788 2.331 4.97-.172 4.991-.054 9.992-.054 14.989V87zm46.571 14.226l-3.289-1.746c-.27-.162-.517-.64-.519-.974l-.004-21.504c.001-.313.194-.78.431-.912l3.381-1.675v26.811z"/><path d="M145.374 88.094l-4.752-.696v-17.36l4.657 3.25c.18.13.263.473.263.718l-.009 13.698c0 .103-.081.205-.159.391m30.815 8.754l-2.971-1.254c-.179-.086-.298-.489-.299-.747l.006-15.504c.001-.264.214-.681.427-.762.896-.34 1.829-.58 2.837-.884v19.151z"/><path d="M153.207 89.736l-4.376-.874V75.509l3.966 1.819c.202.098.392.423.393.645l.017 11.763m7.661-10.342v12.531l-3.283-.877V78.792l3.283.601m7.113 14.713c-.172 0-.253.018-.323-.003-2.413-.719-2.413-.72-2.413-3.29V79.637l2.736-.298v14.766z"/></g></g></g></svg>