<?xml version="1.0" encoding="UTF-8"?>
<svg width="36px" height="36px" viewBox="0 0 36 36" version="1.1" xmlns="http://www.w3.org/2000/svg" xmlns:xlink="http://www.w3.org/1999/xlink">
    <title>Logos/Shadow/Stocks/Moderna</title>
    <g id="Logos/Shadow/Stocks/Moderna" stroke="none" stroke-width="1" fill="none" fill-rule="evenodd">
        <g id="moderna-logo" transform="translate(1.000000, 14.000000)" fill-rule="nonzero">
            <path d="M31.6616854,6.87431429 L31.2357324,6.87431429 C31.1373599,6.87431429 31.0857143,7.01905714 31.0857143,7.293 C31.0857143,7.55237143 31.136868,7.69711429 31.2357324,7.69711429 L32.8721591,7.69711429 C32.976434,7.69711429 33.0285714,7.55237143 33.0285714,7.293 C33.0285714,7.01905714 32.976434,6.87431429 32.8721591,6.87431429 L31.6616854,6.87431429 Z" id="Path" fill="#28ABE1"></path>
            <path d="M27.7792675,6.87431429 L27.3544058,6.87431429 C27.2575334,6.87431429 27.2,7.01905714 27.2,7.293 C27.2,7.55237143 27.2575334,7.69711429 27.3544058,7.69711429 L28.9889431,7.69711429 C29.0912246,7.69711429 29.1428571,7.55237143 29.1428571,7.293 C29.1428571,7.01905714 29.0912246,6.87431429 28.9889431,6.87431429 L27.7792675,6.87431429 Z" id="Path" fill="#3DB3E3"></path>
            <path d="M25.8329681,6.87431429 L25.4076147,6.87431429 C25.303858,6.87431429 25.2571429,7.01905714 25.2571429,7.293 C25.2571429,7.55237143 25.303858,7.69711429 25.4076147,7.69711429 L27.0431356,7.69711429 C27.147384,7.69711429 27.2,7.55237143 27.2,7.293 C27.2,7.01905714 27.147384,6.87431429 27.0431356,6.87431429 L25.8329681,6.87431429 Z" id="Path" fill="#4AB8E6"></path>
            <path d="M22.9221246,6.87431429 L22.4992299,6.87431429 C22.3949814,6.87431429 22.3428571,7.01905714 22.3428571,7.293 C22.3428571,7.55237143 22.3949814,7.69711429 22.4992299,7.69711429 L24.1298333,7.69711429 C24.2340818,7.69711429 24.2857143,7.55237143 24.2857143,7.293 C24.2857143,7.01905714 24.2340818,6.87431429 24.1298333,6.87431429 L22.9221246,6.87431429 Z" id="Path" fill="#57BDE8"></path>
            <path d="M20.0083306,6.87431429 L19.5844524,6.87431429 C19.4811874,6.87431429 19.4285714,7.01905714 19.4285714,7.293 C19.4285714,7.55237143 19.4811874,7.69711429 19.5844524,7.69711429 L21.2155476,7.69711429 C21.3193043,7.69711429 21.3714286,7.55237143 21.3714286,7.293 C21.3714286,7.01905714 21.3193043,6.87431429 21.2155476,6.87431429 L20.0083306,6.87431429 Z" id="Path" fill="#63C2EB"></path>
            <path d="M17.0935532,6.87431429 L16.6706584,6.87431429 C16.56641,6.87431429 16.5142857,7.01905714 16.5142857,7.293 C16.5142857,7.55237143 16.56641,7.69711429 16.6706584,7.69711429 L18.3012619,7.69711429 C18.4055104,7.69711429 18.4571429,7.55237143 18.4571429,7.293 C18.4571429,7.01905714 18.4055104,6.87431429 18.3012619,6.87431429 L17.0935532,6.87431429 Z" id="Path" fill="#70C7EB"></path>
            <path d="M13.2078389,6.87431429 L12.7844524,6.87431429 C12.6806957,6.87431429 12.6285714,7.01905714 12.6285714,7.293 C12.6285714,7.55237143 12.6806957,7.69711429 12.7844524,7.69711429 L14.4155476,7.69711429 C14.5242217,7.69711429 14.5714286,7.55237143 14.5714286,7.293 C14.5714286,7.01905714 14.5242217,6.87431429 14.4155476,6.87431429 L13.2078389,6.87431429 Z" id="Path" fill="#7DCCEE"></path>
            <path d="M12.2362637,6.87431429 L11.813476,6.87431429 C11.7092539,6.87431429 11.6571429,7.01905714 11.6571429,7.293 C11.6571429,7.55237143 11.7092539,7.69711429 11.813476,7.69711429 L13.4490746,7.69711429 C13.547889,7.69711429 13.6,7.55237143 13.6,7.293 C13.6,7.01905714 13.547889,6.87431429 13.4490746,6.87431429 L12.2362637,6.87431429 Z" id="Path" fill="#8AD1F0"></path>
            <path d="M9.32261634,6.87431429 L8.89775464,6.87431429 C8.79448964,6.87431429 8.74285714,7.01905714 8.74285714,7.293 C8.74285714,7.55237143 8.79448964,7.69711429 8.89775464,7.69711429 L10.5298333,7.69711429 C10.6330983,7.69711429 10.6857143,7.55237143 10.6857143,7.293 C10.6857143,7.01905714 10.63359,6.87431429 10.5298333,6.87431429 L9.32261634,6.87431429 Z" id="Path" fill="#97D7F0"></path>
            <path d="M5.43282244,6.87431429 L5.01298438,6.87431429 C4.90974552,6.87431429 4.85714286,7.01905714 4.85714286,7.293 C4.85714286,7.55237143 4.9092539,7.69711429 5.01298438,7.69711429 L6.64415847,7.69711429 C6.74788895,7.69711429 6.8,7.55237143 6.8,7.293 C6.8,7.01905714 6.74788895,6.87431429 6.64415847,6.87431429 L5.43282244,6.87431429 Z" id="Path" fill="#A3DCF3"></path>
            <path d="M4.46414467,6.87431429 L4.04114286,6.87431429 C3.93686799,6.87431429 3.88571429,7.01905714 3.88571429,7.293 C3.88571429,7.55237143 3.93686799,7.69711429 4.04065099,7.69711429 L5.67363472,7.69711429 C5.77692586,7.69711429 5.82857143,7.55237143 5.82857143,7.293 C5.82857143,7.01905714 5.77741772,6.87431429 5.67363472,6.87431429 L4.46414467,6.87431429 Z" id="Path" fill="#B0E1F5"></path>
            <path d="M0.576025442,6.87431429 L0.1513787,6.87431429 C0.0476744606,6.87431429 0,7.01905714 0,7.293 C0,7.55237143 0.0476744606,7.69711429 0.1513787,7.69711429 L1.78705504,7.69711429 C1.89026779,7.69711429 1.94285714,7.55237143 1.94285714,7.293 C1.94285714,7.01905714 1.89026779,6.87431429 1.78705504,6.87431429 L0.576025442,6.87431429 Z" id="Path" fill="#BDE6F5"></path>
            <path d="M0,1.56311301 L0.506542734,1.56311301 L0.506542734,2.27497475 C0.680246547,2.00938894 0.85955371,1.82181538 1.04446422,1.70020806 C1.28399715,1.54389733 1.56169085,1.4598069 1.8457431,1.45756698 C2.03457596,1.45756698 2.21500379,1.49599953 2.3887076,1.57343816 C2.55680807,1.6514504 2.69969346,1.75527552 2.80447609,1.88892886 C2.91093971,2.01569875 3.00563631,2.2026987 3.08464353,2.44132439 C3.25274399,2.12124473 3.46399024,1.87688285 3.71109793,1.70594425 C3.95247612,1.54382366 4.23489125,1.45748922 4.52358351,1.45756698 C4.79758726,1.45756698 5.03460892,1.52812222 5.24025182,1.6721007 C5.44589472,1.81607919 5.59886615,2.01627237 5.7042091,2.27497475 C5.80450905,2.52966178 5.85157718,2.91628129 5.85157718,3.42450813 L5.85157718,5.66621295 L5.34055177,5.66621295 L5.34055177,3.42450813 C5.34055177,2.98741011 5.30861268,2.68396542 5.25089818,2.51818939 C5.19130295,2.35527275 5.08232149,2.21616801 4.93991232,2.12124473 C4.79758726,2.01971409 4.62332312,1.97210368 4.42328356,1.97210368 C4.18214475,1.97230149 3.9474342,2.05172298 3.75368338,2.19868336 C3.55308349,2.34552994 3.40627575,2.55031208 3.31101882,2.79926293 C3.22136524,3.05394996 3.17373677,3.47269216 3.17373677,4.06007848 L3.17373677,5.66621295 L2.66775438,5.66621295 L2.66775438,3.56848661 C2.66775438,3.07058493 2.64197897,2.73444393 2.58370414,2.5566219 C2.52631293,2.38481484 2.41749886,2.23588827 2.27271828,2.13099626 C2.11913541,2.02341065 1.93654565,1.96765595 1.75048617,1.97153006 C1.51850753,1.97153006 1.3027786,2.04208525 1.09657537,2.19237355 C0.896535812,2.33577841 0.749167738,2.53425074 0.648307459,2.78262796 C0.553610864,3.0315788 0.506542734,3.41246212 0.506542734,3.92642515 L0.506542734,5.66621295 L0,5.66621295 L0,1.56311301 Z M8.85945483,1.98357607 C8.43472099,1.98357607 8.07386532,2.14533675 7.77128449,2.47516794 C7.46926398,2.80098378 7.31461156,3.19792845 7.31461156,3.66714916 C7.31461156,3.96428403 7.38409308,4.24421033 7.52193546,4.50750165 C7.65977784,4.76563041 7.84524869,4.96639722 8.08451168,5.10578674 C8.31817133,5.24574989 8.57256337,5.31802594 8.85945483,5.31802594 C9.13457925,5.31802594 9.39513497,5.24574989 9.62823429,5.10578674 C9.8668347,4.96447039 10.061638,4.75709568 10.1902502,4.50750165 C10.3286529,4.24421033 10.3981344,3.96428403 10.3981344,3.66714916 C10.3981344,3.19735483 10.243482,2.80098378 9.94202182,2.47516794 C9.63944098,2.14533675 9.27858532,1.98357607 8.85945483,1.98357607 L8.85945483,1.98357607 Z M8.85945483,1.45756703 C9.46405617,1.45756703 9.96723689,1.692751 10.3667557,2.15164656 C10.7326543,2.57612496 10.9125218,3.07402664 10.9125218,3.65682401 C10.9125218,4.23388518 10.720327,4.74096477 10.3331356,5.17290022 C9.95098718,5.60999824 9.45845282,5.82854725 8.85945483,5.82854725 C8.25429315,5.82854725 7.76063812,5.61057186 7.37905007,5.17290022 C7.00135627,4.76354763 6.79398442,4.21986749 6.80078447,3.65682401 C6.80078447,3.08091008 6.9812123,2.58243477 7.34655064,2.15738276 C7.74494875,1.692751 8.24868981,1.45756703 8.85945483,1.45756703 L8.85945483,1.45756703 Z M13.7881605,1.99390122 C13.5001483,1.99390122 13.2407133,2.06617727 13.0020106,2.21015575 C12.7599459,2.35929681 12.5750354,2.56006361 12.43215,2.8279439 C12.2937473,3.09066161 12.2192228,3.36714618 12.2192228,3.65682401 C12.2192228,3.95223803 12.2937473,4.2315907 12.43215,4.49316117 C12.5750354,4.76046783 12.7661096,4.96697084 13.005933,5.11611189 C13.250239,5.25951676 13.5051913,5.33924986 13.7825571,5.33924986 C14.0588022,5.33924986 14.3260819,5.26009038 14.5748706,5.11611189 C14.8202973,4.97041255 15.0119318,4.76964574 15.1497742,4.5206949 C15.2825736,4.2700232 15.3458914,3.98722881 15.3458914,3.67345897 C15.3458914,3.19620759 15.197963,2.79524759 14.8931408,2.47746241 C14.6092905,2.16195951 14.2070822,1.98594524 13.7881605,1.99390122 L13.7881605,1.99390122 Z M15.8143314,0 L15.8143314,5.72300127 L15.3145127,5.72300127 L15.3145127,5.01113953 C15.1203972,5.26290845 14.8775497,5.47089295 14.6012064,5.62204425 C14.3300783,5.75894368 14.0316376,5.82962868 13.7293253,5.82855948 C13.1717921,5.82855948 12.6915851,5.61573444 12.2976697,5.18896156 C11.9048749,4.76563041 11.7031544,4.25396186 11.7031544,3.64133628 C11.7031544,3.04993463 11.9048749,2.53826608 12.3038333,2.11550854 C12.7027918,1.692751 13.1807574,1.48165904 13.7444543,1.48165904 C14.0694486,1.48165904 14.361383,1.55278786 14.6224991,1.69791358 C14.8892185,1.84189206 15.1183955,2.05986745 15.3145127,2.3501189 L15.3145127,0 L15.8143314,0 Z M20.3110188,3.21972598 C20.242658,2.93463712 20.1395563,2.71207277 20.0106793,2.53826608 C19.8725644,2.35994659 19.6932924,2.21959448 19.4890075,2.12984903 C19.2788279,2.0240452 19.0474545,1.9698387 18.8132437,1.97153006 C18.4215696,1.97153006 18.0898513,2.10116805 17.8046409,2.36388576 C17.6017997,2.55432742 17.4449059,2.83998991 17.3384423,3.21972598 L20.3110188,3.21972598 Z M20.3110188,4.33885754 L20.7402353,4.57977771 C20.6178293,4.83975225 20.4529635,5.07642441 20.252744,5.27959344 C20.0694476,5.45437653 19.8563457,5.5932019 19.6240483,5.68915773 C19.394311,5.77749512 19.1298329,5.82854725 18.8345364,5.82854725 C18.1862289,5.82854725 17.6763242,5.60368843 17.3104255,5.16314869 C16.9450872,4.71572552 16.7629783,4.21552935 16.7629783,3.65682401 C16.7629783,3.12507878 16.9137084,2.65528444 17.225815,2.24686739 C17.620851,1.72028474 18.1492468,1.45756703 18.8093213,1.45756703 C19.4850852,1.45756703 20.026929,1.72659455 20.4342925,2.26235512 C20.7239856,2.64323844 20.868552,3.11475363 20.8747157,3.68493136 L17.2885725,3.68493136 C17.3014602,4.1667717 17.4449059,4.56371636 17.7334784,4.87117639 C18.0052858,5.17343131 18.3901212,5.34265848 18.7913906,5.33638176 C18.9970335,5.33638176 19.1886681,5.2962284 19.3819836,5.22337873 C19.5758595,5.15110268 19.7361152,5.0512929 19.8711559,4.93198005 C20.0112397,4.81094635 20.1552457,4.61419487 20.3110188,4.33885754 L20.3110188,4.33885754 Z M21.6653482,1.56311301 L22.1976664,1.56311301 L22.1976664,2.16369257 C22.3545601,1.92736136 22.5254623,1.75068657 22.7008471,1.63309458 C22.8829559,1.51837069 23.0633838,1.45756703 23.254458,1.45756703 C23.4029467,1.45756703 23.5570388,1.50861916 23.7212169,1.5952357 L23.4466528,2.04208525 C23.3611013,2.00044771 23.2683746,1.97647278 23.1737697,1.97153006 C22.9972642,1.97153006 22.8274828,2.04208525 22.6694683,2.18606373 C22.5030489,2.3294686 22.3825769,2.5566219 22.2962853,2.86006659 C22.2307261,3.09238247 22.1976664,3.56848661 22.1976664,4.28034835 L22.1976664,5.66621295 L21.6653482,5.66621295 L21.6653482,1.56311301 Z M24.3543953,1.56311301 L24.8418867,1.56311301 L24.8418867,2.29734591 C25.0357625,2.01627237 25.2576552,1.80575404 25.4918751,1.66808537 C25.7280419,1.5284147 25.996321,1.4557451 26.2690596,1.45753359 C26.5553908,1.45753359 26.8069811,1.53443203 27.0283134,1.69045653 C27.2474043,1.84992273 27.4132635,2.05986745 27.5169254,2.31914344 C27.623389,2.58472925 27.6743795,2.99371992 27.6743795,3.55586698 L27.6743795,5.66678657 L27.1868882,5.66678657 L27.1868882,3.71074424 C27.1868882,3.23578733 27.1661558,2.91914939 27.1308547,2.75968318 C27.0737005,2.4889348 26.9672369,2.28472628 26.8024984,2.14705761 C26.642803,2.01512514 26.4337981,1.94284908 26.1704407,1.94284908 C25.8779459,1.94284908 25.6112265,2.04782144 25.3758858,2.25833978 C25.1388642,2.47287346 24.9842117,2.73387031 24.9130492,3.04133034 C24.8676621,3.24611248 24.842447,3.62240684 24.842447,4.15816741 L24.842447,5.66563933 L24.3543953,5.66563933 L24.3543953,1.56311301 Z M30.7091532,1.97210368 C30.4267445,1.97210368 30.1656284,2.04437973 29.9224431,2.19007907 C29.6816938,2.34114981 29.4850607,2.55571915 29.3531428,2.81130893 C29.2147401,3.07402664 29.1390949,3.35624741 29.1390949,3.644778 C29.1390949,3.94248649 29.2147401,4.22183917 29.3531428,4.48455688 C29.4954679,4.75415802 29.6865421,4.96066102 29.9263654,5.11209656 C30.1717921,5.2577959 30.4267445,5.33638176 30.7029896,5.33638176 C30.9803553,5.33638176 31.2465144,5.2577959 31.4958634,5.11267018 C31.7407298,4.96697084 31.9329246,4.76563041 32.0713273,4.51323785 C32.203006,4.26256615 32.2663239,3.97690366 32.2663239,3.66313382 C32.2663239,3.18129348 32.1183955,2.77861263 31.8202973,2.45910659 C31.5342334,2.14260379 31.1303232,1.96536564 30.7091532,1.97153006 L30.7091532,1.97210368 Z M32.7353242,1.56483387 L32.7353242,5.72185404 L32.2349451,5.72185404 L32.2349451,5.00482972 C32.0220179,5.28016706 31.7821945,5.4820811 31.5216388,5.62204425 C31.2505108,5.75894368 30.95207,5.82962868 30.6497577,5.82855948 C30.0922245,5.82855948 29.6120175,5.61573444 29.2186624,5.18494623 C28.824747,4.76046783 28.6235868,4.24421033 28.6235868,3.62814303 C28.6235868,3.03559414 28.8253074,2.51991025 29.2242658,2.09485824 C29.6243449,1.66980623 30.1023106,1.45814065 30.6660074,1.45814065 C30.989881,1.45814065 31.2823758,1.5304167 31.5429315,1.67611604 C31.8102113,1.82124176 32.0393882,2.04036439 32.2349451,2.33004221 L32.2349451,1.56368663 L32.7353242,1.56483387 Z M33.6010416,1.92047793 L33.6643594,1.92047793 C33.6979795,1.92047793 33.7198326,1.92047793 33.7299186,1.90843192 C33.7434885,1.90100229 33.7517478,1.88631706 33.7512113,1.87057303 C33.7502828,1.86029108 33.7468117,1.85042058 33.7411253,1.84189206 C33.7360157,1.83284203 33.728673,1.82532522 33.7198326,1.82009452 C33.7086259,1.82009452 33.6862125,1.81607919 33.6604371,1.81607919 L33.6010416,1.81607919 L33.6010416,1.92047793 Z M33.5461287,2.12124473 L33.5461287,1.76904239 L33.6604371,1.76904239 C33.7035828,1.76904239 33.7299186,1.76904239 33.7512113,1.7753522 C33.7669007,1.78739821 33.7848314,1.79772336 33.7949174,1.81550557 C33.8056193,1.82934504 33.8111787,1.84662201 33.8106068,1.86426322 C33.8113199,1.88929754 33.8020083,1.9135428 33.7848314,1.9313767 C33.7628402,1.94988891 33.7362687,1.96180192 33.7080655,1.96579386 C33.7259962,1.97153006 33.7299186,1.97783987 33.7416856,1.98185521 C33.7512113,2.00021103 33.7669007,2.02200857 33.7887537,2.05470488 L33.8324599,2.12124473 L33.7629783,2.12124473 L33.7349616,2.06617727 C33.7080655,2.02200857 33.6918158,1.99390122 33.6766868,1.98185521 C33.6643594,1.97783987 33.64867,1.97153006 33.6324203,1.97153006 L33.6010416,1.97153006 L33.6010416,2.12067111 L33.5461287,2.12124473 Z M33.6817298,1.66407003 C33.6356806,1.66446957 33.5905848,1.67754634 33.5511718,1.70192891 C33.5091073,1.72413174 33.4752688,1.75977948 33.4547942,1.80345956 C33.4290537,1.84508321 33.4159857,1.89360269 33.4172517,1.94284908 C33.4166601,1.99020948 33.4297184,2.03669775 33.4547942,2.07650242 C33.4750611,2.12033046 33.5089569,2.15603855 33.5511718,2.17803306 C33.5959985,2.20671403 33.638584,2.21646556 33.6817298,2.21646556 C33.7293092,2.21776798 33.7761696,2.20437597 33.8162102,2.17803306 C33.8589465,2.15638849 33.8932987,2.12061551 33.9137084,2.07650242 C33.9358899,2.03544626 33.9485439,1.98971489 33.9506905,1.94284908 C33.9492024,1.8940613 33.9365345,1.84631444 33.9137084,1.80345956 C33.891248,1.76085375 33.8574393,1.7256467 33.8162102,1.70192891 C33.7756803,1.67678662 33.7291188,1.66367861 33.6817298,1.66407003 L33.6817298,1.66407003 Z M33.6817298,1.61875409 C33.7356361,1.61929578 33.7888547,1.63120724 33.8380632,1.65374488 C33.8891896,1.68045201 33.9307656,1.72301368 33.9568542,1.7753522 C33.9904743,1.82583072 34,1.88204542 34,1.94284908 C34,2.00021103 33.9910346,2.05470488 33.9630179,2.10518339 C33.9328448,2.15480224 33.8922679,2.19692897 33.8442269,2.22851157 C33.7431314,2.27922064 33.6248109,2.27922064 33.5237153,2.22851157 C33.4760336,2.19685603 33.4358371,2.15472681 33.406045,2.10518339 C33.3796644,2.05542627 33.3665243,1.99944408 33.3679423,1.94284908 C33.3679423,1.88204542 33.3780283,1.82583072 33.4054847,1.7753522 C33.4346811,1.72579606 33.4750255,1.68410186 33.523155,1.65374488 C33.5734933,1.63237828 33.6272527,1.6207103 33.6817298,1.61932771 L33.6817298,1.61875409 Z" id="Shape" fill="#E11735"></path>
        </g>
    </g>
</svg>