<?xml version="1.0" encoding="UTF-8"?>
<svg width="36px" height="36px" viewBox="0 0 36 36" version="1.1" xmlns="http://www.w3.org/2000/svg" xmlns:xlink="http://www.w3.org/1999/xlink">
    <title>Logos/Shadow/Commodities/NaturalGas</title>
    <g id="Logos/Shadow/Commodities/NaturalGas" stroke="none" stroke-width="1" fill="none" fill-rule="evenodd">
        <g id="Group">
            <circle id="Oval" fill="#65B7FC" cx="18" cy="18" r="18"></circle>
            <g id="fire" transform="translate(12.000000, 9.000000)" fill="#FFFFFF" fill-rule="nonzero">
                <path d="M3.38063104,18 C1.21996881,11.406626 5.78539432,8.99921331 5.78539432,8.99921331 C5.46596746,12.5174975 7.62493058,15.2584865 7.62493058,15.2584865 C8.41896678,15.0366269 9.93454529,13.9997086 9.93454529,13.9997086 C9.93454529,15.2584865 9.13484542,17.9984265 9.13484542,17.9984265 C9.13484542,17.9984265 11.9343614,15.9938227 12.815617,12.6643549 C13.6957401,9.33488743 11.1391924,5.99230742 11.1391924,5.99230742 C11.2932422,8.34884471 10.4323755,10.6665695 8.74575628,12.4372504 C8.83014398,12.347038 8.90093891,12.2468604 8.95530944,12.1382908 C9.2583119,11.5770855 9.74481491,10.1184766 9.45993595,6.74075584 C9.05895329,1.99935895 4.41990109,0 4.41990109,0 C4.8197511,2.88889536 3.62076754,3.55447416 0.812189835,9.03802557 C-1.99638773,14.5205279 3.38063104,18 3.38063104,18 Z" id="Path"></path>
            </g>
        </g>
    </g>
</svg>