<?xml version="1.0" encoding="UTF-8"?>
<svg width="36px" height="36px" viewBox="0 0 36 36" version="1.1" xmlns="http://www.w3.org/2000/svg" xmlns:xlink="http://www.w3.org/1999/xlink">
    <title>Logos/Shadow/Crypto/Polkadot</title>
    <g id="Logos/Shadow/Crypto/Polkadot" stroke="none" stroke-width="1" fill="none" fill-rule="evenodd">
        <g id="Polkadot_symbol_color" transform="translate(5.000000, 0.000000)" fill-rule="nonzero">
            <path d="M13.5,0 C6.07142857,0 -1.8189894e-12,6.01023849 -1.8189894e-12,13.4430186 C-1.8189894e-12,14.9366874 0.25,16.3947926 0.714285714,17.8173342 C1.03571429,18.7775498 2.10714286,19.311003 3.10714286,18.9909311 C4.07142857,18.6708592 4.60714286,17.603953 4.28571429,16.6081738 C3.89285714,15.505704 3.71428571,14.3321072 3.75,13.1585103 C3.89285714,8.14405097 7.96428571,4.01868017 13,3.76973538 C18.6071429,3.48522705 23.25,7.93066972 23.25,13.4430186 C23.25,18.5997321 19.1785714,22.8317936 14.0714286,23.1163019 C14.0714286,23.1163019 12.1785714,23.2229925 11.25,23.3652467 C10.7857143,23.4363738 10.4285714,23.5075008 10.1785714,23.5430644 C10.0714286,23.5786279 9.96428571,23.4719373 10,23.3652467 L10.3214286,21.8004509 L12.0714286,13.7630905 C12.2857143,12.7673113 11.6428571,11.7715322 10.6428571,11.5581509 C9.64285714,11.3447697 8.64285714,11.9849134 8.42857143,12.9806926 C8.42857143,12.9806926 4.21428571,32.5406403 4.17857143,32.7540216 C3.96428571,33.7498007 4.60714286,34.7455799 5.60714286,34.9589612 C6.60714286,35.1723424 7.60714286,34.5321987 7.82142857,33.5364195 C7.85714286,33.3230383 8.42857143,30.7268997 8.42857143,30.7268997 C8.85714286,28.7353414 10.5,27.2772362 12.4285714,27.0282914 C12.8571429,26.9571643 14.5357143,26.8504737 14.5357143,26.8504737 C21.5,26.3170206 27,20.5201634 27,13.4430186 C27,6.01023849 20.9285714,0 13.5,0 Z" id="Path" fill="#000000"></path>
            <path d="M15.0130941,31.052936 C13.6711557,30.7766546 12.3292174,31.6054988 12.052936,32.9869059 C11.7766546,34.3288443 12.6054988,35.6707826 13.9869059,35.947064 C15.3288443,36.2233454 16.6707826,35.3945012 16.947064,34.0130941 C17.2233454,32.631687 16.3945012,31.3292174 15.0130941,31.052936 Z" id="Path" fill="#E6007A"></path>
        </g>
    </g>
</svg>