<?xml version="1.0" encoding="UTF-8"?>
<svg width="36px" height="36px" viewBox="0 0 36 36" version="1.1" xmlns="http://www.w3.org/2000/svg" xmlns:xlink="http://www.w3.org/1999/xlink">
    <title>Logos/Shadow/Indices/Spain</title>
    <g id="Logos/Shadow/Indices/Spain" stroke="none" stroke-width="1" fill="none" fill-rule="evenodd">
        <g id="spain" fill-rule="nonzero">
            <path d="M0,18 C0,20.2507008 0.396070313,22.40667 1.11958594,24.3999856 L18,26 L34.8804141,24.3999856 C35.6039297,22.40667 36,20.2507008 36,18 C36,15.7492992 35.6039297,13.59333 34.8804141,11.6000144 L18,10 L1.11958594,11.6000144 C0.396070313,13.59333 0,15.7492992 0,18 Z" id="Path" fill="#FFDA44"></path>
            <g id="Group" transform="translate(1.065108, 0.000000)" fill="#D80027">
                <path d="M33.8697842,11.7391641 C31.3183029,4.88482031 24.6992365,0 16.9348921,0 C9.17054772,0 2.55148133,4.88482031 0,11.7391641 L33.8697842,11.7391641 Z" id="Path"></path>
                <path d="M0,24.2608359 C2.55148133,31.1151797 9.17054772,36 16.9348921,36 C24.6992365,36 31.3183029,31.1151797 33.8697842,24.2608359 L0,24.2608359 Z" id="Path"></path>
            </g>
        </g>
    </g>
</svg>