<svg xmlns="http://www.w3.org/2000/svg" width="30" height="28" viewBox="0 0 30 28">
    <g fill="none" fill-rule="evenodd">
        <g fill="#E9B983">
            <path d="M930 1620.427l-8.23 5.703c-.226.157-.538.1-.695-.126-.087-.125-.112-.283-.068-.429l2.881-9.59-7.967-6.063c-.22-.168-.263-.481-.095-.701.092-.121.234-.194.386-.197l10.01-.223 3.306-9.451c.091-.261.376-.399.637-.307.144.05.257.163.307.307l3.305 9.45 10.01.224c.277.006.495.235.49.51-.004.153-.077.295-.198.388l-7.967 6.064 2.881 9.59c.08.264-.07.542-.335.622-.146.044-.303.019-.428-.068l-8.23-5.703z" transform="translate(-915 -1599)"/>
        </g>
    </g>
</svg>
