<?xml version="1.0" encoding="UTF-8"?>
<svg width="36px" height="36px" viewBox="0 0 36 36" version="1.1" xmlns="http://www.w3.org/2000/svg" xmlns:xlink="http://www.w3.org/1999/xlink">
    <title>Logos/Shadow/Stocks/Starbucks</title>
    <g id="Logos/Shadow/Stocks/Starbucks" stroke="none" stroke-width="1" fill="none" fill-rule="evenodd">
        <g id="starbucks" fill-rule="nonzero">
            <path d="M36,18 C36,27.9410569 27.941077,36 18.0000605,36 C8.05880198,36 0,27.9410569 0,18 C0,8.05894314 8.05892299,0 18.0000605,0 C27.941077,0 36,8.05894314 36,18 Z" id="Path" fill="#FFFFFF"></path>
            <path d="M17.8977019,6.15205439 C18.5387946,6.511359 19.2189455,6.97376427 19.7364968,7.46390909 L19.5332474,7.66249096 C18.511613,7.55689017 17.435738,7.68880187 16.4672424,7.70332644 C16.3593732,7.59736849 16.1417984,7.4380744 16.3443132,7.30497216 L17.8977019,6.15205439 Z M35.9602072,18.4905604 C35.973798,18.9387982 36.0171415,19.3238185 35.837278,19.7827712 C33.9710567,20.2989888 32.7451934,18.3776973 30.9344371,18.6673554 L31.1391558,19.6632411 C32.8143717,19.7168153 33.8608612,21.2789213 35.5914197,21.2117749 C35.3455614,21.689181 35.7011254,22.9473424 34.6119045,22.4444588 C33.4810542,22.1801592 32.6634039,21.2117749 31.4244396,21.2117749 C31.2749411,21.4785747 31.3697092,21.8481179 31.3433847,22.1639678 C32.6505477,22.363264 33.5907599,23.4376062 34.8974332,23.63595 C34.774504,24.0726396 34.6527993,24.5615939 34.2845016,24.8277984 C33.2214827,24.5762376 32.3909762,23.6478554 31.2591464,23.6744044 L31.0577336,24.5888573 C32.1331188,24.6157634 32.8283298,25.5410502 33.7948664,25.818922 C33.8214357,26.2045375 33.4669737,26.5493175 33.2624999,26.8935023 C32.4044446,26.6430129 31.7501284,25.9260704 30.7695112,25.9790494 C30.7559205,25.6197448 30.9752094,25.2119853 30.8924404,24.8277984 C29.7912204,25.1463866 29.0527884,24.1514533 28.2366073,23.5545172 C28.2132214,21.6015573 26.098693,20.3201804 25.9870282,18.4906794 C25.9654789,18.1257793 26.0226581,17.7364731 26.1937059,17.3178797 C26.888672,15.7555356 26.6703625,13.7269765 25.9084221,12.2702333 C25.6766443,11.8867607 25.2665948,11.5842448 24.8842165,11.3587568 C25.4435197,12.5116745 26.1253847,13.87377 25.7850032,15.2907493 C25.7455777,16.3848544 25.0814664,17.4358621 25.0739976,18.4906794 C25.0714264,18.8667706 25.154073,19.2428618 25.3765454,19.6226437 C26.262272,21.1740348 27.8561881,22.6428025 27.2568473,24.5886192 C27.0920438,25.1862696 26.6015516,25.6483177 26.4788673,26.256564 C27.5153168,27.0912508 28.4953218,28.0318955 29.8705611,28.0847554 C30.3605636,27.7804537 30.0883808,26.4309779 31.0964244,27.0535107 L32.5682685,27.7693817 C32.461134,28.152378 32.1311598,28.4957294 31.8324077,28.7595528 C31.2739616,28.4953722 30.7292287,28.1784508 30.0329158,28.2042855 C29.8277074,28.4162014 29.6510273,28.653952 29.6665771,28.9578965 C30.1565796,29.0363531 30.6061771,29.237316 31.0153695,29.5160211 C30.8252212,29.9140183 30.454842,30.1633171 30.114338,30.4682141 L28.972713,30.0712884 C28.7820749,30.3365405 28.3861058,30.6151266 28.5250746,30.9063323 C28.7828095,31.0134808 29.0684606,31.1584885 29.2579968,31.3443316 C28.7541587,31.8740023 28.1153923,32.2148535 27.5007465,32.5742772 C26.9713186,30.8916887 25.226802,29.7121029 25.3766678,27.7662863 L25.2956129,27.6874726 C24.8856858,28.1358295 25.0225731,28.8525339 25.04902,29.4343502 C25.5397571,30.6529857 26.7102778,31.5943447 26.8878149,32.9308436 C26.6828513,33.2749093 26.2208875,33.3434843 25.8661805,33.4889682 C25.9075651,31.0794367 22.1483081,29.2518406 24.5590175,26.8144505 C25.3629546,25.6209353 26.7100329,24.4819469 26.2327641,22.8387652 C25.7427616,21.2521342 24.0095095,20.2691063 24.0248144,18.4906794 L24.0276305,18.3518626 C24.4222527,16.4972413 25.6215466,14.5236851 24.6405621,12.5506052 C24.3670325,11.756992 23.7561823,10.8551589 22.925431,10.5234747 C24.1641504,11.9019996 24.6551324,14.1514036 23.9465756,16.0065012 C23.5892974,16.7445162 23.0975808,17.623491 23.0483602,18.4909175 L23.0452992,18.4909175 C23.0189747,18.9439176 23.1139877,19.3945365 23.4148213,19.8215828 C24.3551559,21.3055894 25.9888648,22.935437 25.0491424,24.8692292 C23.9868582,26.4181201 22.1344725,27.9936792 23.1690854,30.0339055 C23.9180472,31.2521839 25.0769362,32.4679621 24.7641035,33.9657789 L23.5384851,34.3628236 C24.3556456,31.5691053 20.3505304,29.9275904 22.027338,27.1328006 C23.0623183,25.6364124 24.9137244,24.2321718 23.8656432,22.245996 C23.2391207,21.015336 21.9446914,20.2869644 21.9853413,18.7491454 L22.0300317,18.4907985 C22.4518354,16.3097314 24.1571714,14.24498 22.9646116,11.9142622 C22.6512892,11.2258926 22.0252565,10.5243081 21.3302905,10.1266682 L21.2884162,10.1673846 C22.6783483,11.478525 23.1011315,13.6359003 22.35168,15.3700391 C22.0021155,16.3874736 21.2346653,17.4009793 21.0788,18.4911557 C21.0044792,19.0053494 21.0670458,19.5381155 21.3724096,20.0993355 C22.2576465,21.4623833 23.8101781,22.9082927 22.8414376,24.6705282 C21.8212725,26.1259619 20.1181404,27.5423459 20.7984137,29.4351836 C21.5478653,31.091223 23.1122735,32.668925 22.2676865,34.7222473 L21.0026427,35 C22.0101965,32.9989424 20.4995392,31.0131237 19.6144247,29.2776753 C18.5378151,26.7875443 21.9274274,25.5952197 21.981913,23.3187905 C21.9690568,21.8493084 20.362407,21.0149788 20.0231274,19.6643126 C19.3276716,19.0938064 18.6069933,19.8909912 17.7757522,19.7430072 C17.1622084,19.8628945 16.2196699,18.9216545 15.8533312,19.9420653 C15.4172021,21.4378582 13.4296433,22.5374399 14.3030035,24.3116998 C15.1342446,25.8883304 17.1344147,27.0411291 16.4662628,29.0815935 C15.8680239,30.987289 13.8917296,32.8019082 15.1174704,35 C14.6138771,34.8414202 13.6737874,35.1451267 13.6873782,34.3629427 C12.9113573,31.701136 16.2206494,30.1502212 15.1985253,27.4897241 C14.7228482,25.8601146 12.5555484,24.9599482 13.0326947,22.9998451 C13.3854426,21.386427 15.2473786,20.2585105 14.9862154,18.4911557 C14.9630036,18.3358051 14.9254676,18.1827996 14.8740609,18.0339888 C14.1790948,16.1268647 12.7612466,14.2191453 13.6063233,11.9933139 C13.838346,11.3576853 14.3017791,10.8147996 14.7090126,10.2465554 C13.360465,10.9481399 12.6801917,12.4319084 12.7081079,13.9413926 C12.649337,15.5829075 13.8963823,16.9890528 14.0737969,18.4911557 C14.1435874,19.097378 14.0414729,19.718244 13.6063233,20.376731 C12.7216986,21.5438162 11.5647687,22.7744761 12.0951762,24.3113427 C12.5995041,25.8615432 14.58792,26.8007593 14.4654806,28.6025207 C14.4518898,30.7340614 11.904783,32.0610359 12.6266857,34.4448518 L11.3589481,34.0449498 C10.8555997,31.9266241 13.1706839,30.8429957 13.1972533,28.8830117 C13.5249011,26.6293217 10.5686018,25.7930873 10.7460165,23.5959479 C10.7332828,21.9266935 12.2444299,20.869495 12.911847,19.4653735 C13.0262054,19.1236889 13.0644065,18.8009338 13.0491016,18.4912747 C12.9673121,16.9388121 11.5286491,15.7251769 11.767406,13.9796089 C11.8477262,12.6950175 12.2972012,11.5688869 13.1556239,10.6028837 C11.9712676,11.065408 11.4819997,12.391073 11.1548416,13.5037505 C10.5870901,15.288011 11.9423719,16.8928573 12.0781572,18.4912747 C12.1383973,19.1972642 11.9611051,19.8990868 11.2780157,20.6166246 C10.2967863,21.7408504 9.30172129,23.1596154 10.0101557,24.6707663 C10.7603419,26.3381159 13.1171779,27.6359223 12.0949313,29.7154364 C11.5372199,31.0269339 10.2017733,32.0194861 10.2566262,33.5686152 C9.90277631,33.4228933 9.53570299,33.2776475 9.23499182,33.0133479 C9.23499182,31.0405061 12.1213783,29.8081794 10.7461389,27.7289033 C10.6243117,28.139044 10.5981097,28.6966923 10.5027294,29.1601691 C10.0254606,30.3659468 9.00431599,31.3309975 8.62218262,32.5776107 C7.98317138,32.3378362 7.31501957,31.8340002 6.78351013,31.3042104 L7.51973825,30.8662112 C7.43794873,30.600721 7.22037392,30.3758283 7.02998065,30.1506974 C6.55197723,30.0854558 6.2380426,30.3904719 5.84378773,30.510002 C5.50328376,30.2179628 5.1746564,29.9530679 4.90320825,29.5954301 C5.1475973,28.9187278 7.05716219,29.4782811 6.08976849,28.3654844 C5.43667672,27.9685588 4.78113617,28.5357315 4.20922173,28.8005073 L3.43393544,27.8483144 C4.10135262,27.4513888 4.76705564,26.8937404 5.59719478,27.0537488 C5.80179102,27.4119819 5.81599399,27.9386763 6.21012642,28.1257099 C7.61328195,28.09928 8.60748989,27.0672019 9.68312003,26.2590641 C8.93342358,25.1744833 8.3231856,23.6770236 8.9891335,22.3651689 C9.52260197,21.0508141 10.9130238,19.943613 10.9759577,18.4904413 C10.9902831,18.1598287 10.9372668,17.8118342 10.7885029,17.4372907 C10.0533768,15.5961225 9.79392769,13.1076583 11.1970832,11.4780488 C10.4341633,11.6773449 9.98432095,12.6020364 9.72511674,13.3039781 C8.88163171,15.1018107 9.94844621,16.7674936 9.98530047,18.4903223 C9.99032049,18.8003386 9.96448577,19.1108311 9.88722651,19.4237047 C9.16507892,20.840684 7.99504801,22.0839636 7.80502206,23.7145256 C6.9739034,24.2300289 6.29154862,25.1315048 5.10731473,24.8273222 C5.06568534,25.1316239 5.16106563,25.5954578 5.26966938,25.9402379 C4.33055917,25.9017835 3.69020111,26.5749141 2.89960989,26.8926689 C2.47829592,26.7612334 2.36871265,26.2318008 2.20562337,25.8614242 C3.1311428,25.5574796 3.79880486,24.6552893 4.86145642,24.6694567 C4.98463045,24.3367011 4.79240059,24.0318042 4.73815994,23.7142875 C3.41630417,23.1439003 1.3209987,26.5344358 1.1448084,23.5947574 C2.46568466,23.5153484 3.30965945,22.3230238 4.61792445,22.2042081 L4.65698262,21.2520151 C3.17240488,21.1062932 2.21737755,22.5901807 0.733412012,22.4439826 L0.406131493,21.1732015 C2.1227319,21.2774927 3.14546821,19.7816997 4.78027909,19.7012193 C4.99748659,19.4234666 5.02368862,19.0129688 5.0655629,18.6292582 C3.28113107,18.4030558 2.05673706,20.326014 0.162721964,19.7420548 C0.162721964,19.7420548 0.0974617632,18.9417746 0.0620767763,18.4904413 L0.0646480037,18.4904413 C0.0574790015,18.3905826 0.0491117394,18.2908087 0.0395479265,18.1911399 C1.72835458,18.8281972 3.21219769,17.6487304 4.65698262,17.0400079 C5.02442326,16.9330975 5.59743966,17.1184644 5.76212065,16.7214197 C5.74804012,16.4167608 6.31934236,16.0605516 5.84366529,15.8480405 C3.73146318,15.5692163 2.32830765,18.0464894 0.162477085,16.9201207 L0,16.6015325 C0.450209677,10.6158606 3.92185645,4.82912767 9.68287515,1.98147792 C12.0159579,0.684981173 14.9145883,0.0242321398 17.837829,0.00065947159 C21.365553,-0.0279134596 24.9304986,0.872014818 27.5822912,2.69722985 C30.1573142,4.2330249 32.6204277,6.76422944 33.957221,9.33376932 C35.2358557,11.5851972 35.824177,14.1114015 36,16.8007096 C33.7657258,18.4422245 32.2668227,15.2543188 29.9916537,15.9678087 C30.1140931,16.3127078 30.182047,16.6697503 30.4422307,16.9610752 C32.4586852,16.9471459 33.847148,19.00023 35.9580033,18.1910208 L35.9602072,18.4905604 L35.9602072,18.4905604 Z M10.2954395,11.1188632 C8.87857072,10.2181015 7.08238471,11.0663604 5.76199821,11.5569815 C5.63943637,10.3512038 5.13584311,9.25269363 4.08580281,8.45812804 C3.98393323,8.40872068 3.84312792,8.3051438 3.7162807,8.2974053 C3.64036827,8.2927622 3.56812902,8.32264472 3.51205178,8.4169354 C3.98797373,11.2639899 2.08465324,13.2505229 0.7358608,15.4101603 C1.18496852,15.7669648 1.90650391,15.7137477 2.45123681,15.6087422 C3.88108413,15.0528796 5.24310003,14.0850906 6.9456199,14.4167747 C7.44921316,13.5824451 8.29502454,12.7743074 8.98864375,12.1122488 C9.41252895,11.7555633 9.99460586,11.5292419 10.2954395,11.1188632 L10.2954395,11.1188632 Z M14.6274679,12.9068144 C14.6001639,13.078252 14.6410587,13.3839823 14.9128742,13.2657618 C15.3357799,12.6963271 16.0844968,13.146946 16.5473177,13.1869481 L16.5473177,13.0267016 C16.2933784,12.6389431 15.7710519,12.44429 15.2403996,12.4635768 C15.1179602,12.4678627 14.9935617,12.4851255 14.873816,12.5122698 C14.6964013,12.5506052 14.5727375,12.7084706 14.6274679,12.9068144 L14.6274679,12.9068144 Z M21.287804,11.2007723 C20.9073848,10.3794196 20.0356163,10.0470211 19.2447802,9.84832019 C18.8568921,9.80188918 18.4544338,9.77057801 18.0552814,9.76676829 C17.9804709,9.76605396 17.9057829,9.76510153 17.8312173,9.76676829 C16.7148148,9.7886742 15.6480003,10.0673793 14.9962554,10.9609978 C14.9027117,11.2132729 14.4914377,11.5675773 14.8733262,11.7936606 C15.731504,11.7404435 16.7107743,11.6357951 17.2828112,12.3517852 C17.2828112,12.9882472 17.705472,13.8347203 16.997405,14.1393792 C16.4107978,13.6112562 15.7160766,14.364272 15.0778,13.9404401 C14.7777011,13.7679311 14.5877976,13.9691321 14.4648684,14.220812 C14.2874537,15.862565 15.1717111,17.6746841 16.7513018,18.5881846 C17.3915374,18.8127202 18.2521639,19.0261838 18.9203158,18.7077147 C20.5273329,17.9800573 21.1930359,16.3123506 21.4925227,14.7758412 C21.4523626,14.4834449 21.4664431,13.913653 21.0446394,13.8997237 C20.5682277,14.1928344 19.8733841,14.019611 19.3685664,13.8997237 C19.0699367,13.9934191 19.0562235,14.4182034 18.7164542,14.4986838 L18.5094091,14.3380801 C18.3319944,13.6106609 18.2226561,12.5773923 18.9181118,12.0740325 C19.6951123,11.7693736 20.6076531,11.6363904 21.4111005,11.8754506 C21.5610888,11.6237707 21.3296783,11.4257841 21.287804,11.2007723 L21.287804,11.2007723 Z M20.4678273,12.5065552 C20.4138316,12.5079839 20.3614275,12.5106031 20.3080439,12.5122698 C20.0227601,12.6973986 19.1910293,12.5642964 19.4913731,13.1869481 C20.0091694,12.7887129 20.7310721,13.0677752 21.2486234,13.2657618 C21.4398738,13.1734951 21.3986117,12.9880091 21.4109781,12.8280007 C21.2447053,12.5273896 20.8477568,12.4992929 20.4678273,12.5065552 Z M26.3979349,6.90685598 C25.3897688,6.85482944 24.5455492,7.41140633 23.6191726,7.66308623 C23.5386075,6.89661735 24.1373362,6.08717002 24.2739786,5.3177248 C22.7762998,5.4114202 21.589862,6.28813297 20.3506528,6.98840789 C20.0630487,6.31316319 19.7767033,5.63741226 19.491618,4.96115843 L21.126184,3.45107902 L21.1680583,3.25202093 L18.9601086,3.13249083 C18.5799342,2.48459962 18.429946,1.70420144 17.9805934,1.10821772 C17.6127854,1.78372943 17.3657027,2.49852892 16.998262,3.17320726 L14.7931284,3.29309452 L14.7931284,3.45107902 L16.4667526,4.920442 C16.2621564,5.67571981 16.072008,6.49635821 15.5684147,7.06710251 C14.58792,6.49600105 13.6211385,5.87453979 12.5461205,5.47785227 C12.2874061,5.39677657 11.9186186,5.26474582 11.6870857,5.43713584 C12.0270999,6.16586464 12.5032668,6.94959633 12.4231914,7.74487624 C11.973349,7.66439582 11.6198665,7.38402393 11.1973281,7.26616059 C10.6920207,7.13198687 10.0925574,6.87018739 9.60231002,7.02948148 C10.4197155,8.14120661 11.0868878,9.30495829 11.317686,10.6430048 C14.0293514,9.37031887 17.1917163,8.67040111 20.4743166,9.21435828 C22.013135,9.45234699 23.4279223,10.0619029 24.8038963,10.563834 C24.8576472,9.16090309 25.7699432,8.0335819 26.3979349,6.90685598 L26.3979349,6.90685598 Z M31.0546726,14.5364239 C32.4428905,14.8935855 33.8353938,16.3643771 35.3054013,15.4101603 C34.0250525,13.3444564 32.1195281,11.4367371 32.6495682,8.73552358 C32.7050333,8.55110912 32.582349,8.36443263 32.4061587,8.33824078 C31.5756522,8.66825814 30.9323556,9.46389521 30.6037283,10.2458411 C30.4685552,10.7084845 30.3887247,11.2000579 30.1983314,11.6361523 C29.2032664,11.1325544 28.1417168,10.6449097 26.9295667,10.762654 C26.4922132,10.815633 25.8658132,10.8434916 25.7850032,11.2799431 C27.1604874,11.9947426 28.2917051,13.1875434 29.1348228,14.4579674 C29.7220422,14.3649863 30.4418634,14.4443952 31.0546726,14.5364239 L31.0546726,14.5364239 Z M16.5081371,16.4034268 L16.5473177,16.6428442 C17.0795618,16.9875051 17.2432633,17.5718216 17.980226,17.5188426 C18.6335627,17.5564636 19.12381,16.9611942 19.449254,16.4847406 C18.5652415,16.3659248 17.4889992,16.549625 16.5081371,16.4034268 L16.5081371,16.4034268 Z M17.2438755,15.3313466 C17.2704448,15.4373046 17.1764114,15.5962415 17.3249304,15.6499348 C17.7609371,15.5579062 18.5505488,15.8754229 18.7939583,15.3720631 C18.62389,15.1869343 18.3465647,15.1028822 18.0552814,15.1028822 C17.7642429,15.1028822 17.4623074,15.1852675 17.2438755,15.3313466 L17.2438755,15.3313466 Z" id="Shape" fill="#106E33"></path>
            <polygon id="Path" fill="#FFFFFF" opacity="0.99" points="16 15 19 15 19 16 16 16"></polygon>
            <path d="M17.0639573,15.5631747 C17.5075717,15.7129319 17.6173493,15.9371662 17.9677934,16 C18.340756,15.9905649 18.2869931,15.882563 18.9367924,15.5625724 C18.9797183,15.5410925 19.0382664,15.4065921 18.9656443,15.3036089 C18.5618595,14.7322831 18.2827709,15.1406024 18.0300008,15.1514427 C17.694053,15.1564614 17.379357,14.7415175 17.0514314,15.2811252 C16.9955574,15.3905323 16.9664241,15.4983334 17.0639573,15.5631747 Z" id="Path" fill="#106E33"></path>
            <g id="Group" transform="translate(30.008770, 34.004309)" fill="#106E33">
                <path d="M0.626783695,1.99488303 L0.626783695,0.337550929 L0,0.337550929 L0,0.000116116591 L1.67847215,0.000116116591 L1.67847215,0.337550929 L1.05316382,0.337550929 L1.05316382,1.99488303 L0.626783695,1.99488303 L0.626783695,1.99488303 Z M1.94944729,1.99488303 L1.94944729,0 L2.58766505,0 L2.97089078,1.36077033 L3.34981337,0 L3.9895065,0 L3.9895065,1.99488303 L3.59324839,1.99488303 L3.59324839,0.424638372 L3.17399919,1.99488303 L2.76335628,1.99488303 L2.34558245,0.424638372 L2.34558245,1.99488303 L1.94944729,1.99488303 Z" id="Shape"></path>
            </g>
        </g>
    </g>
</svg>