<svg xmlns="http://www.w3.org/2000/svg" width="32" height="32" viewBox="0 0 32 32">
    <defs>
        <filter id="exhue24mwa">
            <feColorMatrix in="SourceGraphic" values="0 0 0 0 1.000000 0 0 0 0 1.000000 0 0 0 0 1.000000 0 0 0 1.000000 0"/>
        </filter>
    </defs>
    <g fill="none" fill-rule="evenodd">
        <g>
            <g filter="url(#exhue24mwa)" transform="translate(-1252 -3515) translate(0 3479)">
                <g>
                    <path fill="#EAECF2" fill-rule="nonzero" d="M16 0C7.165 0 0 7.165 0 16s7.165 16 16 16 16-7.165 16-16S24.835 0 16 0zm7.305 12.475c.008.158.01.316.01.475 0 4.852-3.693 10.448-10.448 10.449-2.074 0-4.004-.608-5.63-1.65.288.034.58.05.877.05 1.72 0 3.304-.586 4.561-1.571-1.608-.03-2.963-1.092-3.43-2.551.223.043.453.066.69.066.335 0 .66-.045.968-.129-1.68-.336-2.946-1.822-2.946-3.6v-.047c.495.275 1.06.441 1.663.46-.986-.658-1.634-1.783-1.634-3.057 0-.673.182-1.304.497-1.846 1.811 2.222 4.518 3.683 7.57 3.837-.063-.27-.095-.55-.095-.838 0-2.027 1.645-3.672 3.673-3.672 1.056 0 2.01.447 2.68 1.16.837-.164 1.623-.47 2.332-.89-.274.857-.856 1.576-1.615 2.03.743-.088 1.451-.285 2.11-.578-.492.737-1.116 1.384-1.833 1.902z" transform="translate(1252 36)"/>
                </g>
            </g>
        </g>
    </g>
</svg>
