<?xml version="1.0" encoding="UTF-8"?>
<svg width="36px" height="36px" viewBox="0 0 36 36" version="1.1" xmlns="http://www.w3.org/2000/svg" xmlns:xlink="http://www.w3.org/1999/xlink">
    <title>Logos/Shadow/Indices/UK</title>
    <g id="Logos/Shadow/Indices/UK" stroke="none" stroke-width="1" fill="none" fill-rule="evenodd">
        <g id="united-kingdom" fill-rule="nonzero">
            <circle id="Oval" fill="#FFFFFF" cx="18" cy="18" r="18"></circle>
            <g id="Group" transform="translate(1.057792, 0.057792)" fill="#0052B4">
                <path d="M3.11196573,6.44416331 C1.69298387,8.29034274 0.623014113,10.4182157 0,12.7298387 L9.39764113,12.7298387 L3.11196573,6.44416331 Z" id="Path"></path>
                <path d="M34.8844153,12.7298387 C34.2614012,10.4182863 33.1913609,8.29041331 31.7724496,6.44423387 L25.4869153,12.7298387 L34.8844153,12.7298387 Z" id="Path"></path>
                <path d="M0,22.1547883 C0.623084677,24.4663407 1.69305444,26.5942137 3.11196573,28.4403226 L9.39742944,22.1547883 L0,22.1547883 L0,22.1547883 Z" id="Path"></path>
                <path d="M28.440252,3.11203629 C26.5940726,1.69305444 24.4662702,0.623084677 22.1546472,0 L22.1546472,9.39757056 L28.440252,3.11203629 Z" id="Path"></path>
                <path d="M6.44416331,31.772379 C8.29034274,33.1913609 10.4182157,34.2613306 12.7297681,34.8844153 L12.7297681,25.4869153 L6.44416331,31.772379 Z" id="Path"></path>
                <path d="M12.7296976,0 C10.4181452,0.623084677 8.29027218,1.69305444 6.44416331,3.11196573 L12.7296976,9.3975 L12.7296976,0 Z" id="Path"></path>
                <path d="M22.1547177,34.8844153 C24.4662702,34.2613306 26.5941431,33.1913609 28.440252,31.7724496 L22.1547177,25.4869153 L22.1547177,34.8844153 Z" id="Path"></path>
                <path d="M25.4869153,22.1547883 L31.7724496,28.4403931 C33.1913609,26.5942843 34.2614012,24.4663407 34.8844153,22.1547883 L25.4869153,22.1547883 Z" id="Path"></path>
            </g>
            <g id="Group" fill="#D80027">
                <path d="M35.8476328,15.6521953 L20.3479453,15.6521953 L20.347875,15.6521953 L20.347875,0.152367188 C19.5792891,0.0523125 18.7957266,0 18,0 C17.2041328,0 16.4207109,0.0523125 15.6521953,0.152367188 L15.6521953,15.6520547 L15.6521953,15.652125 L0.152367188,15.652125 C0.0523125,16.4207109 0,17.2042734 0,18 C0,18.7958672 0.0523125,19.5792891 0.152367188,20.3478047 L15.6520547,20.3478047 L15.652125,20.3478047 L15.652125,35.8476328 C16.4207109,35.9476875 17.2041328,36 18,36 C18.7957266,36 19.5792891,35.9477578 20.3478047,35.8476328 L20.3478047,20.3479453 L20.3478047,20.347875 L35.8476328,20.347875 C35.9476875,19.5792891 36,18.7958672 36,18 C36,17.2042734 35.9476875,16.4207109 35.8476328,15.6521953 Z" id="Path"></path>
                <path d="M22.6956797,22.6956797 L22.6956797,22.6956797 L30.7278984,30.7279687 C31.0973203,30.3586875 31.4497266,29.9726016 31.7859609,29.5723828 L24.9092578,22.6956797 L22.6956797,22.6956797 L22.6956797,22.6956797 Z" id="Path"></path>
                <path d="M13.3043203,22.69575 L13.3041797,22.69575 L5.27203125,30.7278984 C5.6413125,31.0973203 6.02739844,31.4497266 6.42761719,31.7859609 L13.3043203,24.9091172 L13.3043203,22.69575 Z" id="Path"></path>
                <path d="M13.3043203,13.3044609 L13.3043203,13.3043203 L5.27210156,5.27203125 C4.90267969,5.6413125 4.55027344,6.02739844 4.21403906,6.42761719 L11.0908125,13.3044609 L13.3043203,13.3044609 L13.3043203,13.3044609 Z" id="Path"></path>
                <path d="M22.6956797,13.3044609 L22.6956797,13.3044609 L30.7279687,5.27210156 C30.3586875,4.90267969 29.9726016,4.55027344 29.5723828,4.21410938 L22.6956797,11.0908828 L22.6956797,13.3044609 L22.6956797,13.3044609 Z" id="Path"></path>
            </g>
        </g>
    </g>
</svg>