<?xml version="1.0" encoding="UTF-8"?>
<svg width="36px" height="36px" viewBox="0 0 36 36" version="1.1" xmlns="http://www.w3.org/2000/svg" xmlns:xlink="http://www.w3.org/1999/xlink">
    <title>united-states-of-america</title>
    <g id="Symbols" stroke="none" stroke-width="1" fill="none" fill-rule="evenodd">
        <g id="Logos/Shadow/Indices/USA" fill-rule="nonzero">
            <g id="united-states-of-america">
                <circle id="Oval" fill="#FFFFFF" cx="18" cy="18" r="18"></circle>
                <g id="Group" transform="translate(1.056875, 4.045654)" fill="#D80027">
                    <path d="M16.3924306,14.028744 L34.943125,14.028744 C34.943125,12.4108184 34.7292361,10.8434486 34.3306944,9.35247265 L16.3924306,9.35247265 L16.3924306,14.028744 Z" id="Path"></path>
                    <path d="M16.3924306,4.67627133 L32.3338194,4.67627133 C31.2455556,2.88567177 29.8540972,1.30296718 28.2317361,0 L16.3924306,0 L16.3924306,4.67627133 Z" id="Path"></path>
                    <path d="M17.1653472,31.9543457 C21.3493056,31.9543457 25.1949306,30.4962101 28.2317361,28.057488 L6.09895833,28.057488 C9.13576389,30.4962101 12.9813889,31.9543457 17.1653472,31.9543457 Z" id="Path"></path>
                    <path d="M1.996875,23.3812166 L32.3338194,23.3812166 C33.2075,21.9437374 33.8850694,20.3724464 34.3306944,18.7049453 L0,18.7049453 C0.445625,20.3724464 1.12319444,21.9437374 1.996875,23.3812166 Z" id="Path"></path>
                </g>
                <path d="M8.3379375,2.81095313 L9.97825781,2.81095313 L8.45247656,3.91942969 L9.03529688,5.71303125 L7.50958594,4.60455469 L5.983875,5.71303125 L6.4873125,4.16355469 C5.14392188,5.28257812 3.96646875,6.593625 2.99615625,8.0544375 L3.52174219,8.0544375 L2.55051563,8.76002344 C2.39920313,9.01244531 2.25407812,9.268875 2.115,9.52910156 L2.57878125,10.9565156 L1.71351563,10.3278516 C1.49842969,10.7835469 1.30169531,11.2495078 1.12485938,11.7251719 L1.63582031,13.2979219 L3.52174219,13.2979219 L1.99596094,14.4063984 L2.57878125,16.2 L1.05307031,15.0915234 L0.139148438,15.7555547 C0.047671875,16.4908828 0,17.2398516 0,18 L18,18 C18,8.0589375 18,6.88696875 18,0 C14.4441562,0 11.1294141,1.03148438 8.3379375,2.81095313 Z M9.03529688,16.2 L7.50958594,15.0915234 L5.983875,16.2 L6.56669531,14.4063984 L5.04091406,13.2979219 L6.92683594,13.2979219 L7.50958594,11.5043203 L8.09233594,13.2979219 L9.97825781,13.2979219 L8.45247656,14.4063984 L9.03529688,16.2 Z M8.45247656,9.16291406 L9.03529688,10.9565156 L7.50958594,9.84803906 L5.983875,10.9565156 L6.56669531,9.16291406 L5.04091406,8.0544375 L6.92683594,8.0544375 L7.50958594,6.26083594 L8.09233594,8.0544375 L9.97825781,8.0544375 L8.45247656,9.16291406 Z M15.4918125,16.2 L13.9661016,15.0915234 L12.4403906,16.2 L13.0232109,14.4063984 L11.4974297,13.2979219 L13.3833516,13.2979219 L13.9661016,11.5043203 L14.5488516,13.2979219 L16.4347734,13.2979219 L14.9089922,14.4063984 L15.4918125,16.2 Z M14.9089922,9.16291406 L15.4918125,10.9565156 L13.9661016,9.84803906 L12.4403906,10.9565156 L13.0232109,9.16291406 L11.4974297,8.0544375 L13.3833516,8.0544375 L13.9661016,6.26083594 L14.5488516,8.0544375 L16.4347734,8.0544375 L14.9089922,9.16291406 Z M14.9089922,3.91942969 L15.4918125,5.71303125 L13.9661016,4.60455469 L12.4403906,5.71303125 L13.0232109,3.91942969 L11.4974297,2.81095312 L13.3833516,2.81095312 L13.9661016,1.01735156 L14.5488516,2.81095312 L16.4347734,2.81095312 L14.9089922,3.91942969 Z" id="Shape" fill="#0052B4"></path>
            </g>
        </g>
    </g>
</svg>