<svg xmlns="http://www.w3.org/2000/svg" xmlns:xlink="http://www.w3.org/1999/xlink" width="41" height="40" viewBox="0 0 41 40">
    <defs>
        <path id="znwka28ava" d="M20 40c11.046 0 20-8.954 20-20S31.046 0 20 0 0 8.954 0 20s8.954 20 20 20z"/>
    </defs>
    <g fill="none" fill-rule="evenodd">
        <g>
            <g>
                <g transform="translate(-1276 -816) translate(1217 804) translate(59.5 12)">
                    <mask id="sq324d2hjb" fill="#fff">
                        <use xlink:href="#znwka28ava"/>
                    </mask>
                    <use fill="#F3F3F3" xlink:href="#znwka28ava"/>
                    <circle cx="20" cy="20" r="19.95" stroke="#90A4BE" stroke-opacity=".6" stroke-width=".1" mask="url(#sq324d2hjb)"/>
                    <circle cx="20" cy="20" r="11.111" fill="#29537D" mask="url(#sq324d2hjb)"/>
                    <path fill="#FFF" fill-rule="nonzero" d="M22.308 16.991c-1.038-1.353-2.09-2.448-2.1-2.46-.054-.055-.13-.087-.208-.087-.079 0-.154.032-.208.088-.01.01-1.063 1.106-2.1 2.46-1.418 1.848-2.136 3.284-2.136 4.265 0 2.37 1.993 4.299 4.444 4.299 2.45 0 4.444-1.929 4.444-4.299 0-.981-.718-2.417-2.136-4.266zm-2.413 7.372c-.197.054-.4.081-.604.081-1.447 0-2.624-1.359-2.624-3.03 0-.23.061-.647.354-1.327.03-.068.097-.102.16-.08.064.021.104.093.096.168-.006.066-.01.127-.01.183 0 1.791 1.104 3.347 2.624 3.699.062.014.108.077.109.151.001.074-.042.138-.105.155z" mask="url(#sq324d2hjb)"/>
                </g>
            </g>
        </g>
    </g>
</svg>
