<?xml version="1.0" encoding="UTF-8"?>
<svg width="37px" height="37px" viewBox="0 0 37 37" version="1.1" xmlns="http://www.w3.org/2000/svg" xmlns:xlink="http://www.w3.org/1999/xlink">
    <title>Group 2</title>
    <g id="Symbols" stroke="none" stroke-width="1" fill="none" fill-rule="evenodd">
        <g id="Logos/Shadows/Indices/Japan" transform="translate(1.000000, 1.000000)" fill-rule="nonzero">
            <g id="Group-2">
                <g id="united-states-of-america" transform="translate(11.000000, 11.000000)">
                    <circle id="Oval" fill="#FFFFFF" cx="12.5" cy="12.5" r="12.5"></circle>
                    <g id="Group" transform="translate(0.430615, 2.717383)" fill="#D80027">
                        <path d="M11.5259277,9.78261719 L24.5693848,9.78261719 C24.5693848,8.65439453 24.4189941,7.56142578 24.1387695,6.52172852 L11.5259277,6.52172852 L11.5259277,9.78261719 Z" id="Path"></path>
                        <path d="M11.5259277,3.26088867 L22.7347168,3.26088867 C21.9695313,2.01225586 20.9911621,0.90859375 19.8504395,0 L11.5259277,0 L11.5259277,3.26088867 Z" id="Path"></path>
                        <path d="M12.0693848,22.2826172 C15.0112305,22.2826172 17.7151855,21.2658203 19.8504395,19.5652344 L4.28833008,19.5652344 C6.42358398,21.2658203 9.12753906,22.2826172 12.0693848,22.2826172 Z" id="Path"></path>
                        <path d="M1.40405273,16.3043457 L22.7347168,16.3043457 C23.3490234,15.3019531 23.8254395,14.20625 24.1387695,13.043457 L0,13.043457 C0.313330078,14.20625 0.789746094,15.3019531 1.40405273,16.3043457 Z" id="Path"></path>
                    </g>
                    <path d="M5.79023437,1.95205078 L6.9293457,1.95205078 L5.86977539,2.72182617 L6.27451172,3.96738281 L5.21499023,3.19760742 L4.15546875,3.96738281 L4.50507812,2.89135742 C3.57216797,3.66845703 2.75449219,4.57890625 2.08066406,5.59335938 L2.4456543,5.59335938 L1.77119141,6.08334961 C1.66611328,6.25864258 1.56533203,6.43671875 1.46875,6.61743164 L1.79082031,7.60869141 L1.18994141,7.17211914 C1.04057617,7.48857422 0.903955078,7.8121582 0.781152344,8.14248047 L1.13598633,9.23466797 L2.4456543,9.23466797 L1.38608398,10.0044434 L1.79082031,11.25 L0.731298828,10.4802246 L0.0966308594,10.9413574 C0.0331054688,11.452002 0,11.9721191 0,12.5 L12.5,12.5 C12.5,5.59648438 12.5,4.78261719 12.5,0 C10.0306641,0 7.72875977,0.716308594 5.79023437,1.95205078 Z M6.27451172,11.25 L5.21499023,10.4802246 L4.15546875,11.25 L4.56020508,10.0044434 L3.50063477,9.23466797 L4.81030273,9.23466797 L5.21499023,7.98911133 L5.61967773,9.23466797 L6.9293457,9.23466797 L5.86977539,10.0044434 L6.27451172,11.25 Z M5.86977539,6.36313477 L6.27451172,7.60869141 L5.21499023,6.83891602 L4.15546875,7.60869141 L4.56020508,6.36313477 L3.50063477,5.59335938 L4.81030273,5.59335938 L5.21499023,4.34780273 L5.61967773,5.59335938 L6.9293457,5.59335938 L5.86977539,6.36313477 Z M10.7582031,11.25 L9.69868164,10.4802246 L8.63916016,11.25 L9.04389648,10.0044434 L7.98432617,9.23466797 L9.29399414,9.23466797 L9.69868164,7.98911133 L10.1033691,9.23466797 L11.4130371,9.23466797 L10.3534668,10.0044434 L10.7582031,11.25 Z M10.3534668,6.36313477 L10.7582031,7.60869141 L9.69868164,6.83891602 L8.63916016,7.60869141 L9.04389648,6.36313477 L7.98432617,5.59335938 L9.29399414,5.59335938 L9.69868164,4.34780273 L10.1033691,5.59335938 L11.4130371,5.59335938 L10.3534668,6.36313477 Z M10.3534668,2.72182617 L10.7582031,3.96738281 L9.69868164,3.19760742 L8.63916016,3.96738281 L9.04389648,2.72182617 L7.98432617,1.95205078 L9.29399414,1.95205078 L9.69868164,0.706494141 L10.1033691,1.95205078 L11.4130371,1.95205078 L10.3534668,2.72182617 Z" id="Shape" fill="#0052B4"></path>
                </g>
                <g id="european-union">
                    <circle id="Oval" stroke="#F0EEF0" fill="#0052B4" cx="12.5" cy="12.5" r="13"></circle>
                    <g id="Group" transform="translate(4.891357, 4.891309)" fill="#FFDA44">
                        <polygon id="Path" points="7.60869141 0 8.01342773 1.24555664 9.32299805 1.24555664 8.26347656 2.01533203 8.66821289 3.26088867 7.60869141 2.49106445 6.54912109 3.26088867 6.95385742 2.01533203 5.89433594 1.24555664 7.20395508 1.24555664"></polygon>
                        <polygon id="Path" points="2.2284668 2.22851562 3.39545898 2.82304687 4.32148437 1.89707031 4.11655273 3.19052734 5.28349609 3.78510742 3.98999023 3.98999023 3.78510742 5.28354492 3.19052734 4.11660156 1.89707031 4.3215332 2.8230957 3.39550781"></polygon>
                        <polygon id="Path" points="0 7.60869141 1.24555664 7.20395508 1.24555664 5.89433594 2.0152832 6.95390625 3.26088867 6.54916992 2.49101562 7.60869141 3.26088867 8.66821289 2.0152832 8.26352539 1.24555664 9.32304687 1.24555664 8.01342773"></polygon>
                        <polygon id="Path" points="2.2284668 12.9888672 2.82304687 11.821875 1.89707031 10.8958496 3.19057617 11.1008301 3.78505859 9.93388672 3.98999023 11.2273926 5.28344727 11.4322754 4.11665039 12.0268555 4.32148437 13.3203125 3.39545898 12.3942871"></polygon>
                        <polygon id="Path" points="7.60869141 15.2173828 7.20390625 13.9718262 5.89433594 13.9718262 6.95390625 13.2020508 6.54912109 11.9565918 7.60869141 12.7263184 8.66821289 11.9565918 8.26347656 13.2020508 9.32299805 13.9718262 8.01337891 13.9718262"></polygon>
                        <polygon id="Path" points="12.9888672 12.9888672 11.8219238 12.3943359 10.8958496 13.3203613 11.1007812 12.0268066 9.93393555 11.4322754 11.2273926 11.2273926 11.4322754 9.93388672 12.0268066 11.1008301 13.3202637 10.8958496 12.3942383 11.8219727"></polygon>
                        <polygon id="Path" points="15.217334 7.60869141 13.9717773 8.01342773 13.9717773 9.32304687 13.202002 8.26347656 11.956543 8.66821289 12.7263184 7.60869141 11.956543 6.54916992 13.2020508 6.95390625 13.9717773 5.89433594 13.9717773 7.20400391"></polygon>
                        <polygon id="Path" points="12.9888672 2.22851562 12.3942871 3.39550781 13.3203125 4.3215332 12.0267578 4.11655273 11.4322754 5.28349609 11.2273926 3.98999023 9.93393555 3.78505859 11.1007812 3.19052734 10.8958496 1.89711914 11.8219727 2.8230957"></polygon>
                    </g>
                </g>
            </g>
        </g>
    </g>
</svg>