<svg xmlns="http://www.w3.org/2000/svg" width="32" height="32" viewBox="0 0 32 32">
    <defs>
        <filter id="cqv2ro9fea">
            <feColorMatrix in="SourceGraphic" values="0 0 0 0 1.000000 0 0 0 0 1.000000 0 0 0 0 1.000000 0 0 0 1.000000 0"/>
        </filter>
    </defs>
    <g fill="none" fill-rule="evenodd">
        <g>
            <g filter="url(#cqv2ro9fea)" transform="translate(-1296 -3515) translate(0 3479)">
                <g>
                    <path fill="#EAECF2" fill-rule="nonzero" d="M32 16c0-8.838-7.163-16-16-16C7.162 0 0 7.162 0 16c0 8.837 7.162 16 16 16 .094 0 .188 0 .281-.006v-12.45h-3.437v-4.007h3.437v-2.95c0-3.418 2.088-5.28 5.138-5.28 1.462 0 2.718.105 3.081.155v3.575h-2.1c-1.656 0-1.981.788-1.981 1.944v2.55h3.968l-.518 4.007h-3.45V31.38C27.106 29.462 32 23.306 32 16z" transform="translate(1296 36)"/>
                </g>
            </g>
        </g>
    </g>
</svg>
