<?xml version="1.0" encoding="UTF-8"?>
<svg width="36px" height="36px" viewBox="0 0 36 36" version="1.1" xmlns="http://www.w3.org/2000/svg" xmlns:xlink="http://www.w3.org/1999/xlink">
    <title>Logos/Shadow/Stocks/Nike</title>
    <g id="Logos/Shadow/Stocks/Nike" stroke="none" stroke-width="1" fill="none" fill-rule="evenodd">
        <path d="M4.62686273,11.576468 C2.27641452,14.3367758 0.0227816471,17.7598048 -2.87769808e-13,20.3183941 C-0.00861792425,21.2810764 0.298717274,22.1214907 1.03589357,22.7580456 C2.09681848,23.674818 3.26573889,23.9980908 4.42895028,24 C6.12880889,24.0023726 7.81677373,23.3165774 9.13841023,22.7877801 C11.3642117,21.8976498 35.9683924,11.2129942 35.9683924,11.2129942 C36.2057922,11.0940564 36.1613095,10.9458599 35.8642029,11.0198392 C35.7443137,11.0498115 9.07870347,18.2762326 9.07870347,18.2762326 C8.57360847,18.4190836 8.05169026,18.4938034 7.52680344,18.4984083 C5.47750566,18.51054 3.65395177,17.3730191 3.66870005,14.9759473 C3.67440907,14.0380041 3.96152484,12.9069059 4.62686273,11.576468 L4.62686273,11.576468 Z" id="Path" fill="#000000" fill-rule="nonzero"></path>
    </g>
</svg>