<?xml version="1.0" encoding="UTF-8"?>
<svg width="36px" height="36px" viewBox="0 0 36 36" version="1.1" xmlns="http://www.w3.org/2000/svg" xmlns:xlink="http://www.w3.org/1999/xlink">
    <title>Logos/Shadow/Stocks/Nvidia</title>
    <g id="Logos/Shadow/Stocks/Nvidia" stroke="none" stroke-width="1" fill="none" fill-rule="evenodd">
        <g id="nvidia-7" transform="translate(0.000000, 6.000000)" fill="#76B900" fill-rule="nonzero">
            <path d="M13.4221568,7.15859766 L13.4221568,4.99499165 C13.6341553,4.98163606 13.8461538,4.96828047 14.0581524,4.96828047 C19.9411115,4.78130217 23.7968347,10.0701169 23.7968347,10.0701169 C23.7968347,10.0701169 19.6363636,15.8931553 15.1711446,15.8931553 C14.5748988,15.8931553 13.9919028,15.7996661 13.4354067,15.6126878 L13.4354067,9.04173623 C15.7276408,9.32220367 16.1913876,10.3372287 17.5561281,12.6477462 L20.6168568,10.0567613 C20.6168568,10.0567613 18.3776224,7.10517529 14.6146485,7.10517529 C14.2171513,7.0918197 13.819654,7.11853088 13.4221568,7.15859766 M13.4221568,0 L13.4221568,3.23205342 L14.0581524,3.19198664 C22.2333456,2.9115192 27.5730585,9.94991653 27.5730585,9.94991653 C27.5730585,9.94991653 21.451601,17.4557596 15.0783953,17.4557596 C14.5218992,17.4557596 13.9786529,17.4023372 13.4354067,17.3088481 L13.4354067,19.312187 C13.8859036,19.3656093 14.3496503,19.4056761 14.8001472,19.4056761 C20.736106,19.4056761 25.0290762,16.3472454 29.1895473,12.7412354 C29.8785425,13.3021703 32.7007729,14.6510851 33.2837689,15.2387312 C29.3352963,18.5776294 20.1266102,21.2621035 14.9061465,21.2621035 C14.40265,21.2621035 13.9256533,21.2353923 13.4486566,21.1819699 L13.4486566,24 L36,24 L36,0 L13.4221568,0 Z M13.4221568,15.6126878 L13.4221568,17.3222037 C7.93669488,16.3338898 6.41295547,10.5776294 6.41295547,10.5776294 C6.41295547,10.5776294 9.04968715,7.639399 13.4221568,7.15859766 L13.4221568,9.02838063 L13.4089069,9.02838063 C11.1166728,8.74791319 9.31468531,10.9115192 9.31468531,10.9115192 C9.31468531,10.9115192 10.3349282,14.557596 13.4221568,15.6126878 M3.68347442,10.3372287 C3.68347442,10.3372287 6.92970188,5.50250417 13.4354067,4.99499165 L13.4354067,3.23205342 C6.22745675,3.8196995 0,9.96327212 0,9.96327212 C0,9.96327212 3.52447552,20.2470785 13.4221568,21.1819699 L13.4221568,19.312187 C6.16120721,18.4040067 3.68347442,10.3372287 3.68347442,10.3372287 Z" id="Shape"></path>
        </g>
    </g>
</svg>