<?xml version="1.0" encoding="UTF-8"?>
<svg width="36px" height="36px" viewBox="0 0 36 36" version="1.1" xmlns="http://www.w3.org/2000/svg" xmlns:xlink="http://www.w3.org/1999/xlink">
    <title>Logos/Shadow/Commodities/Oil</title>
    <g id="Logos/Shadow/Commodities/Oil" stroke="none" stroke-width="1" fill="none" fill-rule="evenodd">
        <g id="Group">
            <circle id="Oval" fill="#000000" cx="18" cy="18" r="18"></circle>
            <path d="M21.6352457,13.1260087 C20.0007999,10.9331546 18.3430604,9.15899827 18.3265607,9.14132354 C18.2420461,9.05116759 18.1236361,9 17.999776,9 C17.8758413,9 17.7575059,9.05116759 17.6729914,9.14132354 C17.6563423,9.15899827 15.9985281,10.9331546 14.3643064,13.1260087 C12.131838,16.1213549 11,18.4464725 11,20.0369007 C11,23.8762522 14.1401785,27 17.9999253,27 C21.8596721,27 25,23.8763264 25,20.0369007 C24.9997014,18.446324 23.867714,16.1213549 21.6352457,13.1260087 Z M17.8353811,25.0687342 C17.5249209,25.1558947 17.2049207,25.2 16.8840992,25.2 C14.6046112,25.2 12.75,22.9981852 12.75,20.2917847 C12.75,19.9185398 12.8467266,19.2427085 13.3076153,18.141051 C13.3539253,18.0302627 13.4606974,17.9753561 13.5604566,18.0106103 C13.6601526,18.0458646 13.7242158,18.1613034 13.7118959,18.2840932 C13.7012819,18.390156 13.6959749,18.489918 13.6959749,18.5807539 C13.6959749,21.4816528 15.4337686,24.0015059 17.8280524,24.5722495 C17.9267375,24.5956523 17.9981926,24.6976646 18,24.8170789 C18.001857,24.9366433 17.9333081,25.0412059 17.8353811,25.0687342 Z" id="Shape" fill="#FFFFFF" fill-rule="nonzero"></path>
        </g>
    </g>
</svg>