<?xml version="1.0" encoding="UTF-8"?>
<svg width="36px" height="36px" viewBox="0 0 36 36" version="1.1" xmlns="http://www.w3.org/2000/svg" xmlns:xlink="http://www.w3.org/1999/xlink">
    <title>Logos/Shadow/Stocks/Santander</title>
    <g id="Logos/Shadow/Stocks/Santander" stroke="none" stroke-width="1" fill="none" fill-rule="evenodd">
        <g id="banco-santander-logo" transform="translate(0.000000, 1.000000)" fill="#EA1D25" fill-rule="nonzero">
            <path d="M25.8895402,15.6481928 C25.8073512,14.4192771 25.4785951,13.1903614 24.821083,12.1253012 L19.2322299,2.37590361 C18.8212848,1.63855422 18.4925287,0.819277108 18.3281507,2.27373675e-13 L18.0815836,0.409638554 C16.6843704,2.78554217 16.6843704,5.81686747 18.0815836,8.19277108 L22.6019795,15.9759036 C23.9991928,18.3518072 23.9991928,21.3831325 22.6019795,23.7590361 L22.3554125,24.1686747 C22.1910345,23.3493976 21.8622784,22.5301205 21.4513333,21.7927711 L17.3418825,14.6650602 L14.711834,10.0771084 C14.3008889,9.33975904 13.9721328,8.52048193 13.8077548,7.70120482 L13.5611877,8.11084337 C12.1639744,10.486747 12.1639744,13.4361446 13.5611877,15.8939759 L18.0815836,23.6771084 C19.4787969,26.053012 19.4787969,29.0843373 18.0815836,31.460241 L17.8350166,31.8698795 C17.6706386,31.0506024 17.3418825,30.2313253 16.9309374,29.4939759 L11.2598953,19.7445783 C10.5201941,18.4337349 10.191438,16.9590361 10.191438,15.4843373 C4.19163984,17.0409639 0,20.4 0,24.2506024 C0,29.6578313 8.05452362,34 17.9993946,34 C27.9442656,34 35.9987892,29.6578313 35.9987892,24.2506024 C36.0809783,20.5638554 31.9715274,17.2048193 25.8895402,15.6481928 L25.8895402,15.6481928 Z" id="Shape"></path>
        </g>
    </g>
</svg>