<?xml version="1.0" encoding="UTF-8"?>
<svg width="36px" height="36px" viewBox="0 0 36 36" version="1.1" xmlns="http://www.w3.org/2000/svg" xmlns:xlink="http://www.w3.org/1999/xlink">
    <title>Logos/Shadow/Rising/Tesla</title>
    <g id="Logos/Shadow/Rising/Tesla" stroke="none" stroke-width="1" fill="none" fill-rule="evenodd">
        <g id="Group" fill="#E82127" fill-rule="nonzero">
            <path d="M18.5038522,36 L23.5653227,7.9897165 C28.3898131,7.9897165 29.9115643,8.51027911 30.1312809,10.6350674 C30.1312809,10.6350674 33.3676772,9.44765682 35,7.03605366 C28.6302173,4.13168493 22.2300452,4.00070195 22.2300452,4.00070195 L18.4954345,8.47658574 L18.5038522,8.47602418 L14.7692414,4 C14.7692414,4 8.36892667,4.13112338 2,7.03549211 C3.63089607,9.44709526 6.86857647,10.6345059 6.86857647,10.6345059 C7.08957708,8.50957717 8.60947349,7.98901456 13.4015772,7.98564522 L18.5038522,36 Z" id="Path"></path>
            <path d="M18,2.34063087 C23.1235094,2.29857266 28.987933,3.19139534 34.9913401,6 C35.7937252,4.4497892 36,3.76466704 36,3.76466704 C29.4373935,0.977701021 23.2915957,0.0239244171 17.9992902,0 C12.7072686,0.0239244171 6.56175468,0.977853406 0,3.76466704 C0,3.76466704 0.292731403,4.60857419 1.00795003,6 C7.01022147,3.19139534 12.8756388,2.29857266 17.9992902,2.34063087 L18,2.34063087 Z" id="Path"></path>
        </g>
    </g>
</svg>