<?xml version="1.0" encoding="UTF-8"?>
<svg width="36px" height="36px" viewBox="0 0 36 36" version="1.1" xmlns="http://www.w3.org/2000/svg" xmlns:xlink="http://www.w3.org/1999/xlink">
    <title>Logos/Shadow/Indices/Turkey</title>
    <g id="Logos/Shadow/Indices/Turkey" stroke="none" stroke-width="1" fill="none" fill-rule="evenodd">
        <g id="turkey" fill-rule="nonzero">
            <circle id="Oval" fill="#D80027" cx="18" cy="18" r="18"></circle>
            <g id="Group" transform="translate(5.022609, 11.069044)" fill="#F0F0F0">
                <polygon id="Path" points="12.1177739 3.04994444 13.5789913 5.14041667 15.9453913 4.34380556 14.4818783 6.43247222 15.942887 8.52287222 13.5773217 7.72322778 12.1138783 9.81189444 12.1154087 7.22915556 9.74977391 6.42951111 12.1162435 5.6329"></polygon>
                <path d="M8.13001739,11.6560889 C5.35046957,11.6560889 3.09711304,9.31666667 3.09711304,6.43095556 C3.09711304,3.54524444 5.35046957,1.20582222 8.13001739,1.20582222 C8.99666087,1.20582222 9.81210435,1.43339444 10.5240348,1.83386667 C9.40716522,0.699833333 7.87972174,0 6.19429565,0 C2.77321739,0 0,2.87921111 0,6.43088333 C0,9.98255556 2.77328696,12.8617667 6.19429565,12.8617667 C7.87986087,12.8617667 9.40723478,12.1618611 10.5240348,11.0279 C9.81210435,11.4285167 8.99666087,11.6560889 8.13001739,11.6560889 Z" id="Path"></path>
            </g>
        </g>
    </g>
</svg>