<?xml version="1.0" encoding="UTF-8"?>
<svg width="37px" height="37px" viewBox="0 0 37 37" version="1.1" xmlns="http://www.w3.org/2000/svg" xmlns:xlink="http://www.w3.org/1999/xlink">
    <title>Group 2</title>
    <g id="Symbols" stroke="none" stroke-width="1" fill="none" fill-rule="evenodd">
        <g id="Logos/Shadows/Indices/Japan" transform="translate(1.000000, 1.000000)" fill-rule="nonzero">
            <g id="Group-2">
                <g id="south-korea" transform="translate(11.000000, 11.000000)">
                    <circle id="Oval" fill="#FFFFFF" cx="12.5" cy="12.5" r="12.5"></circle>
                    <path d="M16.8478027,12.5 C16.8478027,13.5869629 14.9012207,16.3043457 12.5,16.3043457 C10.0987793,16.3043457 8.15219727,13.5869629 8.15219727,12.5 C8.15219727,10.0987305 10.0987793,8.15219727 12.5,8.15219727 C14.9012207,8.15219727 16.8478027,10.0987305 16.8478027,12.5 Z" id="Path" fill="#D80027"></path>
                    <path d="M16.8478027,12.5 C16.8478027,14.9012695 14.9012207,16.8478027 12.5,16.8478027 C10.0987793,16.8478027 8.15219727,14.9012695 8.15219727,12.5" id="Path" fill="#0052B4"></path>
                    <polygon id="Rectangle" fill="#000000" transform="translate(18.072150, 16.150874) rotate(-45.000000) translate(-18.072150, -16.150874) " points="17.2569479 15.6073975 18.8873522 15.6073975 18.8873522 16.6943499 17.2569479 16.6943499"></polygon>
                    <polygon id="Rectangle" fill="#000000" transform="translate(16.150416, 18.072473) rotate(-45.000000) translate(-16.150416, -18.072473) " points="15.3352138 17.5289969 16.9656181 17.5289969 16.9656181 18.6159493 15.3352138 18.6159493"></polygon>
                    <polygon id="Rectangle" fill="#000000" transform="translate(20.378221, 18.456161) rotate(-45.000000) translate(-20.378221, -18.456161) " points="19.5630188 17.9126846 21.1934231 17.9126846 21.1934231 18.999637 19.5630188 18.999637"></polygon>
                    <polygon id="Rectangle" fill="#000000" transform="translate(18.456509, 20.378095) rotate(-45.000000) translate(-18.456509, -20.378095) " points="17.6413066 19.8346184 19.2717109 19.8346184 19.2717109 20.9215709 17.6413066 20.9215709"></polygon>
                    <polygon id="Rectangle" fill="#000000" transform="translate(19.225122, 17.303606) rotate(-45.000000) translate(-19.225122, -17.303606) " points="18.40992 16.7601301 20.0403243 16.7601301 20.0403243 17.8470826 18.40992 17.8470826"></polygon>
                    <polygon id="Rectangle" fill="#000000" transform="translate(17.303929, 19.225207) rotate(-45.000000) translate(-17.303929, -19.225207) " points="16.4887269 18.6817306 18.1191312 18.6817306 18.1191312 19.768683 16.4887269 19.768683"></polygon>
                    <polygon id="Rectangle" fill="#000000" transform="translate(18.264984, 6.735249) rotate(-135.000000) translate(-18.264984, -6.735249) " points="16.0911037 6.19177244 20.4388647 6.19177244 20.4388647 7.27872491 16.0911037 7.27872491"></polygon>
                    <polygon id="Rectangle" fill="#000000" transform="translate(16.151273, 6.927871) rotate(-135.000000) translate(-16.151273, -6.927871) " points="15.3360712 6.38441908 16.9664755 6.38441908 16.9664755 7.47132272 15.3360712 7.47132272"></polygon>
                    <polygon id="Rectangle" fill="#000000" transform="translate(18.072495, 8.849178) rotate(-135.000000) translate(-18.072495, -8.849178) " points="17.2572929 8.30572599 18.8876972 8.30572599 18.8876972 9.39262962 17.2572929 9.39262962"></polygon>
                    <polygon id="Rectangle" fill="#000000" transform="translate(18.456046, 4.622060) rotate(-135.000000) translate(-18.456046, -4.622060) " points="17.6408438 4.07858425 19.2712481 4.07858425 19.2712481 5.16553671 17.6408438 5.16553671"></polygon>
                    <polygon id="Rectangle" fill="#000000" transform="translate(20.378311, 6.543588) rotate(-135.000000) translate(-20.378311, -6.543588) " points="19.5631088 6.00011129 21.193513 6.00011129 21.193513 7.08706375 19.5631088 7.08706375"></polygon>
                    <polygon id="Rectangle" fill="#000000" transform="translate(5.582685, 19.417448) rotate(45.000000) translate(-5.582685, -19.417448) " points="3.408804 18.8739714 7.75656504 18.8739714 7.75656504 19.9609239 3.408804 19.9609239"></polygon>
                    <polygon id="Rectangle" fill="#000000" transform="translate(7.696081, 19.224907) rotate(45.000000) translate(-7.696081, -19.224907) " points="6.88087842 18.6814552 8.51128271 18.6814552 8.51128271 19.7683588 6.88087842 19.7683588"></polygon>
                    <polygon id="Rectangle" fill="#000000" transform="translate(5.774686, 17.303672) rotate(45.000000) translate(-5.774686, -17.303672) " points="4.95948351 16.7601953 6.5898878 16.7601953 6.5898878 17.8471478 4.95948351 17.8471478"></polygon>
                    <polygon id="Rectangle" fill="#000000" transform="translate(7.888357, 17.111469) rotate(45.000000) translate(-7.888357, -17.111469) " points="5.71447654 16.5679931 10.0622376 16.5679931 10.0622376 17.6549456 5.71447654 17.6549456"></polygon>
                    <polygon id="Rectangle" fill="#000000" transform="translate(5.582617, 5.582568) rotate(135.000000) translate(-5.582617, -5.582568) " points="3.40873631 5.03909213 7.75649735 5.03909213 7.75649735 6.12604459 3.40873631 6.12604459"></polygon>
                    <polygon id="Rectangle" fill="#000000" transform="translate(6.735118, 6.735165) rotate(135.000000) translate(-6.735118, -6.735165) " points="4.56123779 6.19168874 8.90899883 6.19168874 8.90899883 7.27864121 4.56123779 7.27864121"></polygon>
                    <polygon id="Rectangle" fill="#000000" transform="translate(7.888717, 7.888577) rotate(135.000000) translate(-7.888717, -7.888577) " points="5.71483607 7.34512536 10.0625971 7.34512536 10.0625971 8.432029 5.71483607 8.432029"></polygon>
                </g>
                <g id="united-states-of-america">
                    <circle id="Oval" stroke="#F0EEF0" fill="#FFFFFF" cx="12.5" cy="12.5" r="13"></circle>
                    <g id="Group" transform="translate(0.430615, 2.717383)" fill="#D80027">
                        <path d="M11.5259277,9.78261719 L24.5693848,9.78261719 C24.5693848,8.65439453 24.4189941,7.56142578 24.1387695,6.52172852 L11.5259277,6.52172852 L11.5259277,9.78261719 Z" id="Path"></path>
                        <path d="M11.5259277,3.26088867 L22.7347168,3.26088867 C21.9695313,2.01225586 20.9911621,0.90859375 19.8504395,0 L11.5259277,0 L11.5259277,3.26088867 Z" id="Path"></path>
                        <path d="M12.0693848,22.2826172 C15.0112305,22.2826172 17.7151855,21.2658203 19.8504395,19.5652344 L4.28833008,19.5652344 C6.42358398,21.2658203 9.12753906,22.2826172 12.0693848,22.2826172 Z" id="Path"></path>
                        <path d="M1.40405273,16.3043457 L22.7347168,16.3043457 C23.3490234,15.3019531 23.8254395,14.20625 24.1387695,13.043457 L0,13.043457 C0.313330078,14.20625 0.789746094,15.3019531 1.40405273,16.3043457 Z" id="Path"></path>
                    </g>
                    <path d="M5.79023437,1.95205078 L6.9293457,1.95205078 L5.86977539,2.72182617 L6.27451172,3.96738281 L5.21499023,3.19760742 L4.15546875,3.96738281 L4.50507812,2.89135742 C3.57216797,3.66845703 2.75449219,4.57890625 2.08066406,5.59335938 L2.4456543,5.59335938 L1.77119141,6.08334961 C1.66611328,6.25864258 1.56533203,6.43671875 1.46875,6.61743164 L1.79082031,7.60869141 L1.18994141,7.17211914 C1.04057617,7.48857422 0.903955078,7.8121582 0.781152344,8.14248047 L1.13598633,9.23466797 L2.4456543,9.23466797 L1.38608398,10.0044434 L1.79082031,11.25 L0.731298828,10.4802246 L0.0966308594,10.9413574 C0.0331054688,11.452002 0,11.9721191 0,12.5 L12.5,12.5 C12.5,5.59648438 12.5,4.78261719 12.5,0 C10.0306641,0 7.72875977,0.716308594 5.79023437,1.95205078 Z M6.27451172,11.25 L5.21499023,10.4802246 L4.15546875,11.25 L4.56020508,10.0044434 L3.50063477,9.23466797 L4.81030273,9.23466797 L5.21499023,7.98911133 L5.61967773,9.23466797 L6.9293457,9.23466797 L5.86977539,10.0044434 L6.27451172,11.25 Z M5.86977539,6.36313477 L6.27451172,7.60869141 L5.21499023,6.83891602 L4.15546875,7.60869141 L4.56020508,6.36313477 L3.50063477,5.59335938 L4.81030273,5.59335938 L5.21499023,4.34780273 L5.61967773,5.59335938 L6.9293457,5.59335938 L5.86977539,6.36313477 Z M10.7582031,11.25 L9.69868164,10.4802246 L8.63916016,11.25 L9.04389648,10.0044434 L7.98432617,9.23466797 L9.29399414,9.23466797 L9.69868164,7.98911133 L10.1033691,9.23466797 L11.4130371,9.23466797 L10.3534668,10.0044434 L10.7582031,11.25 Z M10.3534668,6.36313477 L10.7582031,7.60869141 L9.69868164,6.83891602 L8.63916016,7.60869141 L9.04389648,6.36313477 L7.98432617,5.59335938 L9.29399414,5.59335938 L9.69868164,4.34780273 L10.1033691,5.59335938 L11.4130371,5.59335938 L10.3534668,6.36313477 Z M10.3534668,2.72182617 L10.7582031,3.96738281 L9.69868164,3.19760742 L8.63916016,3.96738281 L9.04389648,2.72182617 L7.98432617,1.95205078 L9.29399414,1.95205078 L9.69868164,0.706494141 L10.1033691,1.95205078 L11.4130371,1.95205078 L10.3534668,2.72182617 Z" id="Shape" fill="#0052B4"></path>
                </g>
            </g>
        </g>
    </g>
</svg>