<?xml version="1.0" encoding="UTF-8"?>
<svg width="36px" height="36px" viewBox="0 0 36 36" version="1.1" xmlns="http://www.w3.org/2000/svg" xmlns:xlink="http://www.w3.org/1999/xlink">
    <title>Logos/Shadow/Rising/AMC</title>
    <g id="Logos/Shadow/Rising/AMC" stroke="none" stroke-width="1" fill="none" fill-rule="evenodd">
        <g id="Amc_theatres_logo" fill-rule="nonzero">
            <circle id="Oval" fill="#CE2540" cx="18" cy="18" r="18"></circle>
            <g id="Group" transform="translate(3.068194, 14.063636)" fill="#FFFFFF">
                <path d="M8.60738498,0.2 C8.54291677,0.190909091 6.95884072,-0.0272727273 5.12610156,0.609090909 C3.42229883,1.2 1.13828219,2.63636364 0.060742085,6.18181818 C-0.123452805,6.78181818 0.060742085,7.59090909 1.32247708,7.48181818 L6.02865652,7.48181818 C6.55361196,7.48181818 6.98646995,7.06363636 6.98646995,6.53636364 C6.98646995,6.01818182 6.55361196,5.59090909 6.02865652,5.59090909 L2.32633923,5.59090909 C3.7262204,2.64545455 6.21285141,2.10909091 7.51142539,2.04545455 L7.51142539,6.57272727 C7.51142539,7.09090909 7.93507364,7.51818182 8.46923882,7.51818182 C8.99419425,7.51818182 9.42705225,7.1 9.42705225,6.57272727 L9.42705225,1.13636364 C9.42705225,0.663636364 9.07708195,0.263636364 8.60738498,0.2 L8.60738498,0.2 Z" id="Path"></path>
                <path d="M18.3313658,0.235454545 C18.4225423,0.235454545 18.3496011,0.235454545 18.3313658,0.235454545 C18.2766599,0.235454545 18.2037187,0.235454545 18.2948952,0.235454545 C18.2948952,0.235454545 18.2948952,0.235454545 18.3313658,0.235454545 C18.3313658,0.235454545 18.3313658,0.235454545 18.3313658,0.235454545 L18.3313658,0.235454545 Z" id="Path"></path>
                <path d="M18.2684061,0.190909091 C17.0711402,0.218181818 16.2883119,0.6 15.7265175,1.2 C15.2199815,0.645454545 14.3542656,0.181818182 13.184628,0.190909091 C11.8768443,0.1 9.61124714,1.26363636 9.77702254,3.36363636 L9.77702254,6.57272727 C9.77702254,7.09090909 10.2006708,7.51818182 10.734836,7.51818182 C11.2690011,7.51818182 11.6926494,7.1 11.6926494,6.57272727 L11.6926494,3.37272727 C11.7018591,2.26363636 12.9083357,2.09090909 13.184628,2.08181818 C14.5476702,2.04545455 14.7502846,3.20909091 14.7502846,3.37272727 L14.7502846,6.57272727 C14.7502846,7.09090909 15.201562,7.51818182 15.7265175,7.51818182 C16.2514729,7.51818182 16.7027504,7.1 16.7027504,6.57272727 L16.7027504,3.37272727 C16.7580089,2.19090909 17.8908074,2.06363636 18.2684061,2.08181818 C18.4894408,2.1 19.6959174,2.16363636 19.7603856,3.37272727 L19.7603856,6.57272727 C19.7603856,7.09090909 20.1840338,7.51818182 20.718199,7.51818182 C21.2431544,7.51818182 21.6760124,7.1 21.6760124,6.57272727 L21.6760124,3.36363636 C21.7128514,3.18181818 21.5654955,0.290909091 18.2684061,0.190909091 L18.2684061,0.190909091 Z" id="Path"></path>
                <path d="M29.2464224,4.44545455 C28.7767254,4.20909091 28.1965115,4.39090909 27.9570582,4.86363636 C27.5978782,5.55454545 26.8887278,5.98181818 26.1058995,5.98181818 C25.5533149,5.98181818 25.0283594,5.77272727 24.6415502,5.38181818 C24.2455312,4.99090909 24.033707,4.48181818 24.033707,3.93636364 C24.033707,3.39090909 24.2455312,2.87272727 24.6415502,2.49090909 C25.0375692,2.1 25.5533149,1.89090909 26.1058995,1.89090909 C26.9439863,1.89090909 27.7083951,2.35454545 28.0031069,3.03636364 C28.214931,3.51818182 28.7767254,3.73636364 29.2648419,3.52727273 C29.7529584,3.31818182 29.9739922,2.76363636 29.7621681,2.28181818 C29.1635347,0.918181818 27.6899756,0 26.1058995,0 C23.9047706,0 22.1180802,1.76363636 22.1180802,3.93636364 C22.1180802,4.99090909 22.5325187,5.97272727 23.2877177,6.71818182 C24.0429168,7.46363636 25.0375692,7.87272727 26.1058995,7.87272727 C27.6162976,7.87272727 28.9793398,7.04545455 29.6608609,5.71818182 C29.909524,5.24545455 29.7161194,4.67272727 29.2464224,4.44545455 L29.2464224,4.44545455 Z" id="Path"></path>
            </g>
        </g>
    </g>
</svg>