<?xml version="1.0" encoding="UTF-8"?>
<svg width="36px" height="36px" viewBox="0 0 36 36" version="1.1" xmlns="http://www.w3.org/2000/svg" xmlns:xlink="http://www.w3.org/1999/xlink">
    <title>Logos/Shadow/Stocks/Boeing</title>
    <g id="Logos/Shadow/Stocks/Boeing" stroke="none" stroke-width="1" fill="none" fill-rule="evenodd">
        <path d="M19.7491462,21.22099 C20.3866256,19.8366904 20.7162225,18.3276715 20.7146849,16.8003904 C20.7146849,13.1553126 18.8767464,9.94827252 16.0887923,8.06854359 C17.7952726,6.2906814 19.5873711,4.59911086 21.4585532,3 C19.2188761,4.33359572 17.1139398,5.86452841 15.1660975,7.51549729 C13.6835646,6.72625239 12.0333736,6.31446748 10.3582738,6.31576391 C4.63644831,6.31576391 0,11.0103728 0,16.7997619 C0,19.4147911 0.948152748,21.8042024 2.51226327,23.6399391 C0.529028252,27.9794671 0.179447377,31.4705718 1.92735175,32.6495659 C3.79944117,33.9140309 7.86960571,31.6251734 10.3117044,27.8958817 C10.3117044,27.8958817 6.53399565,31.3455079 4.46072648,30.5523893 C3.18162061,30.0634461 3.17851599,28.0875625 4.23222602,25.2519433 C6.00774374,26.573682 8.15485356,27.2850776 10.3588948,27.2818746 C13.195281,27.2818746 15.7652903,26.1261335 17.6355169,24.2570884 L18.0043465,24.9578232 C22.5190934,24.5870308 36,24.2269223 36,24.2269223 C35.9987581,23.5701798 27.070475,24.1640761 19.7491462,21.22099 L19.7491462,21.22099 Z M3.14290324,23 C1.75325477,21.2559993 0.997043633,19.0845446 1,16.8466941 C1,11.4090818 5.36867915,7 10.757866,7 C12.2782013,7 13.7162879,7.35178165 15,7.97745501 C9.60195563,12.6955429 5.46927562,18.2716971 3.14290324,23 Z M14.1190131,17.3040015 L17.2114175,23.006229 C15.3394084,24.9205589 12.7540483,26.0017332 10.0525722,26 C7.86328574,26.0024679 5.73486019,25.2919219 4,23.9794244 C5.83260764,19.6910247 9.86163522,13.7535818 15.4329947,8 C18.1802935,9.74033963 20,12.7708764 20,16.2217575 C20,17.7072277 19.6606999,19.1140815 19.0582164,20.3732124 C17.2404451,19.5933881 15.5407192,18.5935646 14.1190131,17.3040015 L14.1190131,17.3040015 Z" id="Shape" fill="#0233A1" fill-rule="nonzero"></path>
    </g>
</svg>