<?xml version="1.0" encoding="UTF-8"?>
<svg width="36px" height="36px" viewBox="0 0 36 36" version="1.1" xmlns="http://www.w3.org/2000/svg" xmlns:xlink="http://www.w3.org/1999/xlink">
    <title>Logos/Shadow/Crypto/Cardano</title>
    <g id="Logos/Shadow/Crypto/Cardano" stroke="none" stroke-width="1" fill="none" fill-rule="evenodd">
        <g id="cardano" transform="translate(1.000000, 2.000000)" fill="#3CC8C8" fill-rule="nonzero">
            <path d="M16.5829048,0.0917349448 C17.3239371,-0.289558633 18.2285099,0.594982078 17.8347887,1.32552917 C17.606138,1.92103827 16.7391352,2.07939337 16.2962839,1.62546446 C15.8270824,1.18982019 15.9800829,0.328764344 16.5829048,0.0917349448 M8.61242985,0.939538615 C9.06259126,0.756692156 9.63243304,1.16365134 9.58653289,1.64777508 C9.63430304,2.17333284 8.98303101,2.56016213 8.52419957,2.3103838 C7.91627767,2.07805138 7.98580789,1.10426818 8.61242985,0.939538615 M24.9369009,2.32514572 C24.2334387,2.2412712 24.1220883,1.14989592 24.7993704,0.930144668 C25.3246721,0.677346858 25.8066236,1.15140566 25.8834638,1.64274261 C25.7733035,2.06228297 25.4173224,2.44642828 24.9369009,2.32514572 M10.4259955,4.28697079 C11.1785879,3.81727347 12.2524812,4.51678698 12.1367109,5.37935257 C12.0976107,6.25030561 10.9252871,6.75489473 10.263815,6.16609559 C9.62427301,5.70361147 9.72117331,4.64259877 10.4259955,4.28697079 M21.9148014,4.7853532 C22.2505525,3.93151057 23.6110667,3.90567722 23.9932279,4.73687373 C24.3709691,5.38371405 23.9063576,6.18471573 23.2333255,6.40463473 C22.3418428,6.56886104 21.4950701,5.61789171 21.9148014,4.7853532 M15.6230818,6.35615525 C15.6157717,5.62225319 16.2932239,5.0753913 17.0000861,5.02540209 C17.4689475,5.11816731 17.9799691,5.31527244 18.1810798,5.78211803 C18.5559309,6.42610661 18.2230699,7.31282805 17.5457878,7.60840187 C17.2360468,7.77967364 16.8698657,7.71542576 16.5325846,7.69546362 C16.016973,7.4456853 15.5827916,6.95585809 15.6230818,6.35615525 M3.76979472,7.42555541 C4.45727686,7.00853129 5.38479976,7.7696087 5.12452895,8.50653025 C4.9812185,9.14397662 4.11285579,9.40331664 3.61645424,8.99635746 C3.08656258,8.61506389 3.17054284,7.69831536 3.76979472,7.42555541 M29.2231243,7.42421342 C29.8063961,6.97732997 30.7689391,7.48997105 30.6994089,8.21665991 C30.738509,8.87926863 29.9063564,9.37899303 29.3273346,9.03779148 C28.6896626,8.75496659 28.6245524,7.78688685 29.2231243,7.42421342 M18.9564522,8.74355965 C19.9189952,8.4023581 21.0622488,8.81065927 21.6108405,9.65745645 C22.3345327,10.6926358 21.9494815,12.2691413 20.826458,12.8631407 C19.6628044,13.5656737 17.9636491,12.9701646 17.5338877,11.6878909 C17.0459862,10.5399842 17.7567584,9.10338135 18.9564522,8.74355965 M13.3090345,8.85645476 C14.3757879,8.35958209 15.8114423,8.77643847 16.326714,9.85321958 C16.9331059,10.9013156 16.4642444,12.3607323 15.380151,12.9018907 C14.2946976,13.5101487 12.7633328,13.0490066 12.2380312,11.923746 C11.6489793,10.835558 12.172071,9.35752116 13.3090345,8.85645476 M7.65430686,10.7640969 C7.73539711,10.0858875 8.38377913,9.64453977 9.03794118,9.59891203 C9.74276338,9.68278655 10.3058051,10.2229385 10.3824754,10.9268135 C10.3362352,11.623643 9.79053353,12.3047041 9.04219119,12.3005104 C8.21887862,12.3704617 7.49705636,11.5622468 7.65430686,10.7640969 M24.356519,9.74636344 C25.2017617,9.26089771 26.3754454,9.96762443 26.3378752,10.925807 C26.3958454,11.9410242 25.0968714,12.6564739 24.2551987,12.0609648 C23.380886,11.5650986 23.4490562,10.1685878 24.356519,9.74636344 M11.0107973,13.3244506 C11.9993504,13.0560521 13.129684,13.5158522 13.6145255,14.4124709 C14.1456071,15.3149607 13.9285165,16.5687171 13.1036739,17.2306548 C12.0457606,18.2015863 10.0946645,17.8117375 9.53162272,16.4866878 C8.8846007,15.272017 9.67051316,13.6441802 11.0107973,13.3244506 M21.7223608,13.3194181 C22.6833738,13.0481679 23.8123473,13.413693 24.328979,14.2776006 C25.0120411,15.2656425 24.6859801,16.7393178 23.6690369,17.376261 C22.6038136,18.1158665 20.9537884,17.7275275 20.3676266,16.5710656 C19.6570244,15.3748471 20.3720466,13.6842723 21.7223608,13.3194181 M4.65260748,14.4466917 C5.50652014,14.1279685 6.4530831,15.0578014 6.10713202,15.8931917 C5.89582136,16.6542691 4.80883796,16.9355842 4.24732621,16.3744637 C3.59027416,15.8475639 3.83354492,14.6751659 4.65260748,14.4466917 M27.7981798,15.659014 C27.7735297,14.9608425 28.2911813,14.3425195 29.0167436,14.3039372 C29.6015454,14.3953605 30.1701972,14.8608641 30.1239571,15.4890842 C30.1775072,16.318771 29.1643041,16.8827433 28.4479218,16.4928945 C28.1121708,16.3244745 27.9399602,15.9846149 27.7981798,15.659014 M0.453934354,14.8565026 C0.96767596,14.6352416 1.60313795,15.0745763 1.48583758,15.6375421 C1.45829749,16.2749885 0.504594513,16.5200698 0.154223418,15.9874666 C-0.15534755,15.61758 0.0299530295,15.0472332 0.453934354,14.8565026 Z M32.8463456,14.8437536 C33.2081067,14.5896138 33.7884885,14.7722926 33.931799,15.1893167 C34.1748997,15.6447553 33.7291583,16.2687818 33.2096367,16.191785 C32.4803344,16.2573748 32.2443737,15.1606316 32.8463456,14.8437536 M13.8011861,17.903664 C15.1530303,17.5567589 16.6061948,18.6691029 16.6146949,20.042632 C16.7029251,21.4305876 15.2716907,22.6613624 13.8878863,22.3407939 C12.818243,22.1708642 11.9789504,21.1541372 12.0136305,20.0875888 C12.0107405,19.0675068 12.7908729,18.1193892 13.8011861,17.903664 M19.1548428,17.9008122 C20.5269171,17.5223704 22.0234318,18.6546764 22.0016717,20.0599102 C22.0740919,21.4222002 20.6875676,22.6115409 19.3326633,22.3412972 C18.0576594,22.1785806 17.1168764,20.7963285 17.4728575,19.5754509 C17.6525481,18.7618681 18.3413903,18.1002658 19.1548428,17.9008122 M8.83258054,18.7462674 C9.7820335,18.5864026 10.6721563,19.6316469 10.2871051,20.5212201 C10.0062642,21.4691699 8.60817984,21.7263292 7.9900579,20.9519996 C7.26500564,20.2083681 7.80628733,18.8489298 8.83258054,18.7462674 M24.5329796,18.7880369 C25.3795822,18.4381124 26.4187955,19.1607753 26.3536853,20.0674589 C26.3876854,21.0655657 25.1046914,21.75384 24.2767888,21.1712476 C23.3390659,20.6482061 23.5097464,19.1089408 24.5329796,18.7880369 M28.9213733,23.1313952 C28.5898723,22.5216274 29.1920142,21.7134125 29.8781363,21.8263076 C30.2196674,21.8206042 30.4585181,22.0861509 30.6771388,22.3089216 C30.7220189,22.6702531 30.7973292,23.1013681 30.4933682,23.3798315 C30.0806069,23.8953243 29.145604,23.7482084 28.9213733,23.1313952 M3.76690471,21.9960697 C4.40814671,21.5748518 5.33090959,22.203072 5.18674914,22.9428453 C5.1100789,23.5970665 4.27486629,23.9709791 3.72474458,23.5997505 C3.13433273,23.2627427 3.1560928,22.3032182 3.76690471,21.9960697 M16.4353443,23.3655728 C17.2748069,23.0000477 18.3442803,23.7212008 18.26472,24.6335879 C18.3269402,25.6417596 17.0041661,26.3399312 16.1834035,25.7345249 C15.2716907,25.2146706 15.4236711,23.6853025 16.4353443,23.3655728 M10.567776,24.7162882 C11.2827982,24.3450595 12.2422812,24.9861964 12.177171,25.7757911 C12.1989311,26.4241412 11.5576891,26.9767065 10.909307,26.8809218 C10.3722753,26.8695149 10.0220743,26.3944496 9.84986372,25.9427014 C9.85870374,25.450358 10.0640644,24.9019863 10.567776,24.7162882 M22.4531931,24.7276951 C23.1884454,24.2793019 24.2334387,24.9232905 24.1639084,25.7677392 C24.1827785,26.6502669 23.0017848,27.2155812 22.3171927,26.6358405 C21.6543606,26.1814083 21.7352809,25.0890265 22.4531931,24.7276951 M24.5200596,29.7697281 C24.1929785,29.2814106 24.5780297,28.6931147 25.1091114,28.5817294 C25.5361527,28.6674491 25.9876741,28.9843271 25.8979139,29.4728123 C25.8356937,30.1339113 24.8558106,30.3367199 24.5200596,29.7697281 M8.11313829,29.3456585 C8.2433587,28.9586615 8.55887968,28.5740129 9.02060112,28.6746624 C9.69363323,28.7217998 9.89338385,29.7227584 9.30433201,30.0312489 C8.77461036,30.3836896 8.16005844,29.9010756 8.11313829,29.3456585 M16.028533,29.7896902 C16.1573934,29.2171628 16.9084558,28.9386993 17.4034973,29.2428284 C17.7305783,29.3813891 17.8261186,29.7425528 17.9100989,30.0495335 C17.8652188,30.2093984 17.8250986,30.3694309 17.7856585,30.5292958 C17.5830179,30.7663252 17.3225771,31.0033546 16.985296,30.9947994 C16.3585041,31.067267 15.7930823,30.368089 16.028533,29.7896902" id="Shape"></path>
        </g>
    </g>
</svg>