<?xml version="1.0" encoding="UTF-8"?>
<svg width="36px" height="36px" viewBox="0 0 36 36" version="1.1" xmlns="http://www.w3.org/2000/svg" xmlns:xlink="http://www.w3.org/1999/xlink">
    <title>Group 3</title>
    <g id="Symbols" stroke="none" stroke-width="1" fill="none" fill-rule="evenodd">
        <g id="Group-3">
            <g id="united-states-of-america" transform="translate(11.000000, 11.000000)" fill-rule="nonzero">
                <circle id="Oval" fill="#FFFFFF" cx="12.5" cy="12.5" r="12.5"></circle>
                <g id="Group" transform="translate(0.430615, 2.717383)" fill="#D80027">
                    <path d="M11.5259277,9.78261719 L24.5693848,9.78261719 C24.5693848,8.65439453 24.4189941,7.56142578 24.1387695,6.52172852 L11.5259277,6.52172852 L11.5259277,9.78261719 Z" id="Path"></path>
                    <path d="M11.5259277,3.26088867 L22.7347168,3.26088867 C21.9695313,2.01225586 20.9911621,0.90859375 19.8504395,0 L11.5259277,0 L11.5259277,3.26088867 Z" id="Path"></path>
                    <path d="M12.0693848,22.2826172 C15.0112305,22.2826172 17.7151855,21.2658203 19.8504395,19.5652344 L4.28833008,19.5652344 C6.42358398,21.2658203 9.12753906,22.2826172 12.0693848,22.2826172 Z" id="Path"></path>
                    <path d="M1.40405273,16.3043457 L22.7347168,16.3043457 C23.3490234,15.3019531 23.8254395,14.20625 24.1387695,13.043457 L0,13.043457 C0.313330078,14.20625 0.789746094,15.3019531 1.40405273,16.3043457 Z" id="Path"></path>
                </g>
                <path d="M5.79023437,1.95205078 L6.9293457,1.95205078 L5.86977539,2.72182617 L6.27451172,3.96738281 L5.21499023,3.19760742 L4.15546875,3.96738281 L4.50507812,2.89135742 C3.57216797,3.66845703 2.75449219,4.57890625 2.08066406,5.59335938 L2.4456543,5.59335938 L1.77119141,6.08334961 C1.66611328,6.25864258 1.56533203,6.43671875 1.46875,6.61743164 L1.79082031,7.60869141 L1.18994141,7.17211914 C1.04057617,7.48857422 0.903955078,7.8121582 0.781152344,8.14248047 L1.13598633,9.23466797 L2.4456543,9.23466797 L1.38608398,10.0044434 L1.79082031,11.25 L0.731298828,10.4802246 L0.0966308594,10.9413574 C0.0331054688,11.452002 0,11.9721191 0,12.5 L12.5,12.5 C12.5,5.59648438 12.5,4.78261719 12.5,0 C10.0306641,0 7.72875977,0.716308594 5.79023437,1.95205078 Z M6.27451172,11.25 L5.21499023,10.4802246 L4.15546875,11.25 L4.56020508,10.0044434 L3.50063477,9.23466797 L4.81030273,9.23466797 L5.21499023,7.98911133 L5.61967773,9.23466797 L6.9293457,9.23466797 L5.86977539,10.0044434 L6.27451172,11.25 Z M5.86977539,6.36313477 L6.27451172,7.60869141 L5.21499023,6.83891602 L4.15546875,7.60869141 L4.56020508,6.36313477 L3.50063477,5.59335938 L4.81030273,5.59335938 L5.21499023,4.34780273 L5.61967773,5.59335938 L6.9293457,5.59335938 L5.86977539,6.36313477 Z M10.7582031,11.25 L9.69868164,10.4802246 L8.63916016,11.25 L9.04389648,10.0044434 L7.98432617,9.23466797 L9.29399414,9.23466797 L9.69868164,7.98911133 L10.1033691,9.23466797 L11.4130371,9.23466797 L10.3534668,10.0044434 L10.7582031,11.25 Z M10.3534668,6.36313477 L10.7582031,7.60869141 L9.69868164,6.83891602 L8.63916016,7.60869141 L9.04389648,6.36313477 L7.98432617,5.59335938 L9.29399414,5.59335938 L9.69868164,4.34780273 L10.1033691,5.59335938 L11.4130371,5.59335938 L10.3534668,6.36313477 Z M10.3534668,2.72182617 L10.7582031,3.96738281 L9.69868164,3.19760742 L8.63916016,3.96738281 L9.04389648,2.72182617 L7.98432617,1.95205078 L9.29399414,1.95205078 L9.69868164,0.706494141 L10.1033691,1.95205078 L11.4130371,1.95205078 L10.3534668,2.72182617 Z" id="Shape" fill="#0052B4"></path>
            </g>
            <g id="Group-2">
                <circle id="Oval" fill="#F3BC4B" cx="12.5" cy="12.5" r="12.5"></circle>
                <path d="M7.19225235,8.125 L17.8077477,8.125 C18.0322149,8.125 18.2291713,8.27458936 18.2894079,8.49082322 L20.4483365,16.2408232 C20.5224403,16.5068368 20.3668666,16.7825565 20.100853,16.8566602 C20.0571661,16.8688302 20.0120266,16.875 19.9666762,16.875 L5.03332378,16.875 C4.7571814,16.875 4.53332378,16.6511424 4.53332378,16.375 C4.53332378,16.3296497 4.53949361,16.2845101 4.55166353,16.2408232 L6.7105921,8.49082322 C6.77082868,8.27458936 6.96778515,8.125 7.19225235,8.125 Z" id="Rectangle" fill="#FFFFFF"></path>
            </g>
        </g>
    </g>
</svg>