<?xml version="1.0" encoding="UTF-8"?>
<svg width="36px" height="36px" viewBox="0 0 36 36" version="1.1" xmlns="http://www.w3.org/2000/svg" xmlns:xlink="http://www.w3.org/1999/xlink">
    <title>Logos/Shadow/Stocks/NIO</title>
    <g id="Logos/Shadow/Stocks/NIO" stroke="none" stroke-width="1" fill="none" fill-rule="evenodd">
        <g id="nio-2" transform="translate(0.000000, 2.000000)" fill="#000000" fill-rule="nonzero">
            <path d="M27.4084058,19.3096631 C26.029105,17.9521963 26.1455251,18.0002096 24.192994,18.0002096 L11.8147673,18.0002096 C9.86112747,18.0002096 9.97754756,17.9532875 8.59935553,19.3096631 L2,25.8056439 C3.4960281,28.7767566 5.81538299,31.2708644 8.69027407,33 C10.3811372,31.336994 15.4537265,26.3490672 16.2930598,25.5175642 C16.9860365,24.8366483 17.2909463,24.5725752 17.6668168,24.4590892 C17.7738034,24.4218709 17.8860208,24.4012552 17.9994456,24.3979814 C18.1129016,24.4009679 18.2251641,24.4215919 18.3320744,24.4590892 C18.707945,24.5682103 19.0139635,24.8366483 19.7058314,25.5175642 L27.3086172,33 C30.1840728,31.2712091 32.5038723,28.7770366 34,25.8056439 L27.4084058,19.3096631 Z" id="Path"></path>
            <path d="M9.4868564,17.3423453 C9.98851681,16.7961766 9.91812793,16.3288363 10.4097328,15.0484367 C11.620188,11.8860626 14.6364863,9.80038405 17.9994414,9.80038405 C21.3623965,9.80038405 24.3786947,11.8860626 25.5891499,15.0484367 C26.0818721,16.3333408 26.0114832,16.7961766 26.5131436,17.3423453 C27.014804,17.888514 27.518699,18 29.1141802,18 L36,18 C35.9221139,8.03601742 27.8860964,-1.70530257e-13 18,-1.70530257e-13 C8.11390357,-1.70530257e-13 0.0778861477,8.03601742 0,18 L6.88581981,18 C8.48353558,18 8.99748611,17.8750006 9.4868564,17.3423453" id="Path"></path>
        </g>
    </g>
</svg>