<?xml version="1.0" encoding="UTF-8"?>
<svg width="36px" height="36px" viewBox="0 0 36 36" version="1.1" xmlns="http://www.w3.org/2000/svg" xmlns:xlink="http://www.w3.org/1999/xlink">
    <title>Logos/Shadow/Stocks/Palantir</title>
    <g id="Logos/Shadow/Stocks/Palantir" stroke="none" stroke-width="1" fill="none" fill-rule="evenodd">
        <g id="palantir-vector-logo" transform="translate(3.000000, 0.000000)" fill="#000000" fill-rule="nonzero">
            <path d="M14.5,0 C6.86842105,0 0.610526316,6.17573222 0.610526316,13.707113 C0.610526316,21.2384937 6.86842105,27.4142259 14.5,27.4142259 C22.1315789,27.4142259 28.3894737,21.2384937 28.3894737,13.707113 C28.3894737,6.17573222 22.1315789,0 14.5,0 Z M14.5,23.1966527 C9.15789474,23.1966527 4.88421053,18.9790795 4.88421053,13.707113 C4.88421053,8.43514644 9.15789474,4.21757322 14.5,4.21757322 C19.8421053,4.21757322 24.1157895,8.43514644 24.1157895,13.707113 C23.9631579,18.9790795 19.6894737,23.1966527 14.5,23.1966527 Z M26.8631579,26.209205 L14.5,31.4811715 L2.13684211,26.209205 L0,29.9748954 L14.5,36 L29,29.9748954 L26.8631579,26.209205 Z" id="Shape"></path>
        </g>
    </g>
</svg>