<?xml version="1.0" encoding="UTF-8"?>
<svg width="36px" height="36px" viewBox="0 0 36 36" version="1.1" xmlns="http://www.w3.org/2000/svg" xmlns:xlink="http://www.w3.org/1999/xlink">
    <title>Logos/Shadow/Stocks/Pfizer</title>
    <g id="Logos/Shadow/Stocks/Pfizer" stroke="none" stroke-width="1" fill="none" fill-rule="evenodd">
        <g id="pfizer-5" transform="translate(1.000000, 8.000000)" fill="#0094D1" fill-rule="nonzero">
            <path d="M21.0539041,2.34263787e-13 L21.052793,2.34263787e-13 C19.0983509,2.34263787e-13 17.0311311,0.216721255 14.9322447,0.67336369 C6.33947702,2.54237232 0.00226226167,7.80422858 1.96226904e-05,12.8074905 C-0.000982937206,13.19025 0.0364339477,13.5721123 0.111706577,13.9471162 C0.734483622,17.056472 3.84836884,19.2621625 8.17447486,20.1596035 C9.08836267,16.4815665 11.1922491,8.06565213 11.1922491,8.06565213 C11.6039153,6.40091601 11.833915,5.75754247 12.2428034,5.03325212 C12.7739139,4.09733317 13.6261351,3.322682 14.8205781,3.21007749 C15.4705774,3.14953134 16.4377985,3.23440912 16.9794645,3.63050541 C17.4894639,4.00396762 17.5550194,4.39553709 17.5377972,4.75202375 C17.5027972,5.48876285 17.0705755,5.98105395 16.3805763,5.98105395 C15.6733549,5.98105395 15.4522441,5.44009959 15.4494663,5.08191538 C15.4444663,4.59698035 15.7216882,4.52228791 15.7177993,4.16240614 C15.7155771,3.97850429 15.5561328,3.6904857 15.1139111,3.76234888 C14.5672451,3.85118762 14.1122456,4.30330324 13.8161349,5.09040315 C13.7466905,5.274305 13.6611351,5.51931885 13.5550241,5.93748336 L13.0128025,8.13808116 L16.5939094,8.13808116 C16.1255766,9.90693402 15.3333553,13.0468459 15.1111334,13.9075065 L13.3022466,13.9075065 L14.5439118,9.08475129 L12.770025,9.08475129 L9.93836167,20.4453587 C10.8222495,20.5494754 11.7433595,20.6049289 12.6944695,20.6060606 L12.8011361,20.6060606 C14.7055783,20.6020996 16.7255759,20.3882076 18.7889068,19.9377896 C27.4033411,18.0631224 33.9938889,12.7520371 34,7.7334971 C34,7.36286414 33.965,6.99392874 33.8916668,6.62725675 C33.06889,2.51464558 27.7161185,2.34263787e-13 21.0550152,2.34263787e-13 L21.0539041,2.34263787e-13 Z M5.14892287,5.2578953 L7.26558704,5.2578953 C10.5111388,5.2578953 10.7400274,6.98374341 10.4650277,8.21447116 C10.1244726,9.73491506 9.2505847,10.8202189 5.52392243,10.8264433 C5.15614508,12.2422046 4.83892323,13.4672738 4.72392337,13.905809 L2.90503662,13.905809 C3.23781401,12.6218911 5.14892287,5.2578953 5.14892287,5.2578953 M21.477237,11.8681765 C21.477237,9.7790515 23.2811237,7.99888161 25.2077881,7.99888161 C26.1661203,7.99888161 26.9938971,8.46344597 26.9938971,9.25450684 C26.9938971,10.0738603 26.3683423,10.9169795 25.4216768,11.2372517 C24.832233,11.4426559 24.2361226,11.5637482 23.2377905,11.5637482 C23.2139016,11.7827329 23.2239016,11.8676106 23.2239016,11.9864395 C23.2239016,12.5432377 23.6777899,13.0185533 24.3100114,13.0185533 C25.1588993,13.0185533 25.9594539,12.2071217 26.0527871,12.1092294 L26.3683423,12.9879973 C26.1144537,13.2624354 25.8316763,13.5006591 25.5105656,13.6743756 C25.0033439,13.9488137 24.4239002,14.0970669 23.7877898,14.0970669 C22.4094581,14.096501 21.477237,13.19906 21.477237,11.8681765 M31.5700029,8.03622783 C32.5744461,8.03622783 32.7250015,8.66036241 32.7250015,9.14303403 C32.7250015,9.71058343 32.3411131,10.0998895 31.9011136,10.0998895 C31.5666695,10.0998895 31.420003,9.95955824 31.3605587,9.89844624 C31.2077811,9.73887602 31.18167,9.57534484 31.1644478,9.43897454 C31.1422256,9.27827262 31.0922256,9.12379507 30.9155592,9.09437077 C30.6622262,9.05249774 30.4533375,9.15887788 30.2377822,9.35805773 C29.9455603,9.62910076 29.6961162,10.0580165 29.5144497,10.4693907 C29.3888943,10.7528825 29.2966722,11.0216621 29.24445,11.2140518 L28.5411175,13.905809 L26.7188975,13.905809 L28.2133401,8.13638361 L29.9800047,8.13638361 L29.6627829,9.29241892 C30.0794491,8.76900596 30.8561148,8.03622783 31.5700029,8.03622783 M19.6972391,9.08305374 L17.1711309,9.08305374 L17.4161306,8.13694946 L21.9444586,8.13694946 C21.4233481,9.93069979 18.9711288,11.3883341 18.2939074,12.7458127 L21.1477929,12.7458127 L20.8483488,13.905809 L16.2133543,13.905809 C16.2133543,12.0826343 19.1405731,9.97653379 19.6972391,9.08305374 M6.7450321,6.11799009 C6.4850324,7.12350881 6.11614395,8.54266523 5.76281103,9.90636816 C7.20614267,9.9035389 8.11336382,9.6415495 8.5583633,8.15166161 C8.92225176,6.9333826 8.78058526,6.11799009 7.0628095,6.11799009 L6.7450321,6.11799009 Z M24.3027892,9.23130692 C23.8505675,9.5934521 23.5033457,10.1621332 23.3666792,10.7998482 C24.1905671,10.7704239 24.6555666,10.6425414 25.0833438,10.2922791 C25.4672323,9.97823135 25.6400098,9.6240081 25.6400098,9.32523832 C25.6400098,9.16283885 25.5433433,8.90594211 25.100566,8.90594211 C24.8994552,8.90594211 24.5716778,9.01571737 24.3027892,9.23130692" id="Shape"></path>
        </g>
    </g>
</svg>